<svg xmlns="http://www.w3.org/2000/svg" xmlns:xlink="http://www.w3.org/1999/xlink" width="100" zoomAndPan="magnify" viewBox="0 0 75 74.999997" height="100" preserveAspectRatio="xMidYMid meet" version="1.0"><defs><clipPath id="f44560e568"><path d="M 42 32 L 63.050781 32 L 63.050781 35 L 42 35 Z M 42 32 " clip-rule="nonzero"/></clipPath><clipPath id="39983c4402"><path d="M 55 15 L 63.050781 15 L 63.050781 34 L 55 34 Z M 55 15 " clip-rule="nonzero"/></clipPath><clipPath id="cd500334c5"><path d="M 12.050781 32 L 33 32 L 33 35 L 12.050781 35 Z M 12.050781 32 " clip-rule="nonzero"/></clipPath><clipPath id="8f9a471663"><path d="M 12.050781 15 L 20 15 L 20 34 L 12.050781 34 Z M 12.050781 15 " clip-rule="nonzero"/></clipPath><clipPath id="747d0c2c01"><path d="M 42 40 L 63.050781 40 L 63.050781 43 L 42 43 Z M 42 40 " clip-rule="nonzero"/></clipPath><clipPath id="c0cfd58ac2"><path d="M 55 41 L 63.050781 41 L 63.050781 60 L 55 60 Z M 55 41 " clip-rule="nonzero"/></clipPath><clipPath id="2c5ae3aaf9"><path d="M 12.050781 40 L 33 40 L 33 43 L 12.050781 43 Z M 12.050781 40 " clip-rule="nonzero"/></clipPath><clipPath id="7efb342d23"><path d="M 12.050781 41 L 20 41 L 20 60 L 12.050781 60 Z M 12.050781 41 " clip-rule="nonzero"/></clipPath><clipPath id="5511b48424"><path d="M 37 6.671875 L 52 6.671875 L 52 68.171875 L 37 68.171875 Z M 37 6.671875 " clip-rule="nonzero"/></clipPath><clipPath id="a4881e52cf"><path d="M 23 6.671875 L 38 6.671875 L 38 68.171875 L 23 68.171875 Z M 23 6.671875 " clip-rule="nonzero"/></clipPath></defs><g clip-path="url(#f44560e568)"><path fill="#634b1e" d="M 63.050781 33.859375 L 50.667969 34.371094 L 42.644531 33.859375 L 55.917969 32.59375 L 63.050781 33.859375 " fill-opacity="1" fill-rule="nonzero"/></g><g clip-path="url(#39983c4402)"><path fill="#d9a740" d="M 55.890625 33.148438 L 63.050781 33.859375 L 63.050781 19.5 L 55.890625 15.933594 L 55.339844 16.527344 L 55.339844 32.535156 L 55.890625 33.148438 " fill-opacity="1" fill-rule="nonzero"/></g><path fill="#886a2a" d="M 42.644531 19.492188 L 55.890625 15.921875 L 55.890625 33.148438 L 42.644531 33.859375 L 42.644531 19.492188 " fill-opacity="1" fill-rule="nonzero"/><g clip-path="url(#cd500334c5)"><path fill="#634b1e" d="M 12.050781 33.859375 L 24.433594 34.371094 L 32.460938 33.859375 L 19.222656 32.449219 L 12.050781 33.859375 " fill-opacity="1" fill-rule="nonzero"/></g><g clip-path="url(#8f9a471663)"><path fill="#886a2a" d="M 19.210938 33.148438 L 12.050781 33.835938 L 12.050781 19.433594 L 19.210938 15.875 L 19.542969 16.488281 L 19.542969 32.609375 L 19.210938 33.148438 " fill-opacity="1" fill-rule="nonzero"/></g><path fill="#d9a740" d="M 32.460938 19.492188 L 19.210938 15.921875 L 19.210938 33.148438 L 32.460938 33.859375 L 32.460938 19.492188 " fill-opacity="1" fill-rule="nonzero"/><g clip-path="url(#747d0c2c01)"><path fill="#fad791" d="M 63.050781 41.285156 L 50.667969 40.773438 L 42.644531 41.285156 L 55.863281 42.613281 L 63.050781 41.285156 " fill-opacity="1" fill-rule="nonzero"/></g><g clip-path="url(#c0cfd58ac2)"><path fill="#d9a740" d="M 55.890625 41.996094 L 63.050781 41.285156 L 63.050781 55.644531 L 55.890625 59.207031 L 55.515625 58.394531 L 55.515625 42.730469 L 55.890625 41.996094 " fill-opacity="1" fill-rule="nonzero"/></g><path fill="#886a2a" d="M 42.644531 55.652344 L 55.890625 59.222656 L 55.890625 41.996094 L 42.644531 41.285156 L 42.644531 55.652344 " fill-opacity="1" fill-rule="nonzero"/><g clip-path="url(#2c5ae3aaf9)"><path fill="#fad791" d="M 12.050781 41.285156 L 24.433594 40.773438 L 32.460938 41.285156 L 19.125 42.730469 L 12.050781 41.285156 " fill-opacity="1" fill-rule="nonzero"/></g><g clip-path="url(#7efb342d23)"><path fill="#886a2a" d="M 19.210938 41.996094 L 12.050781 41.285156 L 12.050781 55.644531 L 19.210938 59.207031 L 19.648438 58.566406 L 19.648438 42.730469 L 19.210938 41.996094 " fill-opacity="1" fill-rule="nonzero"/></g><path fill="#d9a740" d="M 32.460938 55.652344 L 19.210938 59.222656 L 19.210938 41.996094 L 32.460938 41.285156 L 32.460938 55.652344 " fill-opacity="1" fill-rule="nonzero"/><path fill="#634b1e" d="M 31.085938 27.828125 L 37.65625 26.679688 L 50.765625 28.53125 L 51.894531 29.175781 L 45.527344 29.871094 L 31.085938 27.828125 " fill-opacity="1" fill-rule="nonzero"/><path fill="#634b1e" d="M 44.015625 27.828125 L 37.449219 26.679688 L 23.773438 28.792969 L 23.207031 29.175781 L 29.574219 29.871094 L 44.015625 27.828125 " fill-opacity="1" fill-rule="nonzero"/><path fill="#fad791" d="M 31.085938 47.316406 L 37.65625 48.460938 L 50.734375 46.640625 L 51.894531 45.96875 L 45.527344 45.273438 L 31.085938 47.316406 " fill-opacity="1" fill-rule="nonzero"/><path fill="#fad791" d="M 44.015625 47.316406 L 37.449219 48.460938 L 23.671875 46.511719 L 23.207031 45.96875 L 29.574219 45.273438 L 44.015625 47.316406 " fill-opacity="1" fill-rule="nonzero"/><g clip-path="url(#5511b48424)"><path fill="#d9a740" d="M 51.894531 29.175781 L 51.894531 22.078125 L 45.179688 19.890625 L 45.179688 10.601562 L 37.550781 6.808594 L 37.234375 7.3125 L 37.175781 67.320312 L 37.550781 68.089844 L 45.179688 64.296875 L 45.179688 55.25 L 51.894531 53.066406 L 51.894531 45.96875 L 45.179688 47.144531 L 45.179688 28 L 51.894531 29.175781 " fill-opacity="1" fill-rule="nonzero"/></g><g clip-path="url(#a4881e52cf)"><path fill="#886a2a" d="M 29.921875 10.601562 L 29.921875 19.890625 L 23.207031 22.078125 L 23.207031 29.175781 L 29.921875 28 L 29.921875 47.144531 L 23.207031 45.96875 L 23.207031 53.066406 L 29.921875 55.25 L 29.921875 64.296875 L 37.550781 68.089844 L 37.550781 6.808594 L 29.921875 10.601562 " fill-opacity="1" fill-rule="nonzero"/></g></svg>