<svg xmlns="http://www.w3.org/2000/svg" xmlns:xlink="http://www.w3.org/1999/xlink" width="100" zoomAndPan="magnify" viewBox="0 0 75 74.999997" height="100" preserveAspectRatio="xMidYMid meet" version="1.0"><defs><clipPath id="32a2c9fafe"><path d="M 13.359375 6.695312 L 45 6.695312 L 45 55 L 13.359375 55 Z M 13.359375 6.695312 " clip-rule="nonzero"/></clipPath><clipPath id="a4f54ad7e0"><path d="M 41 6.695312 L 61.359375 6.695312 L 61.359375 68 L 41 68 Z M 41 6.695312 " clip-rule="nonzero"/></clipPath></defs><g clip-path="url(#32a2c9fafe)"><path fill="#2ba977" d="M 34.882812 6.695312 L 44.871094 6.695312 L 44.871094 52.660156 C 39.753906 53.632812 35.988281 54.011719 31.914062 54.011719 C 19.710938 54 13.359375 48.527344 13.359375 38.019531 C 13.359375 27.894531 20.097656 21.320312 30.535156 21.320312 C 32.15625 21.320312 33.390625 21.449219 34.882812 21.832031 Z M 35.234375 30.117188 C 34.0625 29.734375 33.097656 29.605469 31.863281 29.605469 C 26.8125 29.605469 23.894531 32.699219 23.894531 38.121094 C 23.894531 43.398438 26.683594 46.316406 31.800781 46.316406 C 32.90625 46.316406 33.804688 46.253906 35.234375 46.0625 Z M 35.234375 30.117188 " fill-opacity="1" fill-rule="nonzero"/></g><g clip-path="url(#a4f54ad7e0)"><path fill="#2ba977" d="M 61.207031 22.554688 L 61.207031 45.570312 C 61.207031 53.496094 60.617188 57.304688 58.882812 60.59375 C 57.261719 63.75 55.125 65.742188 50.71875 67.941406 L 41.449219 63.558594 C 45.855469 61.5 47.992188 59.683594 49.355469 56.910156 C 50.78125 54.070312 51.230469 50.785156 51.230469 42.144531 L 51.230469 22.554688 Z M 50.222656 6.695312 L 60.214844 6.695312 L 60.214844 16.886719 L 50.222656 16.886719 Z M 50.222656 6.695312 " fill-opacity="1" fill-rule="nonzero"/></g></svg>