<svg xmlns="http://www.w3.org/2000/svg" xmlns:xlink="http://www.w3.org/1999/xlink" width="100" zoomAndPan="magnify" viewBox="0 0 75 74.999997" height="100" preserveAspectRatio="xMidYMid meet" version="1.0"><defs><clipPath id="3a0ceefda5"><path d="M 11.257812 8.746094 L 63.757812 8.746094 L 63.757812 66.496094 L 11.257812 66.496094 Z M 11.257812 8.746094 " clip-rule="nonzero"/></clipPath></defs><path fill="#e535ab" d="M 16.628906 52.71875 L 14.519531 51.496094 L 37.980469 10.710938 L 40.085938 11.929688 Z M 16.628906 52.71875 " fill-opacity="1" fill-rule="nonzero"/><path fill="#e535ab" d="M 14.039062 48.238281 L 60.957031 48.238281 L 60.957031 50.679688 L 14.039062 50.679688 Z M 14.039062 48.238281 " fill-opacity="1" fill-rule="nonzero"/><path fill="#e535ab" d="M 38.4375 63.210938 L 14.96875 49.609375 L 16.183594 47.496094 L 39.652344 61.097656 Z M 58.824219 27.761719 L 35.355469 14.160156 L 36.570312 12.046875 L 60.039062 25.648438 Z M 58.824219 27.761719 " fill-opacity="1" fill-rule="nonzero"/><path fill="#e535ab" d="M 16.191406 27.753906 L 14.972656 25.636719 L 38.441406 12.035156 L 39.65625 14.152344 Z M 16.191406 27.753906 " fill-opacity="1" fill-rule="nonzero"/><path fill="#e535ab" d="M 58.390625 52.71875 L 34.929688 11.929688 L 37.035156 10.710938 L 60.496094 51.496094 Z M 15.898438 24.019531 L 18.332031 24.019531 L 18.332031 51.222656 L 15.898438 51.222656 Z M 15.898438 24.019531 " fill-opacity="1" fill-rule="nonzero"/><path fill="#e535ab" d="M 56.679688 24.019531 L 59.113281 24.019531 L 59.113281 51.222656 L 56.679688 51.222656 Z M 56.679688 24.019531 " fill-opacity="1" fill-rule="nonzero"/><path fill="#e535ab" d="M 38.023438 62.179688 L 36.960938 60.332031 L 57.371094 48.5 L 58.433594 50.347656 Z M 38.023438 62.179688 " fill-opacity="1" fill-rule="nonzero"/><g clip-path="url(#3a0ceefda5)"><path fill="#e535ab" d="M 62.335938 52.015625 C 60.929688 54.472656 57.792969 55.3125 55.347656 53.898438 C 52.902344 52.488281 52.066406 49.339844 53.472656 46.886719 C 54.878906 44.429688 58.015625 43.589844 60.460938 45.003906 C 62.921875 46.429688 63.757812 49.5625 62.335938 52.015625 M 21.523438 28.359375 C 20.117188 30.8125 16.984375 31.652344 14.539062 30.238281 C 12.089844 28.828125 11.257812 25.679688 12.664062 23.226562 C 14.070312 20.769531 17.203125 19.933594 19.648438 21.34375 C 22.097656 22.769531 22.929688 25.902344 21.523438 28.359375 M 12.675781 52.015625 C 11.269531 49.5625 12.105469 46.429688 14.550781 45.003906 C 17 43.589844 20.117188 44.429688 21.539062 46.886719 C 22.945312 49.339844 22.109375 52.472656 19.664062 53.898438 C 17.203125 55.3125 14.082031 54.472656 12.675781 52.015625 M 53.488281 28.359375 C 52.082031 25.902344 52.917969 22.769531 55.363281 21.34375 C 57.808594 19.933594 60.929688 20.769531 62.351562 23.226562 C 63.757812 25.679688 62.921875 28.8125 60.476562 30.238281 C 58.027344 31.652344 54.894531 30.8125 53.488281 28.359375 M 37.507812 66.414062 C 34.679688 66.414062 32.394531 64.117188 32.394531 61.28125 C 32.394531 58.441406 34.679688 56.148438 37.507812 56.148438 C 40.332031 56.148438 42.617188 58.441406 42.617188 61.28125 C 42.617188 64.105469 40.332031 66.414062 37.507812 66.414062 M 37.507812 19.09375 C 34.679688 19.09375 32.394531 16.800781 32.394531 13.960938 C 32.394531 11.125 34.679688 8.828125 37.507812 8.828125 C 40.332031 8.828125 42.617188 11.125 42.617188 13.960938 C 42.617188 16.800781 40.332031 19.09375 37.507812 19.09375 " fill-opacity="1" fill-rule="nonzero"/></g></svg>