<svg xmlns="http://www.w3.org/2000/svg" xmlns:xlink="http://www.w3.org/1999/xlink" width="100" zoomAndPan="magnify" viewBox="0 0 75 74.999997" height="100" preserveAspectRatio="xMidYMid meet" version="1.0"><defs><clipPath id="c6bd21e777"><path d="M 8.074219 5.066406 L 66.574219 5.066406 L 66.574219 69.566406 L 8.074219 69.566406 Z M 8.074219 5.066406 " clip-rule="nonzero"/></clipPath></defs><g clip-path="url(#c6bd21e777)"><path fill="#8cc84b" d="M 34.695312 5.886719 C 36.289062 4.972656 38.359375 4.96875 39.949219 5.886719 C 47.945312 10.40625 55.945312 14.917969 63.941406 19.441406 C 65.445312 20.289062 66.453125 21.964844 66.4375 23.695312 L 66.4375 50.894531 C 66.445312 52.699219 65.34375 54.414062 63.753906 55.242188 C 55.785156 59.738281 47.816406 64.238281 39.847656 68.734375 C 38.226562 69.660156 36.113281 69.589844 34.539062 68.585938 C 32.148438 67.199219 29.753906 65.820312 27.363281 64.4375 C 26.875 64.144531 26.328125 63.914062 25.980469 63.4375 C 26.285156 63.027344 26.832031 62.976562 27.273438 62.796875 C 28.273438 62.480469 29.1875 61.972656 30.105469 61.476562 C 30.335938 61.316406 30.617188 61.378906 30.839844 61.519531 C 32.882812 62.691406 34.910156 63.898438 36.960938 65.058594 C 37.398438 65.3125 37.839844 64.976562 38.214844 64.769531 C 46.035156 60.347656 53.867188 55.941406 61.6875 51.515625 C 61.976562 51.378906 62.136719 51.070312 62.113281 50.753906 C 62.117188 41.78125 62.113281 32.808594 62.117188 23.835938 C 62.148438 23.476562 61.941406 23.144531 61.617188 22.996094 C 53.671875 18.523438 45.734375 14.039062 37.792969 9.566406 C 37.652344 9.46875 37.496094 9.417969 37.324219 9.417969 C 37.152344 9.417969 36.996094 9.46875 36.855469 9.5625 C 28.914062 14.039062 20.976562 18.527344 13.035156 23 C 12.710938 23.148438 12.492188 23.476562 12.53125 23.835938 C 12.535156 32.808594 12.53125 41.78125 12.53125 50.753906 C 12.5 51.105469 12.644531 51.359375 12.964844 51.507812 C 15.082031 52.710938 17.207031 53.90625 19.324219 55.101562 C 20.519531 55.746094 21.988281 56.128906 23.304688 55.636719 C 24.464844 55.21875 25.277344 54.03125 25.257812 52.800781 C 25.269531 43.878906 25.25 34.960938 25.265625 26.042969 C 25.234375 25.644531 25.613281 25.320312 25.996094 25.355469 C 27.015625 25.347656 28.035156 25.34375 29.054688 25.359375 C 29.476562 25.347656 29.769531 25.777344 29.71875 26.175781 C 29.714844 35.148438 29.730469 44.125 29.710938 53.101562 C 29.714844 55.492188 28.730469 58.097656 26.519531 59.265625 C 23.792969 60.679688 20.425781 60.378906 17.734375 59.027344 C 15.40625 57.863281 13.179688 56.488281 10.890625 55.242188 C 9.300781 54.417969 8.199219 52.699219 8.210938 50.894531 L 8.210938 23.695312 C 8.195312 21.925781 9.242188 20.222656 10.792969 19.386719 C 18.761719 14.890625 26.730469 10.386719 34.695312 5.886719 Z M 34.695312 5.886719 " fill-opacity="1" fill-rule="nonzero"/></g><path fill="#8cc84b" d="M 41.648438 24.722656 C 45.125 24.5 48.847656 24.589844 51.972656 26.304688 C 54.394531 27.617188 55.738281 30.371094 55.78125 33.0625 C 55.714844 33.425781 55.332031 33.625 54.988281 33.601562 C 53.980469 33.601562 52.96875 33.617188 51.960938 33.59375 C 51.535156 33.609375 51.285156 33.214844 51.230469 32.839844 C 50.941406 31.550781 50.238281 30.273438 49.027344 29.652344 C 47.167969 28.722656 45.011719 28.769531 42.984375 28.789062 C 41.503906 28.867188 39.910156 28.996094 38.65625 29.867188 C 37.695312 30.527344 37.402344 31.859375 37.746094 32.929688 C 38.070312 33.699219 38.957031 33.949219 39.683594 34.179688 C 43.875 35.273438 48.3125 35.164062 52.421875 36.609375 C 54.121094 37.195312 55.785156 38.339844 56.367188 40.121094 C 57.128906 42.507812 56.796875 45.363281 55.097656 47.28125 C 53.71875 48.855469 51.714844 49.714844 49.714844 50.183594 C 47.050781 50.777344 44.289062 50.792969 41.585938 50.527344 C 39.046875 50.238281 36.402344 49.570312 34.4375 47.835938 C 32.761719 46.378906 31.941406 44.109375 32.023438 41.917969 C 32.042969 41.546875 32.410156 41.289062 32.765625 41.320312 C 33.78125 41.3125 34.796875 41.308594 35.8125 41.320312 C 36.21875 41.292969 36.519531 41.644531 36.539062 42.023438 C 36.726562 43.253906 37.1875 44.539062 38.257812 45.265625 C 40.320312 46.597656 42.910156 46.507812 45.273438 46.546875 C 47.230469 46.457031 49.429688 46.433594 51.027344 45.136719 C 51.871094 44.398438 52.121094 43.164062 51.890625 42.101562 C 51.644531 41.203125 50.707031 40.785156 49.902344 40.511719 C 45.765625 39.203125 41.277344 39.679688 37.183594 38.199219 C 35.519531 37.609375 33.914062 36.5 33.273438 34.792969 C 32.382812 32.375 32.792969 29.382812 34.667969 27.53125 C 36.496094 25.6875 39.136719 24.976562 41.648438 24.722656 Z M 41.648438 24.722656 " fill-opacity="1" fill-rule="nonzero"/></svg>