<svg xmlns="http://www.w3.org/2000/svg" xmlns:xlink="http://www.w3.org/1999/xlink" width="100" zoomAndPan="magnify" viewBox="0 0 75 74.999997" height="100" preserveAspectRatio="xMidYMid meet" version="1.0"><defs><clipPath id="88d89f38e0"><path d="M 6.472656 6.644531 L 53 6.644531 L 53 53 L 6.472656 53 Z M 6.472656 6.644531 " clip-rule="nonzero"/></clipPath><clipPath id="0e9dca9a0f"><path d="M 37.285156 6.660156 C 21.546875 6.660156 22.53125 13.441406 22.53125 13.441406 L 22.546875 20.464844 L 37.566406 20.464844 L 37.566406 22.574219 L 16.582031 22.574219 C 16.582031 22.574219 6.507812 21.441406 6.507812 37.21875 C 6.507812 52.992188 15.300781 52.433594 15.300781 52.433594 L 20.546875 52.433594 L 20.546875 45.113281 C 20.546875 45.113281 20.265625 36.378906 29.199219 36.378906 L 44.09375 36.378906 C 44.09375 36.378906 52.464844 36.515625 52.464844 28.34375 L 52.464844 14.835938 C 52.464844 14.835938 53.734375 6.660156 37.285156 6.660156 Z M 29.003906 11.382812 C 29.363281 11.382812 29.707031 11.453125 30.039062 11.589844 C 30.371094 11.722656 30.664062 11.917969 30.914062 12.171875 C 31.167969 12.421875 31.363281 12.710938 31.5 13.042969 C 31.636719 13.371094 31.707031 13.710938 31.707031 14.070312 C 31.707031 14.425781 31.636719 14.765625 31.5 15.097656 C 31.363281 15.425781 31.167969 15.714844 30.914062 15.96875 C 30.664062 16.21875 30.371094 16.414062 30.039062 16.550781 C 29.707031 16.6875 29.363281 16.753906 29.003906 16.753906 C 28.644531 16.753906 28.300781 16.6875 27.96875 16.550781 C 27.640625 16.414062 27.347656 16.21875 27.09375 15.96875 C 26.839844 15.714844 26.644531 15.425781 26.507812 15.097656 C 26.371094 14.765625 26.300781 14.425781 26.300781 14.070312 C 26.300781 13.710938 26.371094 13.371094 26.507812 13.042969 C 26.644531 12.710938 26.839844 12.421875 27.09375 12.171875 C 27.347656 11.917969 27.640625 11.722656 27.96875 11.589844 C 28.300781 11.453125 28.644531 11.382812 29.003906 11.382812 Z M 29.003906 11.382812 " clip-rule="nonzero"/></clipPath><linearGradient x1="0.00409649" gradientTransform="matrix(45.978475, 0, 0, 45.776544, 6.509026, 6.660422)" y1="-0.00412861" x2="1.027747" gradientUnits="userSpaceOnUse" y2="1.01157" id="dcd547a1db"><stop stop-opacity="1" stop-color="rgb(21.998596%, 49.398804%, 72.198486%)" offset="0"/><stop stop-opacity="1" stop-color="rgb(21.99707%, 49.383545%, 72.172546%)" offset="0.125"/><stop stop-opacity="1" stop-color="rgb(21.986389%, 49.27063%, 71.975708%)" offset="0.140625"/><stop stop-opacity="1" stop-color="rgb(21.966553%, 49.073792%, 71.635437%)" offset="0.15625"/><stop stop-opacity="1" stop-color="rgb(21.948242%, 48.876953%, 71.295166%)" offset="0.171875"/><stop stop-opacity="1" stop-color="rgb(21.928406%, 48.680115%, 70.953369%)" offset="0.1875"/><stop stop-opacity="1" stop-color="rgb(21.910095%, 48.483276%, 70.613098%)" offset="0.203125"/><stop stop-opacity="1" stop-color="rgb(21.890259%, 48.286438%, 70.272827%)" offset="0.21875"/><stop stop-opacity="1" stop-color="rgb(21.870422%, 48.0896%, 69.932556%)" offset="0.234375"/><stop stop-opacity="1" stop-color="rgb(21.852112%, 47.892761%, 69.592285%)" offset="0.25"/><stop stop-opacity="1" stop-color="rgb(21.832275%, 47.695923%, 69.250488%)" offset="0.265625"/><stop stop-opacity="1" stop-color="rgb(21.813965%, 47.499084%, 68.910217%)" offset="0.28125"/><stop stop-opacity="1" stop-color="rgb(21.794128%, 47.302246%, 68.569946%)" offset="0.296875"/><stop stop-opacity="1" stop-color="rgb(21.775818%, 47.106934%, 68.229675%)" offset="0.3125"/><stop stop-opacity="1" stop-color="rgb(21.755981%, 46.910095%, 67.887878%)" offset="0.328125"/><stop stop-opacity="1" stop-color="rgb(21.736145%, 46.713257%, 67.547607%)" offset="0.34375"/><stop stop-opacity="1" stop-color="rgb(21.717834%, 46.516418%, 67.207336%)" offset="0.359375"/><stop stop-opacity="1" stop-color="rgb(21.697998%, 46.31958%, 66.867065%)" offset="0.375"/><stop stop-opacity="1" stop-color="rgb(21.679688%, 46.122742%, 66.526794%)" offset="0.390625"/><stop stop-opacity="1" stop-color="rgb(21.659851%, 45.925903%, 66.184998%)" offset="0.40625"/><stop stop-opacity="1" stop-color="rgb(21.641541%, 45.729065%, 65.844727%)" offset="0.421875"/><stop stop-opacity="1" stop-color="rgb(21.621704%, 45.532227%, 65.504456%)" offset="0.4375"/><stop stop-opacity="1" stop-color="rgb(21.601868%, 45.335388%, 65.164185%)" offset="0.453125"/><stop stop-opacity="1" stop-color="rgb(21.583557%, 45.140076%, 64.822388%)" offset="0.46875"/><stop stop-opacity="1" stop-color="rgb(21.563721%, 44.943237%, 64.482117%)" offset="0.484375"/><stop stop-opacity="1" stop-color="rgb(21.54541%, 44.746399%, 64.141846%)" offset="0.494377"/><stop stop-opacity="1" stop-color="rgb(21.536255%, 44.648743%, 63.972473%)" offset="0.5"/><stop stop-opacity="1" stop-color="rgb(21.525574%, 44.549561%, 63.801575%)" offset="0.505623"/><stop stop-opacity="1" stop-color="rgb(21.516418%, 44.451904%, 63.630676%)" offset="0.515625"/><stop stop-opacity="1" stop-color="rgb(21.507263%, 44.352722%, 63.459778%)" offset="0.53125"/><stop stop-opacity="1" stop-color="rgb(21.487427%, 44.155884%, 63.119507%)" offset="0.546875"/><stop stop-opacity="1" stop-color="rgb(21.46759%, 43.959045%, 62.779236%)" offset="0.5625"/><stop stop-opacity="1" stop-color="rgb(21.44928%, 43.762207%, 62.438965%)" offset="0.578125"/><stop stop-opacity="1" stop-color="rgb(21.429443%, 43.565369%, 62.098694%)" offset="0.59375"/><stop stop-opacity="1" stop-color="rgb(21.411133%, 43.36853%, 61.756897%)" offset="0.609375"/><stop stop-opacity="1" stop-color="rgb(21.391296%, 43.171692%, 61.416626%)" offset="0.625"/><stop stop-opacity="1" stop-color="rgb(21.37146%, 42.976379%, 61.076355%)" offset="0.640625"/><stop stop-opacity="1" stop-color="rgb(21.353149%, 42.779541%, 60.736084%)" offset="0.65625"/><stop stop-opacity="1" stop-color="rgb(21.333313%, 42.582703%, 60.394287%)" offset="0.671875"/><stop stop-opacity="1" stop-color="rgb(21.315002%, 42.385864%, 60.054016%)" offset="0.6875"/><stop stop-opacity="1" stop-color="rgb(21.295166%, 42.189026%, 59.713745%)" offset="0.703125"/><stop stop-opacity="1" stop-color="rgb(21.276855%, 41.992188%, 59.373474%)" offset="0.71875"/><stop stop-opacity="1" stop-color="rgb(21.257019%, 41.795349%, 59.033203%)" offset="0.734375"/><stop stop-opacity="1" stop-color="rgb(21.237183%, 41.598511%, 58.691406%)" offset="0.75"/><stop stop-opacity="1" stop-color="rgb(21.218872%, 41.401672%, 58.351135%)" offset="0.765625"/><stop stop-opacity="1" stop-color="rgb(21.203613%, 41.25061%, 58.09021%)" offset="0.78125"/><stop stop-opacity="1" stop-color="rgb(21.199036%, 41.19873%, 57.998657%)" offset="0.8125"/><stop stop-opacity="1" stop-color="rgb(21.199036%, 41.19873%, 57.998657%)" offset="0.875"/><stop stop-opacity="1" stop-color="rgb(21.199036%, 41.19873%, 57.998657%)" offset="1"/></linearGradient><clipPath id="e92de4ce9c"><path d="M 22 22 L 68.722656 22 L 68.722656 68 L 22 68 Z M 22 22 " clip-rule="nonzero"/></clipPath><clipPath id="8af9722381"><path d="M 37.734375 67.933594 C 53.472656 67.933594 52.492188 61.152344 52.492188 61.152344 L 52.472656 54.125 L 37.453125 54.125 L 37.453125 52.019531 L 58.4375 52.019531 C 58.4375 52.019531 68.511719 53.152344 68.511719 37.375 C 68.511719 21.597656 59.71875 22.15625 59.71875 22.15625 L 54.472656 22.15625 L 54.472656 29.480469 C 54.472656 29.480469 54.757812 38.210938 45.824219 38.210938 L 30.925781 38.210938 C 30.925781 38.210938 22.554688 38.078125 22.554688 46.25 L 22.554688 59.757812 C 22.554688 59.757812 21.285156 67.933594 37.734375 67.933594 Z M 46.015625 63.207031 C 45.65625 63.207031 45.3125 63.140625 44.980469 63.003906 C 44.648438 62.867188 44.359375 62.675781 44.105469 62.421875 C 43.851562 62.171875 43.65625 61.882812 43.519531 61.550781 C 43.382812 61.222656 43.3125 60.878906 43.3125 60.523438 C 43.3125 60.167969 43.382812 59.824219 43.519531 59.496094 C 43.65625 59.167969 43.851562 58.878906 44.105469 58.625 C 44.359375 58.375 44.648438 58.179688 44.980469 58.042969 C 45.3125 57.90625 45.65625 57.839844 46.015625 57.839844 C 46.375 57.839844 46.71875 57.90625 47.050781 58.042969 C 47.382812 58.179688 47.671875 58.375 47.925781 58.625 C 48.179688 58.878906 48.375 59.167969 48.511719 59.496094 C 48.648438 59.824219 48.71875 60.167969 48.71875 60.523438 C 48.71875 60.878906 48.648438 61.222656 48.511719 61.550781 C 48.375 61.878906 48.179688 62.171875 47.925781 62.421875 C 47.671875 62.675781 47.382812 62.867188 47.050781 63.003906 C 46.71875 63.140625 46.375 63.207031 46.015625 63.207031 Z M 46.015625 63.207031 " clip-rule="nonzero"/></clipPath><linearGradient x1="-0.0326456" gradientTransform="matrix(45.978468, 0, 0, 45.776541, 22.532359, 22.155729)" y1="-0.00636616" x2="1.013978" gradientUnits="userSpaceOnUse" y2="0.985247" id="11d1abe0c1"><stop stop-opacity="1" stop-color="rgb(100%, 87.799072%, 32.199097%)" offset="0"/><stop stop-opacity="1" stop-color="rgb(100%, 87.799072%, 32.199097%)" offset="0.125"/><stop stop-opacity="1" stop-color="rgb(100%, 87.799072%, 32.199097%)" offset="0.1875"/><stop stop-opacity="1" stop-color="rgb(100%, 87.759399%, 32.15332%)" offset="0.21875"/><stop stop-opacity="1" stop-color="rgb(100%, 87.590027%, 31.959534%)" offset="0.234375"/><stop stop-opacity="1" stop-color="rgb(100%, 87.332153%, 31.661987%)" offset="0.25"/><stop stop-opacity="1" stop-color="rgb(100%, 87.07428%, 31.365967%)" offset="0.265625"/><stop stop-opacity="1" stop-color="rgb(100%, 86.816406%, 31.06842%)" offset="0.28125"/><stop stop-opacity="1" stop-color="rgb(100%, 86.558533%, 30.7724%)" offset="0.296875"/><stop stop-opacity="1" stop-color="rgb(100%, 86.300659%, 30.474854%)" offset="0.3125"/><stop stop-opacity="1" stop-color="rgb(100%, 86.04126%, 30.177307%)" offset="0.328125"/><stop stop-opacity="1" stop-color="rgb(100%, 85.783386%, 29.881287%)" offset="0.34375"/><stop stop-opacity="1" stop-color="rgb(100%, 85.525513%, 29.58374%)" offset="0.359375"/><stop stop-opacity="1" stop-color="rgb(100%, 85.267639%, 29.28772%)" offset="0.375"/><stop stop-opacity="1" stop-color="rgb(100%, 85.009766%, 28.990173%)" offset="0.390625"/><stop stop-opacity="1" stop-color="rgb(100%, 84.751892%, 28.694153%)" offset="0.40625"/><stop stop-opacity="1" stop-color="rgb(100%, 84.494019%, 28.396606%)" offset="0.421875"/><stop stop-opacity="1" stop-color="rgb(100%, 84.236145%, 28.100586%)" offset="0.4375"/><stop stop-opacity="1" stop-color="rgb(100%, 83.978271%, 27.80304%)" offset="0.453125"/><stop stop-opacity="1" stop-color="rgb(100%, 83.720398%, 27.507019%)" offset="0.46875"/><stop stop-opacity="1" stop-color="rgb(100%, 83.460999%, 27.209473%)" offset="0.482837"/><stop stop-opacity="1" stop-color="rgb(100%, 83.332825%, 27.061462%)" offset="0.484375"/><stop stop-opacity="1" stop-color="rgb(100%, 83.203125%, 26.911926%)" offset="0.5"/><stop stop-opacity="1" stop-color="rgb(100%, 82.945251%, 26.615906%)" offset="0.515625"/><stop stop-opacity="1" stop-color="rgb(100%, 82.687378%, 26.318359%)" offset="0.517163"/><stop stop-opacity="1" stop-color="rgb(100%, 82.559204%, 26.170349%)" offset="0.53125"/><stop stop-opacity="1" stop-color="rgb(100%, 82.429504%, 26.022339%)" offset="0.546875"/><stop stop-opacity="1" stop-color="rgb(100%, 82.171631%, 25.724792%)" offset="0.5625"/><stop stop-opacity="1" stop-color="rgb(100%, 81.913757%, 25.428772%)" offset="0.578125"/><stop stop-opacity="1" stop-color="rgb(100%, 81.655884%, 25.131226%)" offset="0.59375"/><stop stop-opacity="1" stop-color="rgb(100%, 81.39801%, 24.835205%)" offset="0.609375"/><stop stop-opacity="1" stop-color="rgb(100%, 81.138611%, 24.537659%)" offset="0.625"/><stop stop-opacity="1" stop-color="rgb(100%, 80.880737%, 24.240112%)" offset="0.640625"/><stop stop-opacity="1" stop-color="rgb(100%, 80.622864%, 23.944092%)" offset="0.65625"/><stop stop-opacity="1" stop-color="rgb(100%, 80.36499%, 23.646545%)" offset="0.671875"/><stop stop-opacity="1" stop-color="rgb(100%, 80.107117%, 23.350525%)" offset="0.6875"/><stop stop-opacity="1" stop-color="rgb(100%, 79.849243%, 23.052979%)" offset="0.703125"/><stop stop-opacity="1" stop-color="rgb(100%, 79.59137%, 22.756958%)" offset="0.71875"/><stop stop-opacity="1" stop-color="rgb(100%, 79.333496%, 22.459412%)" offset="0.734375"/><stop stop-opacity="1" stop-color="rgb(100%, 79.075623%, 22.163391%)" offset="0.75"/><stop stop-opacity="1" stop-color="rgb(100%, 78.816223%, 21.865845%)" offset="0.765625"/><stop stop-opacity="1" stop-color="rgb(100%, 78.55835%, 21.568298%)" offset="0.78125"/><stop stop-opacity="1" stop-color="rgb(100%, 78.300476%, 21.272278%)" offset="0.796875"/><stop stop-opacity="1" stop-color="rgb(100%, 78.042603%, 20.974731%)" offset="0.8125"/><stop stop-opacity="1" stop-color="rgb(100%, 77.784729%, 20.678711%)" offset="0.828125"/><stop stop-opacity="1" stop-color="rgb(100%, 77.526855%, 20.381165%)" offset="0.84375"/><stop stop-opacity="1" stop-color="rgb(100%, 77.268982%, 20.085144%)" offset="0.859375"/><stop stop-opacity="1" stop-color="rgb(100%, 77.011108%, 19.787598%)" offset="0.875"/><stop stop-opacity="1" stop-color="rgb(100%, 76.753235%, 19.491577%)" offset="0.890625"/><stop stop-opacity="1" stop-color="rgb(100%, 76.560974%, 19.270325%)" offset="0.90625"/><stop stop-opacity="1" stop-color="rgb(100%, 76.499939%, 19.198608%)" offset="0.9375"/><stop stop-opacity="1" stop-color="rgb(100%, 76.499939%, 19.198608%)" offset="1"/></linearGradient></defs><g clip-path="url(#88d89f38e0)"><g clip-path="url(#0e9dca9a0f)"><path fill="url(#dcd547a1db)" d="M 6.507812 6.660156 L 6.507812 52.992188 L 53.734375 52.992188 L 53.734375 6.660156 Z M 6.507812 6.660156 " fill-rule="nonzero"/></g></g><g clip-path="url(#e92de4ce9c)"><g clip-path="url(#8af9722381)"><path fill="url(#11d1abe0c1)" d="M 21.285156 21.597656 L 21.285156 67.933594 L 68.511719 67.933594 L 68.511719 21.597656 Z M 21.285156 21.597656 " fill-rule="nonzero"/></g></g></svg>