<svg xmlns="http://www.w3.org/2000/svg" xmlns:xlink="http://www.w3.org/1999/xlink" width="100" zoomAndPan="magnify" viewBox="0 0 75 74.999997" height="100" preserveAspectRatio="xMidYMid meet" version="1.0"><defs><clipPath id="269560d929"><path d="M 45 6.945312 L 58 6.945312 L 58 67.695312 L 45 67.695312 Z M 45 6.945312 " clip-rule="nonzero"/></clipPath><clipPath id="8dcd0ddbf4"><path d="M 16 6.945312 L 30 6.945312 L 30 67.695312 L 16 67.695312 Z M 16 6.945312 " clip-rule="nonzero"/></clipPath><clipPath id="23ba1dbe0f"><path d="M 28 6.945312 L 46 6.945312 L 46 67.695312 L 28 67.695312 Z M 28 6.945312 " clip-rule="nonzero"/></clipPath><clipPath id="511c4f9178"><path d="M 10.691406 12 L 63.941406 12 L 63.941406 62 L 10.691406 62 Z M 10.691406 12 " clip-rule="nonzero"/></clipPath><clipPath id="b7a3519706"><path d="M 57 12 L 63.941406 12 L 63.941406 62 L 57 62 Z M 57 12 " clip-rule="nonzero"/></clipPath></defs><g clip-path="url(#269560d929)"><path fill="#5294cf" d="M 45.066406 67.578125 L 45.796875 67.578125 L 57.707031 61.558594 L 57.902344 61.277344 L 57.902344 13.253906 L 57.707031 12.96875 L 45.796875 6.957031 L 45.058594 6.957031 L 45.066406 67.578125 " fill-opacity="1" fill-rule="nonzero"/></g><g clip-path="url(#8dcd0ddbf4)"><path fill="#1f5b98" d="M 29.566406 67.578125 L 28.824219 67.578125 L 16.925781 61.558594 L 16.683594 61.140625 L 16.5625 13.5 L 16.925781 12.96875 L 28.824219 6.957031 L 29.574219 6.957031 L 29.566406 67.578125 " fill-opacity="1" fill-rule="nonzero"/></g><g clip-path="url(#23ba1dbe0f)"><path fill="#2d72b8" d="M 28.847656 6.957031 L 45.785156 6.957031 L 45.785156 67.578125 L 28.847656 67.578125 Z M 28.847656 6.957031 " fill-opacity="1" fill-rule="nonzero"/></g><g clip-path="url(#511c4f9178)"><path fill="#1a476f" d="M 63.941406 35.90625 L 63.539062 35.816406 L 57.792969 35.273438 L 57.707031 35.316406 L 45.785156 34.835938 L 28.847656 34.835938 L 16.925781 35.316406 L 16.925781 26.132812 L 16.914062 26.140625 L 16.925781 26.113281 L 28.847656 23.324219 L 45.785156 23.324219 L 57.707031 26.113281 L 62.089844 28.46875 L 62.089844 26.953125 L 63.941406 26.75 L 63.75 26.371094 L 57.882812 22.136719 L 57.707031 22.195312 L 45.785156 18.464844 L 28.847656 18.464844 L 16.925781 22.195312 L 16.925781 12.96875 L 10.691406 20.347656 L 10.691406 26.789062 L 10.738281 26.753906 L 12.542969 26.953125 L 12.542969 28.5 L 10.691406 29.5 L 10.691406 35.910156 L 10.738281 35.90625 L 12.542969 35.933594 L 12.542969 38.625 L 10.988281 38.648438 L 10.691406 38.617188 L 10.691406 45.03125 L 12.542969 46.039062 L 12.542969 47.601562 L 10.769531 47.796875 L 10.691406 47.738281 L 10.691406 54.179688 L 16.925781 61.558594 L 16.925781 52.335938 L 28.847656 56.066406 L 45.785156 56.066406 L 57.742188 52.324219 L 57.898438 52.394531 L 63.6875 48.222656 L 63.941406 47.804688 L 62.089844 47.601562 L 62.089844 46.070312 L 61.847656 45.972656 L 57.882812 48.128906 L 57.742188 48.429688 L 45.785156 51.207031 L 28.847656 51.207031 L 16.925781 48.417969 L 16.925781 39.203125 L 28.847656 39.683594 L 28.847656 39.695312 L 45.785156 39.695312 L 57.707031 39.203125 L 57.976562 39.328125 L 63.546875 38.84375 L 63.941406 38.652344 L 62.089844 38.625 L 62.089844 35.933594 L 63.941406 35.90625 " fill-opacity="1" fill-rule="nonzero"/></g><g clip-path="url(#b7a3519706)"><path fill="#2d72b8" d="M 57.707031 52.335938 L 57.707031 61.558594 L 63.941406 54.179688 L 63.941406 47.78125 L 57.742188 52.324219 L 57.707031 52.335938 M 57.707031 48.441406 L 57.742188 48.429688 L 63.941406 45.0625 L 63.941406 38.625 L 57.707031 39.203125 L 57.707031 48.441406 M 57.742188 26.121094 L 57.707031 26.113281 L 57.707031 35.316406 L 63.941406 35.90625 L 63.941406 29.46875 L 57.742188 26.121094 M 57.742188 22.230469 L 63.941406 26.75 L 63.941406 20.347656 L 57.707031 12.96875 L 57.707031 22.195312 L 57.742188 22.207031 L 57.742188 22.230469 " fill-opacity="1" fill-rule="nonzero"/></g></svg>