<svg xmlns="http://www.w3.org/2000/svg" xmlns:xlink="http://www.w3.org/1999/xlink" width="100" zoomAndPan="magnify" viewBox="0 0 75 74.999997" height="100" preserveAspectRatio="xMidYMid meet" version="1.0"><defs><clipPath id="1fce3a3399"><path d="M 4.125 4.125 L 70.875 4.125 L 70.875 70.875 L 4.125 70.875 Z M 4.125 4.125 " clip-rule="nonzero"/></clipPath></defs><g clip-path="url(#1fce3a3399)"><path fill="#ffffff" d="M 63.277344 70.875 L 11.71875 70.875 C 7.523438 70.875 4.125 67.476562 4.125 63.28125 L 4.125 11.71875 C 4.125 7.523438 7.523438 4.125 11.71875 4.125 L 63.28125 4.125 C 67.472656 4.125 70.875 7.523438 70.875 11.71875 L 70.875 63.28125 C 70.871094 67.476562 67.472656 70.875 63.277344 70.875 Z M 63.277344 70.875 " fill-opacity="1" fill-rule="nonzero"/></g><path fill="#599636" d="M 37.753906 9.210938 L 39.027344 11.597656 C 39.3125 12.039062 39.621094 12.425781 39.984375 12.789062 C 41.050781 13.84375 42.046875 14.972656 42.964844 16.164062 C 45.117188 18.988281 46.566406 22.125 47.605469 25.523438 C 48.226562 27.59375 48.5625 29.726562 48.589844 31.875 C 48.695312 38.304688 46.488281 43.828125 42.046875 48.417969 C 41.324219 49.144531 40.542969 49.8125 39.710938 50.410156 C 39.269531 50.410156 39.0625 50.074219 38.878906 49.761719 C 38.546875 49.1875 38.328125 48.554688 38.230469 47.898438 C 38.074219 47.117188 37.972656 46.339844 38.023438 45.539062 L 38.023438 45.175781 C 37.988281 45.09375 37.601562 9.394531 37.753906 9.210938 Z M 37.753906 9.210938 " fill-opacity="1" fill-rule="nonzero"/><path fill="#6cac48" d="M 37.753906 9.132812 C 37.703125 9.027344 37.652344 9.105469 37.597656 9.160156 C 37.625 9.679688 37.441406 10.144531 37.15625 10.585938 C 36.84375 11.027344 36.429688 11.367188 36.015625 11.730469 C 33.710938 13.722656 31.894531 16.136719 30.441406 18.835938 C 28.507812 22.464844 27.511719 26.351562 27.230469 30.453125 C 27.101562 31.929688 27.699219 37.140625 28.164062 38.644531 C 29.4375 42.636719 31.714844 45.980469 34.675781 48.882812 C 35.398438 49.582031 36.175781 50.234375 36.976562 50.859375 C 37.214844 50.859375 37.238281 50.648438 37.289062 50.496094 C 37.394531 50.164062 37.472656 49.828125 37.523438 49.484375 L 38.046875 45.597656 Z M 37.753906 9.132812 " fill-opacity="1" fill-rule="nonzero"/><path fill="#c2bfbf" d="M 39.027344 51.988281 C 39.078125 51.390625 39.363281 50.898438 39.675781 50.40625 C 39.363281 50.277344 39.128906 50.019531 38.949219 49.734375 C 38.789062 49.460938 38.664062 49.175781 38.5625 48.875 C 38.199219 47.789062 38.121094 46.644531 38.015625 45.535156 L 38.015625 44.859375 C 37.886719 44.964844 37.859375 45.847656 37.859375 45.976562 C 37.785156 47.15625 37.625 48.320312 37.390625 49.476562 C 37.3125 49.945312 37.265625 50.410156 36.976562 50.824219 C 36.976562 50.875 36.976562 50.929688 37.003906 51.007812 C 37.46875 52.382812 37.597656 53.78125 37.675781 55.210938 L 37.675781 55.730469 C 37.675781 56.351562 37.648438 56.222656 38.167969 56.429688 C 38.375 56.507812 38.605469 56.535156 38.816406 56.6875 C 38.972656 56.6875 38.996094 56.558594 38.996094 56.453125 L 38.917969 55.597656 L 38.917969 53.210938 C 38.894531 52.792969 38.972656 52.378906 39.027344 51.988281 Z M 39.027344 51.988281 " fill-opacity="1" fill-rule="nonzero"/><path fill="#47474a" d="M 16.921875 63.570312 L 16.921875 64.722656 C 16.921875 64.769531 16.921875 64.816406 16.929688 64.859375 C 16.945312 64.996094 17.027344 65.082031 17.152344 65.117188 C 17.265625 65.148438 17.382812 65.171875 17.5 65.1875 C 17.570312 65.195312 17.589844 65.226562 17.597656 65.296875 C 17.605469 65.558594 17.585938 65.585938 17.335938 65.570312 C 16.75 65.542969 16.164062 65.53125 15.582031 65.570312 L 15.527344 65.570312 C 15.34375 65.578125 15.332031 65.5625 15.332031 65.378906 C 15.332031 65.351562 15.339844 65.3125 15.339844 65.28125 C 15.339844 65.226562 15.375 65.199219 15.429688 65.199219 C 15.550781 65.183594 15.664062 65.152344 15.777344 65.128906 C 15.9375 65.089844 16.027344 64.992188 16.042969 64.832031 C 16.0625 64.65625 16.0625 64.476562 16.0625 64.300781 L 16.070312 62.265625 C 16.078125 62.148438 16.011719 62.035156 15.90625 61.976562 C 15.769531 61.902344 15.621094 61.839844 15.472656 61.796875 C 15.425781 61.78125 15.382812 61.773438 15.34375 61.75 C 15.230469 61.695312 15.230469 61.597656 15.335938 61.535156 C 15.375 61.515625 15.421875 61.5 15.464844 61.488281 C 15.925781 61.421875 16.375 61.308594 16.8125 61.148438 C 16.902344 61.121094 16.929688 61.128906 16.9375 61.21875 C 16.945312 61.273438 16.9375 61.339844 16.929688 61.390625 C 16.914062 61.488281 16.914062 61.589844 16.914062 61.679688 C 16.914062 61.71875 16.921875 61.757812 16.960938 61.777344 C 17 61.800781 17.039062 61.777344 17.074219 61.757812 C 17.230469 61.632812 17.390625 61.523438 17.566406 61.425781 C 17.816406 61.289062 18.082031 61.164062 18.371094 61.128906 C 18.71875 61.082031 19.023438 61.171875 19.289062 61.398438 C 19.398438 61.5 19.496094 61.609375 19.578125 61.734375 C 19.65625 61.84375 19.664062 61.847656 19.761719 61.769531 C 20.050781 61.558594 20.351562 61.371094 20.679688 61.230469 C 21.019531 61.085938 21.371094 61.066406 21.71875 61.183594 C 22.074219 61.3125 22.316406 61.5625 22.460938 61.90625 C 22.585938 62.175781 22.636719 62.460938 22.636719 62.753906 L 22.636719 64.789062 C 22.636719 64.925781 22.691406 65.007812 22.828125 65.078125 C 22.972656 65.132812 23.128906 65.164062 23.28125 65.191406 C 23.382812 65.214844 23.382812 65.214844 23.382812 65.316406 C 23.367188 65.566406 23.34375 65.578125 23.101562 65.566406 C 22.492188 65.53125 21.882812 65.53125 21.273438 65.566406 C 21.152344 65.574219 21.152344 65.574219 21.144531 65.453125 L 21.144531 65.414062 C 21.136719 65.207031 21.136719 65.207031 21.335938 65.164062 L 21.53125 65.109375 C 21.667969 65.074219 21.765625 64.953125 21.765625 64.8125 L 21.789062 64.242188 L 21.777344 62.753906 C 21.769531 62.621094 21.742188 62.492188 21.691406 62.367188 C 21.5 61.90625 21.082031 61.738281 20.683594 61.785156 C 20.378906 61.8125 20.113281 61.9375 19.863281 62.113281 C 19.808594 62.148438 19.773438 62.195312 19.777344 62.269531 C 19.84375 62.753906 19.800781 63.242188 19.808594 63.726562 L 19.808594 64.78125 C 19.808594 64.972656 19.882812 65.0625 20.066406 65.109375 L 20.414062 65.183594 C 20.46875 65.191406 20.5 65.214844 20.5 65.273438 L 20.5 65.328125 C 20.492188 65.542969 20.476562 65.550781 20.265625 65.550781 C 19.65625 65.519531 19.050781 65.527344 18.453125 65.550781 C 18.246094 65.558594 18.230469 65.535156 18.238281 65.328125 C 18.246094 65.207031 18.261719 65.199219 18.375 65.175781 L 18.625 65.128906 C 18.847656 65.082031 18.929688 65 18.945312 64.765625 L 18.96875 64.253906 L 18.953125 62.730469 C 18.941406 62.539062 18.898438 62.359375 18.796875 62.183594 C 18.644531 61.90625 18.40625 61.761719 18.082031 61.746094 C 17.753906 61.722656 17.46875 61.84375 17.191406 61.996094 C 17 62.109375 16.917969 62.238281 16.933594 62.460938 L 16.933594 63.566406 Z M 31.214844 63.617188 L 31.214844 64.683594 C 31.214844 64.761719 31.222656 64.839844 31.230469 64.910156 C 31.234375 65.015625 31.3125 65.101562 31.414062 65.125 C 31.542969 65.164062 31.675781 65.183594 31.8125 65.191406 C 31.890625 65.199219 31.902344 65.230469 31.910156 65.289062 L 31.910156 65.34375 C 31.902344 65.609375 31.875 65.640625 31.613281 65.625 C 31.035156 65.585938 30.460938 65.597656 29.886719 65.625 L 29.664062 65.632812 C 29.617188 65.632812 29.609375 65.613281 29.597656 65.578125 C 29.574219 65.472656 29.574219 65.367188 29.597656 65.261719 C 29.605469 65.214844 29.636719 65.207031 29.683594 65.191406 C 29.792969 65.179688 29.886719 65.152344 29.992188 65.136719 C 30.183594 65.089844 30.25 65.015625 30.257812 64.820312 L 30.277344 64.179688 L 30.277344 62.3125 C 30.277344 62.175781 30.222656 62.09375 30.105469 62.03125 C 29.96875 61.957031 29.824219 61.90625 29.671875 61.851562 C 29.625 61.835938 29.582031 61.820312 29.542969 61.796875 C 29.445312 61.726562 29.429688 61.628906 29.527344 61.554688 C 29.574219 61.515625 29.625 61.496094 29.683594 61.492188 C 30.167969 61.417969 30.636719 61.308594 31.09375 61.128906 C 31.148438 61.105469 31.171875 61.121094 31.191406 61.164062 C 31.214844 61.210938 31.222656 61.265625 31.214844 61.316406 L 31.191406 61.675781 C 31.191406 61.722656 31.171875 61.789062 31.207031 61.804688 C 31.253906 61.832031 31.28125 61.765625 31.320312 61.75 C 31.542969 61.558594 31.789062 61.402344 32.054688 61.28125 C 32.289062 61.167969 32.535156 61.097656 32.804688 61.113281 C 33.316406 61.144531 33.679688 61.402344 33.914062 61.851562 C 34.035156 62.085938 34.085938 62.34375 34.109375 62.609375 L 34.132812 63.164062 L 34.140625 64.839844 C 34.148438 64.96875 34.195312 65.054688 34.320312 65.101562 C 34.457031 65.144531 34.59375 65.175781 34.730469 65.199219 C 34.851562 65.210938 34.859375 65.234375 34.867188 65.351562 L 34.867188 65.386719 C 34.851562 65.648438 34.835938 65.652344 34.578125 65.640625 C 34.011719 65.609375 33.445312 65.609375 32.878906 65.640625 C 32.804688 65.648438 32.726562 65.640625 32.660156 65.648438 C 32.613281 65.648438 32.582031 65.640625 32.574219 65.59375 C 32.5625 65.496094 32.542969 65.398438 32.566406 65.289062 C 32.574219 65.242188 32.597656 65.222656 32.652344 65.214844 L 33 65.160156 C 33.121094 65.128906 33.191406 65.046875 33.203125 64.9375 L 33.21875 64.726562 L 33.210938 63.140625 C 33.210938 62.957031 33.203125 62.773438 33.164062 62.59375 C 33.074219 62.203125 32.777344 61.929688 32.375 61.886719 C 32.027344 61.851562 31.710938 61.941406 31.417969 62.128906 C 31.273438 62.21875 31.214844 62.351562 31.214844 62.507812 L 31.214844 63.65625 C 31.214844 63.632812 31.214844 63.632812 31.222656 63.632812 Z M 31.214844 63.617188 " fill-opacity="1" fill-rule="nonzero"/><path fill="#c2bfbf" d="M 53.433594 61.472656 C 53.347656 60.917969 53.144531 60.425781 52.785156 59.992188 C 52.476562 59.609375 52.074219 59.3125 51.617188 59.125 C 51.140625 58.929688 50.628906 58.867188 50.113281 58.855469 C 49.902344 58.84375 47.003906 58.890625 46.792969 58.855469 C 46.738281 58.84375 46.703125 58.863281 46.667969 58.910156 C 46.632812 58.960938 46.59375 59.023438 46.570312 59.082031 C 46.480469 59.289062 46.480469 59.273438 46.699219 59.304688 C 46.882812 59.332031 47.054688 59.351562 47.230469 59.402344 C 47.390625 59.457031 47.503906 59.546875 47.542969 59.71875 C 47.554688 59.804688 47.570312 62.472656 47.570312 63.71875 L 47.542969 64.605469 C 47.535156 64.675781 47.527344 64.742188 47.503906 64.800781 C 47.472656 64.890625 47.417969 64.96875 47.328125 65.007812 C 47.226562 65.054688 47.121094 65.082031 47.011719 65.089844 C 46.804688 65.113281 46.777344 65.121094 46.707031 65.351562 L 46.683594 65.433594 C 46.671875 65.53125 46.675781 65.550781 46.777344 65.550781 L 49.042969 65.570312 L 49.933594 65.558594 L 50.546875 65.480469 C 51.242188 65.351562 51.867188 65.0625 52.398438 64.601562 C 52.699219 64.332031 52.949219 64.007812 53.125 63.644531 C 53.335938 63.21875 53.425781 62.753906 53.453125 62.285156 C 53.492188 62.015625 53.480469 61.742188 53.433594 61.472656 Z M 52.335938 62.546875 C 52.304688 63.03125 52.207031 63.503906 51.957031 63.925781 C 51.636719 64.480469 51.179688 64.867188 50.550781 65.003906 C 50.277344 65.058594 50.007812 65.089844 49.71875 65.050781 C 49.515625 65.027344 49.320312 65.003906 49.128906 64.9375 C 48.789062 64.8125 48.664062 64.601562 48.660156 64.269531 L 48.652344 59.695312 C 48.652344 59.421875 48.773438 59.363281 48.96875 59.355469 C 49.265625 59.332031 49.570312 59.339844 49.863281 59.367188 C 50.179688 59.398438 50.488281 59.476562 50.78125 59.589844 C 51 59.679688 51.203125 59.804688 51.382812 59.960938 C 51.792969 60.308594 52.066406 60.75 52.214844 61.265625 C 52.335938 61.679688 52.359375 62.105469 52.335938 62.53125 Z M 59.738281 63.292969 C 59.738281 63.246094 59.738281 63.207031 59.730469 63.164062 C 59.664062 62.746094 59.441406 62.429688 59.101562 62.183594 C 58.878906 62.027344 58.632812 61.921875 58.375 61.84375 C 58.328125 61.832031 58.289062 61.8125 58.246094 61.804688 C 58.253906 61.769531 58.273438 61.761719 58.300781 61.75 C 58.453125 61.675781 58.597656 61.59375 58.726562 61.480469 C 58.960938 61.28125 59.113281 61.039062 59.195312 60.742188 C 59.238281 60.585938 59.238281 60.425781 59.222656 60.257812 C 59.199219 59.863281 58.996094 59.5 58.671875 59.269531 C 58.320312 59.011719 57.914062 58.90625 57.488281 58.898438 C 56.667969 58.886719 55.839844 58.898438 55.023438 58.898438 C 54.789062 58.898438 54.554688 58.914062 54.308594 58.878906 C 54.261719 58.871094 54.195312 58.855469 54.164062 58.910156 C 54.109375 59.007812 54.042969 59.105469 54.019531 59.21875 C 54.011719 59.273438 54.027344 59.304688 54.085938 59.308594 L 54.609375 59.386719 C 54.816406 59.414062 54.960938 59.53125 54.976562 59.710938 C 54.988281 59.839844 54.996094 59.964844 54.996094 60.089844 L 54.984375 61.507812 L 54.976562 64.316406 C 54.976562 64.480469 54.953125 64.640625 54.921875 64.808594 C 54.90625 64.917969 54.828125 65.003906 54.726562 65.035156 C 54.574219 65.082031 54.429688 65.125 54.269531 65.125 C 54.183594 65.117188 54.101562 65.171875 54.074219 65.253906 C 54.042969 65.320312 54.019531 65.398438 54.003906 65.464844 C 53.992188 65.554688 54.015625 65.585938 54.105469 65.578125 C 54.171875 65.570312 56.675781 65.632812 57.144531 65.585938 C 57.425781 65.554688 57.703125 65.515625 57.980469 65.433594 C 58.457031 65.28125 58.898438 65.0625 59.25 64.6875 C 59.539062 64.386719 59.703125 64.019531 59.71875 63.59375 C 59.738281 63.496094 59.738281 63.398438 59.738281 63.292969 Z M 56.058594 60.179688 L 56.082031 59.574219 C 56.082031 59.457031 56.125 59.40625 56.238281 59.382812 C 56.421875 59.34375 56.605469 59.359375 56.785156 59.367188 C 56.964844 59.382812 57.140625 59.40625 57.324219 59.457031 C 57.65625 59.558594 57.914062 59.746094 58.066406 60.066406 C 58.136719 60.210938 58.175781 60.371094 58.175781 60.53125 C 58.183594 60.742188 58.164062 60.949219 58.085938 61.152344 C 57.957031 61.433594 57.75 61.617188 57.453125 61.667969 C 57.15625 61.722656 56.316406 61.695312 56.1875 61.695312 C 56.070312 61.695312 56.0625 61.683594 56.0625 61.570312 L 56.0625 60.855469 C 56.042969 60.632812 56.042969 60.410156 56.054688 60.1875 Z M 58.523438 64.261719 C 58.394531 64.601562 58.15625 64.839844 57.824219 64.96875 C 57.640625 65.035156 57.460938 65.082031 57.269531 65.066406 C 57.035156 65.058594 56.800781 65.066406 56.5625 65.019531 C 56.242188 64.953125 56.097656 64.648438 56.078125 64.429688 C 56.039062 64.042969 56.0625 63.648438 56.054688 63.359375 L 56.054688 62.359375 C 56.054688 62.238281 56.070312 62.203125 56.199219 62.203125 L 56.914062 62.210938 L 57.398438 62.265625 C 57.742188 62.339844 58.050781 62.46875 58.292969 62.734375 C 58.492188 62.945312 58.597656 63.203125 58.621094 63.484375 C 58.644531 63.746094 58.628906 64.007812 58.53125 64.257812 Z M 58.523438 64.261719 " fill-opacity="1" fill-rule="nonzero"/><path fill="#47474a" d="M 39.25 61.976562 L 39.445312 62.007812 C 39.65625 62.015625 39.90625 61.941406 39.984375 61.644531 C 40.027344 61.5 40.027344 61.355469 39.984375 61.210938 C 39.9375 61.210938 39.917969 61.246094 39.894531 61.265625 C 39.78125 61.355469 39.652344 61.410156 39.515625 61.421875 C 39.242188 61.453125 38.96875 61.433594 38.703125 61.335938 L 38.332031 61.210938 C 38.074219 61.125 37.800781 61.089844 37.527344 61.101562 C 37.140625 61.132812 36.777344 61.261719 36.433594 61.445312 C 36.070312 61.640625 35.8125 61.9375 35.691406 62.339844 C 35.621094 62.574219 35.613281 62.816406 35.644531 63.058594 C 35.71875 63.609375 36.007812 64 36.523438 64.203125 C 36.554688 64.210938 36.578125 64.222656 36.609375 64.234375 C 36.675781 64.269531 36.683594 64.308594 36.621094 64.359375 L 36.433594 64.488281 L 35.976562 64.769531 C 35.863281 64.839844 35.847656 64.890625 35.886719 65.011719 C 35.933594 65.152344 36.015625 65.28125 36.128906 65.378906 C 36.234375 65.46875 36.351562 65.539062 36.476562 65.589844 C 36.5625 65.628906 36.5625 65.644531 36.488281 65.714844 L 36.054688 66.023438 C 35.910156 66.136719 35.765625 66.246094 35.644531 66.390625 C 35.460938 66.582031 35.398438 66.8125 35.460938 67.070312 C 35.519531 67.335938 35.65625 67.574219 35.855469 67.753906 C 36.058594 67.9375 36.289062 68.066406 36.554688 68.132812 C 36.980469 68.253906 37.417969 68.257812 37.851562 68.175781 C 38.472656 68.0625 39.019531 67.789062 39.445312 67.320312 C 39.742188 67.011719 39.914062 66.644531 39.929688 66.210938 C 39.964844 65.691406 39.617188 65.226562 39.109375 65.105469 L 38.699219 65.027344 L 37.449219 64.917969 C 37.3125 64.910156 37.175781 64.886719 37.0625 64.820312 C 36.917969 64.730469 36.878906 64.554688 36.972656 64.441406 C 37.039062 64.355469 37.125 64.304688 37.230469 64.296875 L 37.472656 64.273438 C 37.964844 64.222656 38.394531 64.027344 38.753906 63.691406 C 38.945312 63.511719 39.074219 63.296875 39.140625 63.042969 C 39.230469 62.71875 39.230469 62.378906 39.15625 62.046875 C 39.132812 61.960938 39.140625 61.957031 39.246094 61.96875 Z M 37.390625 65.757812 C 37.433594 65.765625 37.480469 65.757812 37.523438 65.757812 C 37.84375 65.769531 38.171875 65.792969 38.480469 65.878906 C 38.582031 65.910156 38.683594 65.949219 38.777344 65.992188 C 39.082031 66.160156 39.195312 66.449219 39.160156 66.761719 C 39.113281 67.101562 38.921875 67.34375 38.625 67.503906 C 38.429688 67.617188 38.210938 67.664062 37.980469 67.6875 C 37.894531 67.695312 37.824219 67.6875 37.738281 67.6875 C 37.472656 67.695312 37.214844 67.664062 36.964844 67.558594 C 36.789062 67.492188 36.644531 67.390625 36.515625 67.257812 C 36.253906 66.992188 36.125 66.507812 36.523438 66.109375 C 36.765625 65.886719 37.039062 65.726562 37.390625 65.757812 Z M 38.253906 63.390625 C 38.097656 63.792969 37.746094 63.914062 37.398438 63.859375 C 37.082031 63.8125 36.847656 63.636719 36.695312 63.347656 C 36.496094 62.960938 36.441406 62.5625 36.558594 62.144531 C 36.640625 61.832031 36.828125 61.597656 37.164062 61.542969 C 37.589844 61.46875 37.996094 61.621094 38.210938 62.046875 C 38.324219 62.25 38.371094 62.5 38.371094 62.859375 C 38.363281 63.003906 38.332031 63.199219 38.253906 63.390625 Z M 28.699219 62.871094 C 28.628906 62.464844 28.476562 62.089844 28.195312 61.777344 C 27.777344 61.316406 27.246094 61.113281 26.648438 61.109375 C 26.125 61.101562 25.628906 61.253906 25.191406 61.527344 C 24.757812 61.789062 24.441406 62.203125 24.300781 62.691406 C 24.175781 63.128906 24.179688 63.578125 24.28125 64.027344 C 24.546875 65.226562 25.472656 65.742188 26.578125 65.664062 C 26.90625 65.640625 27.21875 65.535156 27.511719 65.390625 C 27.949219 65.1875 28.269531 64.859375 28.492188 64.429688 C 28.664062 64.070312 28.742188 63.691406 28.734375 63.257812 Z M 27.621094 64.558594 C 27.507812 64.90625 27.203125 65.15625 26.839844 65.195312 C 26.503906 65.242188 26.191406 65.15625 25.914062 64.960938 C 25.710938 64.8125 25.546875 64.617188 25.4375 64.390625 C 25.125 63.753906 25.070312 63.085938 25.230469 62.402344 C 25.285156 62.191406 25.394531 62 25.550781 61.851562 C 25.832031 61.589844 26.160156 61.53125 26.523438 61.605469 C 26.871094 61.683594 27.136719 61.871094 27.351562 62.160156 C 27.570312 62.449219 27.671875 62.78125 27.730469 63.132812 C 27.761719 63.304688 27.761719 63.488281 27.769531 63.601562 C 27.769531 63.964844 27.742188 64.265625 27.625 64.558594 Z M 45.273438 62.933594 C 45.21875 62.496094 45.050781 62.09375 44.742188 61.761719 C 44.332031 61.3125 43.800781 61.121094 43.210938 61.113281 C 42.699219 61.105469 42.230469 61.25 41.796875 61.5 C 41.3125 61.789062 40.976562 62.199219 40.847656 62.753906 C 40.695312 63.359375 40.757812 63.996094 41.03125 64.558594 C 41.28125 65.089844 41.707031 65.429688 42.269531 65.582031 C 42.890625 65.75 43.480469 65.671875 44.058594 65.390625 C 44.5625 65.148438 44.917969 64.769531 45.125 64.253906 C 45.246094 63.953125 45.289062 63.625 45.296875 63.246094 C 45.304688 63.175781 45.285156 63.054688 45.273438 62.933594 Z M 44.226562 64.457031 C 44.105469 64.867188 43.847656 65.136719 43.414062 65.195312 C 43.09375 65.242188 42.792969 65.164062 42.519531 64.980469 C 42.285156 64.824219 42.117188 64.613281 41.996094 64.359375 C 41.859375 64.097656 41.785156 63.816406 41.753906 63.527344 C 41.707031 63.167969 41.707031 62.820312 41.792969 62.464844 C 41.808594 62.390625 41.828125 62.324219 41.859375 62.257812 C 42.074219 61.726562 42.542969 61.484375 43.097656 61.605469 C 43.46875 61.691406 43.75 61.894531 43.960938 62.207031 C 44.167969 62.507812 44.265625 62.84375 44.3125 63.203125 C 44.332031 63.347656 44.339844 63.503906 44.332031 63.628906 C 44.332031 63.925781 44.3125 64.199219 44.222656 64.464844 Z M 44.226562 64.457031 " fill-opacity="1" fill-rule="nonzero"/></svg>