<svg xmlns="http://www.w3.org/2000/svg" xmlns:xlink="http://www.w3.org/1999/xlink" width="100" zoomAndPan="magnify" viewBox="0 0 75 74.999997" height="100" preserveAspectRatio="xMidYMid meet" version="1.0"><defs><clipPath id="139f54411f"><path d="M 5.132812 40 L 32 40 L 32 59.625 L 5.132812 59.625 Z M 5.132812 40 " clip-rule="nonzero"/></clipPath><clipPath id="91b1062192"><path d="M 32 40 L 69.632812 40 L 69.632812 58 L 32 58 Z M 32 40 " clip-rule="nonzero"/></clipPath><clipPath id="b3ef4982bf"><path d="M 43 15.375 L 69.632812 15.375 L 69.632812 42 L 43 42 Z M 43 15.375 " clip-rule="nonzero"/></clipPath></defs><g clip-path="url(#139f54411f)"><path fill="#00758f" d="M 31.4375 44.582031 C 30.421875 50.113281 29.085938 54.140625 27.425781 56.640625 C 26.132812 58.574219 24.71875 59.539062 23.175781 59.539062 C 22.761719 59.539062 22.257812 59.414062 21.65625 59.167969 L 21.65625 57.832031 C 21.949219 57.878906 22.292969 57.898438 22.691406 57.898438 C 23.410156 57.898438 23.988281 57.699219 24.429688 57.300781 C 24.960938 56.8125 25.222656 56.269531 25.222656 55.660156 C 25.222656 55.246094 25.015625 54.398438 24.605469 53.113281 L 21.875 44.578125 L 24.320312 44.578125 L 26.28125 50.960938 C 26.71875 52.410156 26.902344 53.421875 26.832031 54 C 27.902344 51.117188 28.652344 47.976562 29.078125 44.585938 L 31.433594 44.585938 M 20.640625 55.617188 L 18.152344 55.617188 C 18.066406 51.390625 17.824219 47.417969 17.425781 43.695312 L 17.40625 43.695312 L 13.617188 55.617188 L 11.71875 55.617188 L 7.953125 43.695312 L 7.933594 43.695312 C 7.652344 47.269531 7.476562 51.242188 7.402344 55.617188 L 5.132812 55.617188 C 5.28125 50.300781 5.648438 45.3125 6.234375 40.660156 L 9.320312 40.660156 L 12.910156 51.648438 L 12.933594 51.648438 L 16.546875 40.660156 L 19.496094 40.660156 C 20.140625 46.109375 20.523438 51.097656 20.640625 55.617188 " fill-opacity="1" fill-rule="nonzero"/></g><g clip-path="url(#91b1062192)"><path fill="#f29111" d="M 64.566406 55.617188 L 57.496094 55.617188 L 57.496094 40.65625 L 59.875 40.65625 L 59.875 53.773438 L 64.566406 53.773438 L 64.566406 55.617188 M 46.785156 52.621094 C 46.183594 51.648438 45.882812 50.082031 45.882812 47.925781 C 45.882812 44.15625 47.023438 42.273438 49.296875 42.273438 C 50.488281 42.273438 51.359375 42.722656 51.917969 43.625 C 52.519531 44.601562 52.820312 46.152344 52.820312 48.28125 C 52.820312 52.078125 51.683594 53.976562 49.40625 53.976562 C 48.21875 53.976562 47.34375 53.527344 46.785156 52.625 M 55.640625 55.976562 L 52.910156 54.621094 C 53.152344 54.421875 53.382812 54.203125 53.589844 53.953125 C 54.753906 52.582031 55.332031 50.550781 55.332031 47.859375 C 55.332031 42.910156 53.402344 40.433594 49.539062 40.433594 C 47.644531 40.433594 46.167969 41.0625 45.113281 42.320312 C 43.949219 43.691406 43.371094 45.71875 43.371094 48.390625 C 43.371094 51.019531 43.886719 52.949219 44.910156 54.175781 C 45.847656 55.285156 47.265625 55.835938 49.160156 55.835938 C 49.871094 55.835938 50.519531 55.75 51.109375 55.574219 L 54.667969 57.660156 L 55.636719 55.976562 M 42.335938 51.46875 C 42.335938 52.738281 41.871094 53.78125 40.949219 54.59375 C 40.023438 55.40625 38.78125 55.8125 37.226562 55.8125 C 35.773438 55.8125 34.363281 55.34375 32.996094 54.417969 L 33.636719 53.132812 C 34.8125 53.722656 35.875 54.015625 36.828125 54.015625 C 37.722656 54.015625 38.425781 53.816406 38.933594 53.421875 C 39.4375 53.019531 39.742188 52.464844 39.742188 51.757812 C 39.742188 50.871094 39.125 50.113281 37.996094 49.476562 C 36.949219 48.890625 35.90625 48.296875 34.871094 47.695312 C 33.742188 46.867188 33.175781 45.980469 33.175781 44.515625 C 33.175781 43.300781 33.597656 42.320312 34.4375 41.578125 C 35.285156 40.828125 36.375 40.457031 37.710938 40.457031 C 39.089844 40.457031 40.347656 40.828125 41.476562 41.566406 L 40.902344 42.851562 C 39.9375 42.4375 38.980469 42.230469 38.039062 42.230469 C 37.277344 42.230469 36.6875 42.414062 36.28125 42.785156 C 35.867188 43.152344 35.613281 43.625 35.613281 44.203125 C 35.613281 45.089844 36.242188 45.859375 37.402344 46.507812 C 38.457031 47.082031 40.59375 48.308594 40.59375 48.308594 C 41.757812 49.136719 42.335938 50.019531 42.335938 51.472656 M 66.261719 55.617188 L 66.65625 55.617188 L 66.65625 54.09375 L 67.171875 54.09375 L 67.171875 53.785156 L 65.726562 53.785156 L 65.726562 54.09375 L 66.261719 54.09375 Z M 69.261719 55.617188 L 69.632812 55.617188 L 69.632812 53.785156 L 69.074219 53.785156 L 68.621094 55.035156 L 68.125 53.785156 L 67.585938 53.785156 L 67.585938 55.617188 L 67.9375 55.617188 L 67.9375 54.222656 L 67.957031 54.222656 L 68.476562 55.617188 L 68.742188 55.617188 L 69.261719 54.222656 Z M 69.261719 55.617188 " fill-opacity="1" fill-rule="nonzero"/></g><g clip-path="url(#b3ef4982bf)"><path fill="#00758f" d="M 44.792969 15.464844 C 44.164062 15.457031 43.613281 15.695312 43.332031 16.394531 C 42.847656 17.570312 44.050781 18.726562 44.464844 19.320312 C 44.769531 19.738281 45.164062 20.207031 45.378906 20.675781 C 45.503906 20.984375 45.542969 21.3125 45.667969 21.636719 C 45.953125 22.429688 46.222656 23.316406 46.601562 24.058594 C 46.796875 24.4375 47.015625 24.835938 47.265625 25.179688 C 47.410156 25.378906 47.660156 25.46875 47.714844 25.792969 C 47.464844 26.15625 47.445312 26.699219 47.300781 27.148438 C 46.65625 29.191406 46.90625 31.722656 47.824219 33.222656 C 48.109375 33.675781 48.792969 34.671875 49.710938 34.289062 C 50.519531 33.964844 50.339844 32.933594 50.570312 32.03125 C 50.625 31.8125 50.589844 31.667969 50.699219 31.523438 L 50.699219 31.5625 C 50.949219 32.066406 51.203125 32.554688 51.433594 33.0625 C 51.992188 33.945312 52.960938 34.867188 53.769531 35.484375 C 54.199219 35.808594 54.542969 36.367188 55.082031 36.566406 L 55.082031 36.511719 L 55.046875 36.511719 C 54.9375 36.351562 54.777344 36.277344 54.632812 36.152344 C 54.308594 35.828125 53.949219 35.429688 53.699219 35.066406 C 52.945312 34.054688 52.277344 32.933594 51.6875 31.777344 C 51.398438 31.214844 51.148438 30.601562 50.914062 30.042969 C 50.808594 29.828125 50.808594 29.5 50.625 29.390625 C 50.355469 29.789062 49.960938 30.132812 49.765625 30.621094 C 49.421875 31.398438 49.386719 32.355469 49.261719 33.347656 C 49.191406 33.367188 49.226562 33.347656 49.191406 33.386719 C 48.617188 33.242188 48.417969 32.644531 48.203125 32.140625 C 47.660156 30.855469 47.570312 28.792969 48.039062 27.3125 C 48.164062 26.933594 48.703125 25.742188 48.488281 25.378906 C 48.378906 25.035156 48.019531 24.835938 47.824219 24.5625 C 47.574219 24.199219 47.355469 23.8125 47.179688 23.40625 C 46.746094 22.394531 46.53125 21.273438 46.0625 20.261719 C 45.847656 19.789062 45.46875 19.304688 45.164062 18.871094 C 44.824219 18.382812 44.445312 18.039062 44.175781 17.460938 C 44.089844 17.261719 43.960938 16.9375 44.105469 16.71875 C 44.140625 16.574219 44.214844 16.519531 44.359375 16.484375 C 44.589844 16.285156 45.253906 16.539062 45.488281 16.644531 C 46.152344 16.917969 46.710938 17.171875 47.265625 17.550781 C 47.515625 17.730469 47.785156 18.074219 48.109375 18.164062 L 48.488281 18.164062 C 49.0625 18.292969 49.710938 18.199219 50.25 18.363281 C 51.203125 18.671875 52.0625 19.121094 52.835938 19.609375 C 55.257812 21.164062 57.128906 23.226562 58.441406 25.792969 C 58.65625 26.207031 58.746094 26.589844 58.945312 27.019531 C 59.320312 27.910156 59.789062 28.8125 60.167969 29.679688 C 60.542969 30.527344 60.902344 31.394531 61.441406 32.101562 C 61.710938 32.480469 62.789062 32.679688 63.273438 32.878906 C 63.632812 33.039062 64.191406 33.183594 64.515625 33.382812 C 65.125 33.761719 65.734375 34.195312 66.308594 34.613281 C 66.597656 34.832031 67.496094 35.28125 67.550781 35.644531 C 66.113281 35.609375 65 35.753906 64.0625 36.152344 C 63.796875 36.257812 63.363281 36.257812 63.328125 36.601562 C 63.472656 36.746094 63.488281 36.980469 63.617188 37.179688 C 63.832031 37.542969 64.207031 38.027344 64.550781 38.285156 C 64.925781 38.574219 65.304688 38.863281 65.699219 39.113281 C 66.402344 39.550781 67.191406 39.800781 67.871094 40.234375 C 68.269531 40.488281 68.664062 40.8125 69.058594 41.085938 C 69.257812 41.230469 69.382812 41.464844 69.632812 41.554688 L 69.632812 41.5 C 69.507812 41.335938 69.472656 41.101562 69.347656 40.921875 C 69.167969 40.742188 68.988281 40.578125 68.808594 40.398438 C 68.277344 39.691406 67.65625 39.085938 66.941406 38.574219 C 66.363281 38.171875 65.105469 37.628906 64.875 36.964844 L 64.835938 36.925781 C 65.230469 36.890625 65.699219 36.746094 66.078125 36.636719 C 66.6875 36.472656 67.246094 36.511719 67.875 36.347656 C 68.160156 36.273438 68.449219 36.183594 68.738281 36.097656 L 68.738281 35.933594 C 68.410156 35.609375 68.179688 35.171875 67.839844 34.867188 C 66.925781 34.070312 65.917969 33.292969 64.875 32.640625 C 64.316406 32.28125 63.597656 32.046875 63.003906 31.738281 C 62.789062 31.628906 62.429688 31.578125 62.304688 31.394531 C 61.980469 30.996094 61.800781 30.472656 61.570312 30.003906 C 61.035156 28.972656 60.546875 27.925781 60.09375 26.859375 C 59.773438 26.152344 59.574219 25.449219 59.179688 24.796875 C 57.328125 21.722656 55.316406 19.863281 52.226562 18.035156 C 51.5625 17.65625 50.769531 17.496094 49.929688 17.296875 C 49.476562 17.277344 49.03125 17.242188 48.578125 17.222656 C 48.292969 17.097656 48.003906 16.753906 47.753906 16.589844 C 47.113281 16.183594 45.839844 15.480469 44.792969 15.464844 Z M 49.222656 19.933594 C 48.917969 19.933594 48.703125 19.972656 48.488281 20.023438 L 48.488281 20.0625 L 48.523438 20.0625 C 48.667969 20.351562 48.917969 20.550781 49.097656 20.804688 C 49.242188 21.09375 49.367188 21.378906 49.511719 21.667969 L 49.546875 21.632812 C 49.800781 21.453125 49.925781 21.164062 49.925781 20.730469 C 49.816406 20.601562 49.800781 20.476562 49.707031 20.351562 C 49.601562 20.171875 49.367188 20.078125 49.222656 19.933594 Z M 49.222656 19.933594 " fill-opacity="1" fill-rule="nonzero"/></g></svg>