<svg xmlns="http://www.w3.org/2000/svg" xmlns:xlink="http://www.w3.org/1999/xlink" width="100" zoomAndPan="magnify" viewBox="0 0 75 74.999997" height="100" preserveAspectRatio="xMidYMid meet" version="1.0"><defs><clipPath id="8f72b37590"><path d="M 6.355469 6 L 67.855469 6 L 67.855469 68.953125 L 6.355469 68.953125 Z M 6.355469 6 " clip-rule="nonzero"/></clipPath></defs><g clip-path="url(#8f72b37590)"><path fill="#000000" d="M 67.617188 43.65625 C 67.25 42.550781 66.285156 41.777344 65.035156 41.589844 C 64.445312 41.503906 63.773438 41.542969 62.972656 41.703125 C 61.582031 41.988281 60.550781 42.097656 59.796875 42.121094 C 62.640625 37.351562 64.953125 31.917969 66.28125 26.800781 C 68.4375 18.527344 67.285156 14.757812 65.941406 13.054688 C 62.382812 8.539062 57.195312 6.117188 50.933594 6.042969 C 47.59375 6 44.660156 6.65625 43.132812 7.128906 C 41.707031 6.878906 40.175781 6.738281 38.570312 6.710938 C 35.558594 6.664062 32.898438 7.316406 30.621094 8.65625 C 29.363281 8.234375 27.34375 7.636719 25.011719 7.257812 C 19.523438 6.363281 15.101562 7.058594 11.867188 9.328125 C 7.949219 12.078125 6.132812 16.847656 6.46875 23.515625 C 6.574219 25.632812 7.765625 32.070312 9.644531 38.179688 C 10.722656 41.6875 11.875 44.605469 13.066406 46.84375 C 14.753906 50.019531 16.558594 51.890625 18.585938 52.5625 C 19.722656 52.9375 21.789062 53.199219 23.960938 51.40625 C 24.238281 51.734375 24.605469 52.066406 25.089844 52.371094 C 25.710938 52.757812 26.46875 53.074219 27.222656 53.261719 C 29.949219 53.9375 32.5 53.769531 34.675781 52.820312 C 34.691406 53.207031 34.699219 53.574219 34.710938 53.890625 C 34.722656 54.40625 34.738281 54.910156 34.757812 55.382812 C 34.886719 58.570312 35.105469 61.050781 35.753906 62.785156 C 35.789062 62.882812 35.835938 63.027344 35.886719 63.179688 C 36.210938 64.164062 36.75 65.808594 38.125 67.09375 C 39.546875 68.429688 41.269531 68.839844 42.847656 68.839844 C 43.636719 68.839844 44.390625 68.734375 45.054688 68.59375 C 47.414062 68.09375 50.09375 67.328125 52.03125 64.589844 C 53.863281 61.996094 54.753906 58.097656 54.914062 51.949219 C 54.9375 51.777344 54.953125 51.609375 54.972656 51.453125 L 55.011719 51.125 L 55.445312 51.164062 L 55.554688 51.171875 C 57.957031 51.28125 60.894531 50.773438 62.699219 49.941406 C 64.125 49.285156 68.695312 46.890625 67.617188 43.65625 " fill-opacity="1" fill-rule="nonzero"/></g><path fill="#336791" d="M 63.511719 44.285156 C 56.367188 45.75 55.875 43.347656 55.875 43.347656 C 63.417969 32.234375 66.570312 18.128906 63.851562 14.675781 C 56.425781 5.261719 43.574219 9.714844 43.359375 9.828125 L 43.292969 9.839844 C 41.878906 9.550781 40.300781 9.378906 38.523438 9.347656 C 35.292969 9.296875 32.839844 10.191406 30.980469 11.589844 C 30.980469 11.589844 8.054688 2.214844 9.121094 23.382812 C 9.347656 27.886719 15.621094 57.460938 23.105469 48.527344 C 25.839844 45.261719 28.484375 42.5 28.484375 42.5 C 29.796875 43.367188 31.367188 43.808594 33.015625 43.648438 L 33.144531 43.539062 C 33.105469 43.945312 33.121094 44.34375 33.195312 44.8125 C 31.265625 46.949219 31.835938 47.328125 27.980469 48.113281 C 24.078125 48.914062 26.371094 50.332031 27.867188 50.703125 C 29.679688 51.15625 33.875 51.792969 36.710938 47.851562 L 36.597656 48.300781 C 37.351562 48.902344 37.882812 52.210938 37.792969 55.207031 C 37.707031 58.203125 37.644531 60.261719 38.242188 61.871094 C 38.835938 63.476562 39.429688 67.09375 44.496094 66.015625 C 48.730469 65.117188 50.925781 62.78125 51.230469 58.886719 C 51.445312 56.121094 51.9375 56.527344 51.96875 54.054688 L 52.359375 52.882812 C 52.8125 49.128906 52.433594 47.917969 55.042969 48.484375 L 55.675781 48.539062 C 57.59375 48.625 60.109375 48.230469 61.582031 47.550781 C 64.757812 46.085938 66.640625 43.644531 63.511719 44.285156 " fill-opacity="1" fill-rule="nonzero"/><path fill="#ffffff" d="M 32.320312 25.398438 C 31.675781 25.308594 31.09375 25.390625 30.800781 25.613281 C 30.632812 25.738281 30.582031 25.882812 30.566406 25.980469 C 30.53125 26.246094 30.71875 26.535156 30.832031 26.6875 C 31.15625 27.113281 31.625 27.40625 32.09375 27.46875 C 32.164062 27.480469 32.230469 27.484375 32.296875 27.484375 C 33.078125 27.484375 33.785156 26.878906 33.847656 26.433594 C 33.925781 25.878906 33.109375 25.507812 32.320312 25.398438 M 53.648438 25.414062 C 53.589844 24.980469 52.804688 24.855469 52.0625 24.957031 C 51.320312 25.058594 50.601562 25.390625 50.660156 25.828125 C 50.710938 26.167969 51.328125 26.75 52.0625 26.75 C 52.125 26.75 52.1875 26.746094 52.25 26.738281 C 52.738281 26.671875 53.097656 26.363281 53.269531 26.183594 C 53.527344 25.914062 53.675781 25.613281 53.648438 25.414062 " fill-opacity="1" fill-rule="nonzero"/><path fill="#ffffff" d="M 65.886719 44.121094 C 65.617188 43.300781 64.738281 43.039062 63.28125 43.339844 C 58.957031 44.222656 57.40625 43.609375 56.898438 43.238281 C 60.261719 38.152344 63.027344 32.007812 64.519531 26.273438 C 65.226562 23.554688 65.617188 21.03125 65.648438 18.976562 C 65.683594 16.71875 65.296875 15.0625 64.496094 14.046875 C 61.277344 9.964844 56.550781 7.773438 50.832031 7.710938 C 46.898438 7.667969 43.578125 8.667969 42.933594 8.949219 C 41.578125 8.613281 40.097656 8.40625 38.488281 8.382812 C 35.535156 8.335938 32.984375 9.035156 30.871094 10.464844 C 29.953125 10.128906 27.582031 9.320312 24.683594 8.855469 C 19.667969 8.054688 15.683594 8.660156 12.839844 10.660156 C 9.449219 13.046875 7.882812 17.3125 8.183594 23.339844 C 8.285156 25.367188 9.449219 31.605469 11.285156 37.578125 C 13.703125 45.441406 16.332031 49.890625 19.097656 50.804688 C 19.421875 50.914062 19.792969 50.988281 20.203125 50.988281 C 21.214844 50.988281 22.449219 50.535156 23.734375 49 C 25.304688 47.132812 26.929688 45.308594 28.605469 43.535156 C 29.691406 44.113281 30.882812 44.4375 32.105469 44.46875 C 32.109375 44.5 32.109375 44.53125 32.113281 44.5625 C 31.902344 44.8125 31.699219 45.066406 31.496094 45.320312 C 30.648438 46.386719 30.472656 46.609375 27.75 47.164062 C 26.976562 47.324219 24.917969 47.746094 24.886719 49.175781 C 24.855469 50.742188 27.320312 51.398438 27.601562 51.46875 C 28.578125 51.710938 29.523438 51.832031 30.421875 51.832031 C 32.609375 51.832031 34.535156 51.117188 36.070312 49.738281 C 36.023438 55.316406 36.257812 60.8125 36.933594 62.484375 C 37.484375 63.855469 38.835938 67.207031 43.097656 67.207031 C 43.722656 67.207031 44.414062 67.132812 45.167969 66.972656 C 49.621094 66.027344 51.550781 64.074219 52.300781 59.769531 C 52.699219 57.46875 53.386719 51.976562 53.707031 49.03125 C 54.390625 49.242188 55.265625 49.335938 56.214844 49.335938 C 58.191406 49.335938 60.472656 48.921875 61.90625 48.261719 C 63.511719 47.519531 66.414062 45.699219 65.886719 44.121094 Z M 55.292969 24.210938 C 55.277344 25.078125 55.15625 25.871094 55.027344 26.695312 C 54.890625 27.582031 54.75 28.496094 54.714844 29.609375 C 54.679688 30.691406 54.8125 31.816406 54.945312 32.90625 C 55.210938 35.105469 55.484375 37.371094 54.429688 39.605469 C 54.253906 39.292969 54.097656 38.976562 53.960938 38.648438 C 53.828125 38.332031 53.542969 37.824219 53.148438 37.121094 C 51.609375 34.382812 48.011719 27.972656 49.851562 25.359375 C 50.402344 24.578125 51.796875 23.777344 55.292969 24.210938 Z M 51.054688 9.472656 C 56.179688 9.585938 60.234375 11.488281 63.101562 15.128906 C 65.304688 17.925781 62.878906 30.632812 55.863281 41.597656 C 55.792969 41.507812 55.722656 41.417969 55.648438 41.332031 L 55.5625 41.222656 C 57.375 38.246094 57.019531 35.304688 56.703125 32.695312 C 56.574219 31.625 56.453125 30.617188 56.484375 29.664062 C 56.515625 28.660156 56.648438 27.796875 56.777344 26.960938 C 56.9375 25.933594 57.101562 24.867188 57.054688 23.613281 C 57.089844 23.480469 57.101562 23.328125 57.085938 23.140625 C 56.972656 21.9375 55.585938 18.335938 52.765625 15.078125 C 51.222656 13.296875 48.972656 11.300781 45.902344 9.953125 C 47.222656 9.683594 49.03125 9.429688 51.054688 9.472656 Z M 22.375 47.878906 C 20.957031 49.570312 19.980469 49.246094 19.65625 49.140625 C 17.558594 48.445312 15.125 44.042969 12.980469 37.066406 C 11.125 31.027344 10.039062 24.953125 9.953125 23.25 C 9.683594 17.867188 10.996094 14.113281 13.859375 12.097656 C 18.523438 8.816406 26.1875 10.777344 29.265625 11.777344 C 29.222656 11.820312 29.175781 11.859375 29.132812 11.902344 C 24.078125 16.96875 24.199219 25.628906 24.210938 26.15625 C 24.210938 26.359375 24.226562 26.648438 24.25 27.046875 C 24.339844 28.503906 24.5 31.214844 24.066406 34.28125 C 23.667969 37.132812 24.550781 39.925781 26.496094 41.941406 C 26.695312 42.148438 26.90625 42.34375 27.125 42.527344 C 26.257812 43.449219 24.378906 45.484375 22.375 47.878906 Z M 27.773438 40.722656 C 26.207031 39.101562 25.496094 36.839844 25.820312 34.523438 C 26.277344 31.285156 26.109375 28.460938 26.019531 26.941406 C 26.007812 26.730469 25.996094 26.546875 25.988281 26.398438 C 26.726562 25.75 30.148438 23.929688 32.585938 24.484375 C 33.699219 24.738281 34.378906 25.488281 34.660156 26.785156 C 36.121094 33.488281 34.855469 36.28125 33.835938 38.523438 C 33.625 38.988281 33.429688 39.425781 33.257812 39.878906 L 33.128906 40.226562 C 32.796875 41.109375 32.488281 41.933594 32.296875 42.714844 C 30.628906 42.707031 29.007812 42 27.773438 40.722656 Z M 28.03125 49.761719 C 27.542969 49.644531 27.105469 49.433594 26.851562 49.257812 C 27.0625 49.160156 27.445312 49.023438 28.109375 48.886719 C 31.3125 48.230469 31.808594 47.769531 32.886719 46.40625 C 33.136719 46.09375 33.414062 45.742188 33.804688 45.308594 C 34.382812 44.667969 34.648438 44.773438 35.128906 44.972656 C 35.519531 45.132812 35.898438 45.617188 36.050781 46.152344 C 36.125 46.402344 36.207031 46.878906 35.941406 47.253906 C 33.683594 50.390625 30.394531 50.351562 28.03125 49.761719 Z M 44.800781 65.253906 C 40.878906 66.089844 39.492188 64.101562 38.578125 61.832031 C 37.988281 60.367188 37.695312 53.757812 37.902344 46.460938 C 37.90625 46.363281 37.890625 46.269531 37.863281 46.183594 C 37.839844 46.007812 37.804688 45.835938 37.753906 45.667969 C 37.449219 44.605469 36.703125 43.71875 35.808594 43.347656 C 35.453125 43.203125 34.800781 42.933594 34.015625 43.132812 C 34.183594 42.449219 34.472656 41.675781 34.789062 40.839844 L 34.917969 40.488281 C 35.066406 40.09375 35.253906 39.679688 35.449219 39.246094 C 36.515625 36.898438 37.972656 33.679688 36.390625 26.414062 C 35.796875 23.691406 33.820312 22.359375 30.816406 22.667969 C 29.019531 22.855469 27.371094 23.574219 26.550781 23.988281 C 26.375 24.078125 26.210938 24.164062 26.0625 24.246094 C 26.289062 21.503906 27.15625 16.378906 30.394531 13.132812 C 32.433594 11.09375 35.152344 10.085938 38.460938 10.140625 C 44.980469 10.246094 49.160156 13.566406 51.519531 16.335938 C 53.554688 18.71875 54.65625 21.125 55.09375 22.417969 C 51.789062 22.085938 49.542969 22.734375 48.402344 24.351562 C 45.925781 27.867188 49.757812 34.695312 51.601562 37.976562 C 51.941406 38.578125 52.230469 39.097656 52.324219 39.316406 C 52.921875 40.761719 53.699219 41.726562 54.265625 42.429688 C 54.441406 42.644531 54.609375 42.855469 54.738281 43.035156 C 53.738281 43.324219 51.941406 43.984375 52.101562 47.292969 C 51.972656 48.953125 51.03125 56.726562 50.554688 59.472656 C 49.925781 63.097656 48.578125 64.449219 44.800781 65.253906 Z M 61.160156 46.667969 C 60.136719 47.136719 58.425781 47.492188 56.796875 47.566406 C 55 47.652344 54.085938 47.367188 53.871094 47.195312 C 53.769531 45.132812 54.542969 44.917969 55.359375 44.6875 C 55.488281 44.652344 55.613281 44.617188 55.734375 44.574219 C 55.808594 44.636719 55.890625 44.695312 55.984375 44.757812 C 57.425781 45.703125 60.003906 45.804688 63.640625 45.058594 L 63.679688 45.050781 C 63.1875 45.507812 62.351562 46.117188 61.160156 46.667969 Z M 61.160156 46.667969 " fill-opacity="1" fill-rule="nonzero"/></svg>