<svg xmlns="http://www.w3.org/2000/svg" xmlns:xlink="http://www.w3.org/1999/xlink" width="150" zoomAndPan="magnify" viewBox="0 0 112.5 74.999997" height="100" preserveAspectRatio="xMidYMid meet" version="1.0"><defs><g/><clipPath id="21b69d7fb0"><path d="M 42.785156 20.773438 L 64.4375 20.773438 L 64.4375 40.1875 L 42.785156 40.1875 Z M 42.785156 20.773438 " clip-rule="nonzero"/></clipPath><clipPath id="0c08f2f9fa"><path d="M 33.601562 15.574219 L 78.402344 15.574219 L 78.402344 28.269531 L 33.601562 28.269531 Z M 33.601562 15.574219 " clip-rule="nonzero"/></clipPath></defs><g clip-path="url(#21b69d7fb0)"><path fill="#1ab394" d="M 43.5 35.257812 L 47.019531 35.257812 C 47.121094 35.257812 47.214844 35.300781 47.28125 35.367188 C 47.351562 35.4375 47.394531 35.53125 47.394531 35.632812 L 47.390625 39.539062 L 47.394531 39.539062 C 47.394531 39.640625 47.351562 39.734375 47.28125 39.804688 C 47.214844 39.871094 47.121094 39.914062 47.019531 39.914062 L 43.5 39.914062 C 43.394531 39.914062 43.300781 39.871094 43.234375 39.804688 C 43.164062 39.734375 43.125 39.640625 43.125 39.539062 L 43.125 35.632812 C 43.125 35.53125 43.164062 35.4375 43.234375 35.367188 C 43.300781 35.300781 43.394531 35.257812 43.5 35.257812 Z M 40.980469 20.785156 L 41.753906 20.785156 L 41.753906 41.109375 L 64.566406 41.109375 L 64.566406 41.882812 L 40.980469 41.882812 Z M 59.855469 30.285156 L 63.375 30.285156 C 63.476562 30.285156 63.570312 30.328125 63.636719 30.398438 L 63.640625 30.398438 C 63.707031 30.464844 63.75 30.558594 63.75 30.664062 L 63.75 39.539062 C 63.75 39.640625 63.707031 39.734375 63.640625 39.804688 C 63.570312 39.871094 63.476562 39.914062 63.375 39.914062 L 59.855469 39.914062 C 59.75 39.914062 59.65625 39.871094 59.589844 39.804688 C 59.523438 39.734375 59.480469 39.640625 59.480469 39.539062 L 59.480469 30.664062 C 59.480469 30.558594 59.523438 30.464844 59.589844 30.398438 C 59.65625 30.328125 59.753906 30.285156 59.855469 30.285156 Z M 54.402344 21.035156 L 57.921875 21.035156 C 58.023438 21.035156 58.121094 21.074219 58.1875 21.144531 C 58.253906 21.210938 58.296875 21.304688 58.296875 21.410156 L 58.296875 39.539062 C 58.296875 39.640625 58.253906 39.734375 58.1875 39.804688 C 58.121094 39.871094 58.023438 39.914062 57.921875 39.914062 L 54.402344 39.914062 C 54.300781 39.914062 54.207031 39.871094 54.136719 39.804688 C 54.070312 39.734375 54.027344 39.640625 54.027344 39.539062 L 54.027344 21.410156 C 54.027344 21.304688 54.070312 21.210938 54.136719 21.144531 C 54.207031 21.074219 54.300781 21.035156 54.402344 21.035156 Z M 48.949219 26.707031 L 52.46875 26.707031 C 52.574219 26.707031 52.667969 26.75 52.734375 26.820312 C 52.804688 26.886719 52.84375 26.980469 52.84375 27.082031 L 52.84375 39.539062 C 52.84375 39.640625 52.804688 39.734375 52.734375 39.804688 C 52.667969 39.871094 52.574219 39.914062 52.46875 39.914062 L 48.949219 39.914062 C 48.847656 39.914062 48.753906 39.871094 48.6875 39.804688 C 48.617188 39.734375 48.574219 39.640625 48.574219 39.539062 L 48.574219 27.082031 C 48.574219 26.980469 48.617188 26.886719 48.6875 26.820312 C 48.753906 26.75 48.847656 26.707031 48.949219 26.707031 Z M 48.949219 26.707031 " fill-opacity="1" fill-rule="evenodd"/></g><g clip-path="url(#0c08f2f9fa)"><path fill="#000000" d="M 35.078125 27.710938 C 34.585938 27.894531 34.097656 28.089844 33.601562 28.265625 C 34.039062 27.96875 34.484375 27.6875 34.925781 27.398438 L 36.261719 26.558594 C 37.152344 25.996094 38.050781 25.453125 38.953125 24.910156 C 39.65625 24.492188 40.359375 24.078125 41.066406 23.664062 L 41.066406 15.578125 L 44.800781 15.578125 L 44.800781 21.539062 C 46.496094 20.589844 48.207031 19.65625 49.917969 18.742188 C 50.839844 18.25 51.773438 17.765625 52.699219 17.277344 L 55.492188 15.839844 L 56 15.578125 L 56.511719 15.839844 L 59.304688 17.277344 L 62.085938 18.742188 C 63.933594 19.726562 65.777344 20.726562 67.601562 21.757812 C 69.433594 22.785156 71.25 23.832031 73.054688 24.910156 C 73.953125 25.453125 74.851562 25.992188 75.742188 26.554688 L 77.078125 27.398438 C 77.519531 27.6875 77.964844 27.96875 78.402344 28.265625 C 77.90625 28.089844 77.417969 27.894531 76.925781 27.710938 L 75.460938 27.128906 C 74.484375 26.742188 73.515625 26.335938 72.550781 25.929688 C 70.621094 25.109375 68.703125 24.257812 66.800781 23.386719 C 64.894531 22.515625 63.003906 21.617188 61.117188 20.707031 L 58.296875 19.324219 L 56 18.167969 L 53.703125 19.324219 C 52.765625 19.785156 51.828125 20.253906 50.882812 20.707031 C 49 21.617188 47.105469 22.511719 45.199219 23.382812 C 45.066406 23.445312 44.933594 23.503906 44.800781 23.566406 C 44.132812 23.867188 43.464844 24.167969 42.792969 24.46875 C 41.683594 24.960938 40.570312 25.449219 39.449219 25.925781 C 38.484375 26.332031 37.519531 26.738281 36.542969 27.128906 Z M 35.078125 27.710938 " fill-opacity="1" fill-rule="nonzero"/></g><g fill="#1ab394" fill-opacity="1"><g transform="translate(10.856879, 56.530314)"><g><path d="M 10.515625 -3.046875 L 3.6875 -3.046875 L 2.390625 0 L 0.015625 0 L 5.984375 -13.53125 L 8.328125 -13.53125 L 14.25 0 L 11.8125 0 Z M 9.640625 -5.078125 L 7.09375 -11.09375 L 4.546875 -5.078125 Z M 9.640625 -5.078125 "/></g></g></g><g fill="#000000" fill-opacity="1"><g transform="translate(25.120787, 56.530314)"><g><path d="M 5.875 -10.359375 C 7.644531 -10.359375 8.925781 -9.828125 9.71875 -8.765625 C 10.507812 -7.703125 10.832031 -6.210938 10.6875 -4.296875 L 2.921875 -4.296875 C 3.097656 -3.492188 3.46875 -2.863281 4.03125 -2.40625 C 4.601562 -1.945312 5.296875 -1.71875 6.109375 -1.71875 C 7.265625 -1.71875 8.226562 -2.117188 9 -2.921875 L 10.1875 -1.65625 C 9.125 -0.5 7.707031 0.078125 5.9375 0.078125 C 4.351562 0.078125 3.078125 -0.398438 2.109375 -1.359375 C 1.148438 -2.316406 0.671875 -3.566406 0.671875 -5.109375 C 0.671875 -6.660156 1.15625 -7.921875 2.125 -8.890625 C 3.09375 -9.859375 4.34375 -10.347656 5.875 -10.359375 Z M 2.875 -5.921875 L 8.75 -5.921875 C 8.71875 -6.742188 8.441406 -7.390625 7.921875 -7.859375 C 7.410156 -8.335938 6.734375 -8.578125 5.890625 -8.578125 C 5.078125 -8.578125 4.40625 -8.335938 3.875 -7.859375 C 3.34375 -7.390625 3.007812 -6.742188 2.875 -5.921875 Z M 2.875 -5.921875 "/></g></g></g><g fill="#000000" fill-opacity="1"><g transform="translate(36.484663, 56.530314)"><g><path d="M 3.859375 -10.28125 L 3.859375 -8.234375 C 4.566406 -9.648438 5.753906 -10.359375 7.421875 -10.359375 L 7.421875 -8.234375 C 6.398438 -8.285156 5.570312 -8.046875 4.9375 -7.515625 C 4.3125 -6.984375 3.953125 -6.269531 3.859375 -5.375 L 3.859375 0 L 1.640625 0 L 1.640625 -10.28125 Z M 3.859375 -10.28125 "/></g></g></g><g fill="#1ab394" fill-opacity="1"><g transform="translate(44.099626, 56.530314)"><g><path d="M 1.8125 -14.1875 C 2.0625 -14.445312 2.375 -14.578125 2.75 -14.578125 C 3.125 -14.578125 3.429688 -14.445312 3.671875 -14.1875 C 3.921875 -13.9375 4.046875 -13.613281 4.046875 -13.21875 C 4.046875 -12.832031 3.921875 -12.515625 3.671875 -12.265625 C 3.429688 -12.015625 3.125 -11.890625 2.75 -11.890625 C 2.375 -11.890625 2.0625 -12.015625 1.8125 -12.265625 C 1.570312 -12.515625 1.453125 -12.832031 1.453125 -13.21875 C 1.453125 -13.613281 1.570312 -13.9375 1.8125 -14.1875 Z M 3.84375 0 L 1.640625 0 L 1.640625 -10.28125 L 3.84375 -10.28125 Z M 3.84375 0 "/></g></g></g><g fill="#000000" fill-opacity="1"><g transform="translate(49.588798, 56.530314)"><g><path d="M 7.8125 0 L 7.8125 -1.25 C 7.070312 -0.351562 5.9375 0.09375 4.40625 0.09375 C 3.3125 0.09375 2.4375 -0.203125 1.78125 -0.796875 C 1.125 -1.398438 0.796875 -2.164062 0.796875 -3.09375 C 0.796875 -4.03125 1.132812 -4.773438 1.8125 -5.328125 C 2.5 -5.890625 3.453125 -6.175781 4.671875 -6.1875 L 7.796875 -6.1875 L 7.796875 -6.5 C 7.796875 -7.15625 7.582031 -7.660156 7.15625 -8.015625 C 6.738281 -8.378906 6.128906 -8.5625 5.328125 -8.5625 C 4.335938 -8.5625 3.328125 -8.210938 2.296875 -7.515625 L 1.390625 -9.0625 C 2.179688 -9.53125 2.890625 -9.863281 3.515625 -10.0625 C 4.140625 -10.257812 4.90625 -10.359375 5.8125 -10.359375 C 7.132812 -10.359375 8.15625 -10.039062 8.875 -9.40625 C 9.59375 -8.769531 9.957031 -7.882812 9.96875 -6.75 L 10 0 Z M 4.875 -1.65625 C 5.65625 -1.65625 6.316406 -1.835938 6.859375 -2.203125 C 7.410156 -2.578125 7.722656 -3.046875 7.796875 -3.609375 L 7.796875 -4.5625 L 5 -4.5625 C 4.269531 -4.5625 3.734375 -4.453125 3.390625 -4.234375 C 3.046875 -4.023438 2.875 -3.675781 2.875 -3.1875 C 2.875 -2.726562 3.050781 -2.359375 3.40625 -2.078125 C 3.757812 -1.796875 4.25 -1.65625 4.875 -1.65625 Z M 4.875 -1.65625 "/></g></g></g><g fill="#000000" fill-opacity="1"><g transform="translate(60.914017, 56.530314)"><g><path d="M 3.96875 0 L 1.734375 0 L 1.734375 -14.34375 L 3.96875 -14.34375 Z M 3.96875 0 "/></g></g></g><g fill="#000000" fill-opacity="1"><g transform="translate(66.615284, 56.530314)"><g><path d="M 10.359375 -10.28125 L 5.6875 1.40625 C 5.050781 3.03125 3.9375 3.84375 2.34375 3.84375 C 1.445312 3.84375 0.65625 3.550781 -0.03125 2.96875 L 0.90625 1.25 C 1.375 1.59375 1.816406 1.765625 2.234375 1.765625 C 2.929688 1.765625 3.457031 1.382812 3.8125 0.625 L 4.15625 -0.15625 L -0.09375 -10.28125 L 2.203125 -10.28125 L 5.28125 -2.5 L 8.140625 -10.28125 Z M 10.359375 -10.28125 "/></g></g></g><g fill="#000000" fill-opacity="1"><g transform="translate(76.877558, 56.530314)"><g><path d="M 6.90625 -2.359375 L 7.453125 -0.65625 C 6.609375 -0.15625 5.765625 0.09375 4.921875 0.09375 C 4.085938 0.09375 3.398438 -0.15625 2.859375 -0.65625 C 2.316406 -1.15625 2.046875 -1.90625 2.046875 -2.90625 L 2.046875 -8.234375 L 0.59375 -8.234375 L 0.59375 -9.890625 L 2.046875 -9.890625 L 2.046875 -12.71875 L 4.25 -12.71875 L 4.25 -9.890625 L 7.28125 -9.890625 L 7.28125 -8.234375 L 4.25 -8.234375 L 4.25 -3.3125 C 4.25 -2.789062 4.335938 -2.425781 4.515625 -2.21875 C 4.703125 -2.007812 4.984375 -1.90625 5.359375 -1.90625 C 5.765625 -1.90625 6.28125 -2.054688 6.90625 -2.359375 Z M 6.90625 -2.359375 "/></g></g></g><g fill="#000000" fill-opacity="1"><g transform="translate(84.74337, 56.530314)"><g><path d="M 1.8125 -14.1875 C 2.0625 -14.445312 2.375 -14.578125 2.75 -14.578125 C 3.125 -14.578125 3.429688 -14.445312 3.671875 -14.1875 C 3.921875 -13.9375 4.046875 -13.613281 4.046875 -13.21875 C 4.046875 -12.832031 3.921875 -12.515625 3.671875 -12.265625 C 3.429688 -12.015625 3.125 -11.890625 2.75 -11.890625 C 2.375 -11.890625 2.0625 -12.015625 1.8125 -12.265625 C 1.570312 -12.515625 1.453125 -12.832031 1.453125 -13.21875 C 1.453125 -13.613281 1.570312 -13.9375 1.8125 -14.1875 Z M 3.84375 0 L 1.640625 0 L 1.640625 -10.28125 L 3.84375 -10.28125 Z M 3.84375 0 "/></g></g></g><g fill="#000000" fill-opacity="1"><g transform="translate(90.232049, 56.530314)"><g><path d="M 5.859375 -10.359375 C 7.710938 -10.359375 9.128906 -9.796875 10.109375 -8.671875 L 8.890625 -7.25 C 8.117188 -8.03125 7.140625 -8.414062 5.953125 -8.40625 C 5.066406 -8.40625 4.335938 -8.097656 3.765625 -7.484375 C 3.191406 -6.878906 2.90625 -6.09375 2.90625 -5.125 C 2.90625 -4.15625 3.191406 -3.363281 3.765625 -2.75 C 4.335938 -2.144531 5.066406 -1.84375 5.953125 -1.84375 C 7.265625 -1.84375 8.273438 -2.253906 8.984375 -3.078125 L 10.21875 -1.84375 C 9.257812 -0.5625 7.804688 0.078125 5.859375 0.078125 C 4.328125 0.078125 3.078125 -0.398438 2.109375 -1.359375 C 1.148438 -2.316406 0.671875 -3.570312 0.671875 -5.125 C 0.671875 -6.675781 1.148438 -7.9375 2.109375 -8.90625 C 3.078125 -9.875 4.328125 -10.359375 5.859375 -10.359375 Z M 5.859375 -10.359375 "/></g></g></g></svg>