<svg xmlns="http://www.w3.org/2000/svg" xmlns:xlink="http://www.w3.org/1999/xlink" width="100" zoomAndPan="magnify" viewBox="0 0 75 74.999997" height="100" preserveAspectRatio="xMidYMid meet" version="1.0"><defs><clipPath id="fa8d1ded71"><path d="M 7.011719 7.011719 L 67.761719 7.011719 L 67.761719 67.761719 L 7.011719 67.761719 Z M 7.011719 7.011719 " clip-rule="nonzero"/></clipPath></defs><g clip-path="url(#fa8d1ded71)"><path fill="#006699" d="M 7.011719 11.363281 C 7.011719 8.960938 9.023438 7.011719 11.503906 7.011719 L 63.273438 7.011719 C 65.753906 7.011719 67.761719 8.960938 67.761719 11.363281 L 67.761719 63.410156 C 67.761719 65.8125 65.753906 67.761719 63.273438 67.761719 L 11.503906 67.761719 C 9.023438 67.761719 7.011719 65.816406 7.011719 63.414062 Z M 7.011719 11.363281 " fill-opacity="1" fill-rule="nonzero"/></g><path fill="#ffffff" d="M 25.472656 57.851562 L 25.472656 30.503906 L 16.382812 30.503906 L 16.382812 57.851562 L 25.476562 57.851562 Z M 20.929688 26.769531 C 24.101562 26.769531 26.074219 24.667969 26.074219 22.042969 C 26.015625 19.359375 24.101562 17.316406 20.992188 17.316406 C 17.878906 17.316406 15.847656 19.359375 15.847656 22.042969 C 15.847656 24.667969 17.820312 26.769531 20.871094 26.769531 Z M 30.503906 57.851562 L 39.59375 57.851562 L 39.59375 42.582031 C 39.59375 41.765625 39.65625 40.945312 39.894531 40.363281 C 40.550781 38.730469 42.046875 37.039062 44.558594 37.039062 C 47.847656 37.039062 49.164062 39.546875 49.164062 43.222656 L 49.164062 57.851562 L 58.253906 57.851562 L 58.253906 42.171875 C 58.253906 33.769531 53.769531 29.859375 47.789062 29.859375 C 42.886719 29.859375 40.730469 32.601562 39.535156 34.46875 L 39.597656 34.46875 L 39.597656 30.503906 L 30.507812 30.503906 C 30.625 33.070312 30.503906 57.851562 30.503906 57.851562 Z M 30.503906 57.851562 " fill-opacity="1" fill-rule="nonzero"/></svg>