<svg xmlns="http://www.w3.org/2000/svg" xmlns:xlink="http://www.w3.org/1999/xlink" width="500" zoomAndPan="magnify" viewBox="0 0 375 374.999991" height="500" preserveAspectRatio="xMidYMid meet" version="1.0"><defs><clipPath id="a406b06b14"><path d="M 14.128906 60 L 148 60 L 148 288 L 14.128906 288 Z M 14.128906 60 " clip-rule="nonzero"/></clipPath><clipPath id="9f156316f4"><path d="M 143 60 L 232.648438 60 L 232.648438 221 L 143 221 Z M 143 60 " clip-rule="nonzero"/></clipPath><clipPath id="13f2b7e5f3"><path d="M 196 81 L 361 81 L 361 306 L 196 306 Z M 196 81 " clip-rule="nonzero"/></clipPath><clipPath id="b37b98b523"><path d="M 208.890625 81.308594 L 360.90625 104.3125 L 328.910156 315.738281 L 176.894531 292.734375 Z M 208.890625 81.308594 " clip-rule="nonzero"/></clipPath><clipPath id="66b2db64de"><path d="M 208.890625 81.308594 L 360.90625 104.3125 L 328.910156 315.738281 L 176.894531 292.734375 Z M 208.890625 81.308594 " clip-rule="nonzero"/></clipPath></defs><g clip-path="url(#a406b06b14)"><path fill="#ffffff" d="M 78.359375 183.757812 C 78.050781 183.765625 77.773438 183.859375 77.523438 184.035156 C 77.273438 184.214844 77.089844 184.445312 76.980469 184.730469 L 63.4375 218.804688 C 63.210938 219.382812 62.839844 219.84375 62.324219 220.195312 C 61.808594 220.542969 61.238281 220.71875 60.613281 220.71875 L 16.632812 220.71875 C 16.4375 220.714844 16.246094 220.691406 16.054688 220.640625 C 15.867188 220.59375 15.683594 220.523438 15.511719 220.429688 C 15.339844 220.339844 15.183594 220.226562 15.039062 220.09375 C 14.890625 219.964844 14.765625 219.816406 14.65625 219.65625 C 14.546875 219.496094 14.457031 219.320312 14.390625 219.136719 C 14.324219 218.953125 14.277344 218.765625 14.257812 218.570312 C 14.234375 218.378906 14.238281 218.183594 14.261719 217.988281 C 14.289062 217.796875 14.335938 217.609375 14.40625 217.425781 L 77.292969 61.183594 C 77.503906 60.699219 77.859375 60.386719 78.359375 60.242188 C 79.320312 59.929688 79.976562 60.210938 80.332031 61.089844 C 102.96875 117.371094 125.277344 172.953125 147.261719 227.832031 C 147.703125 228.960938 147.703125 230.078125 147.261719 231.1875 L 126.039062 283.886719 C 124.136719 288.566406 122.257812 288.558594 120.398438 283.855469 C 107.605469 251.730469 94.417969 218.898438 80.835938 185.355469 C 80.394531 184.269531 79.570312 183.738281 78.359375 183.757812 Z M 78.359375 183.757812 " fill-opacity="1" fill-rule="nonzero"/></g><g clip-path="url(#9f156316f4)"><path fill="#ffffff" d="M 169.238281 61.183594 L 232.46875 218.429688 C 232.519531 218.554688 232.554688 218.6875 232.574219 218.820312 C 232.59375 218.957031 232.597656 219.089844 232.582031 219.226562 C 232.570312 219.359375 232.539062 219.492188 232.492188 219.621094 C 232.449219 219.75 232.386719 219.871094 232.308594 219.980469 C 232.234375 220.09375 232.144531 220.199219 232.046875 220.289062 C 231.945312 220.378906 231.832031 220.457031 231.714844 220.523438 C 231.59375 220.585938 231.46875 220.632812 231.335938 220.667969 C 231.203125 220.699219 231.070312 220.71875 230.933594 220.71875 L 185.101562 220.6875 C 184.765625 220.6875 184.457031 220.589844 184.175781 220.402344 C 183.894531 220.214844 183.691406 219.964844 183.566406 219.652344 L 143.34375 119.398438 C 143.175781 118.980469 143.175781 118.5625 143.34375 118.144531 L 166.167969 61.183594 C 166.292969 60.871094 166.5 60.621094 166.777344 60.4375 C 167.058594 60.25 167.367188 60.15625 167.703125 60.15625 C 168.039062 60.15625 168.347656 60.25 168.628906 60.4375 C 168.90625 60.621094 169.109375 60.871094 169.238281 61.183594 Z M 169.238281 61.183594 " fill-opacity="1" fill-rule="nonzero"/></g><g clip-path="url(#13f2b7e5f3)"><g clip-path="url(#b37b98b523)"><g clip-path="url(#66b2db64de)"><path fill="#ffffff" d="M 196.492188 295.238281 L 204.679688 241.132812 L 268.820312 250.839844 C 276.652344 252.023438 283.992188 246.613281 285.179688 238.773438 L 298.570312 150.289062 L 236.839844 140.945312 L 208.886719 81.371094 L 360.855469 104.371094 L 339.410156 246.074219 C 333.632812 284.234375 297.894531 310.585938 259.742188 304.8125 Z M 196.492188 295.238281 " fill-opacity="1" fill-rule="nonzero"/></g></g></g></svg>