<?xml version="1.0" encoding="utf-8"?>
<!-- Generator: Adobe Illustrator 21.0.2, SVG Export Plug-In . SVG Version: 6.00 Build 0)  -->
<svg version="1.1" id="Layer_1" xmlns="http://www.w3.org/2000/svg" xmlns:xlink="http://www.w3.org/1999/xlink" x="0px" y="0px"
	 viewBox="0 0 1080 142.6" style="enable-background:new 0 0 1080 142.6;" xml:space="preserve">
<style type="text/css">
	.st0{fill:#0087EE;}
	.st1{fill:#FF681D;}
</style>
<g>
	<path class="st0" d="M169.8,6.1V140H128V73.2L107.4,140H71.4L50.8,73.2V140h-42V6.1h51.5l29.5,80.4l28.8-80.4H169.8z"/>
	<path class="st0" d="M245.4,36.2c5,2.8,8.9,6.7,11.5,11.6V33.3h41.8V140h-41.8v-14.6c-2.6,4.9-6.5,8.8-11.5,11.6
		c-5,2.8-11,4.3-18,4.3c-8.3,0-15.8-2.2-22.5-6.5c-6.7-4.4-12-10.7-15.8-18.9c-3.8-8.3-5.8-18-5.8-29.2c0-11.2,1.9-21,5.8-29.2
		c3.8-8.3,9.1-14.6,15.8-18.9c6.7-4.4,14.2-6.5,22.5-6.5C234.4,32,240.4,33.4,245.4,36.2z M230.3,73.4c-2.9,3.2-4.4,7.6-4.4,13.2
		c0,5.7,1.4,10.1,4.4,13.2c2.9,3.2,6.6,4.7,11.2,4.7c4.5,0,8.3-1.6,11.2-4.7c2.9-3.2,4.4-7.6,4.4-13.2c0-5.7-1.5-10.1-4.4-13.2
		c-2.9-3.2-6.6-4.7-11.2-4.7C236.9,68.7,233.2,70.3,230.3,73.4z"/>
	<path class="st0" d="M373,38.1c6.2-3.7,12.6-5.6,19.3-5.6v44.8h-11.9c-7.9,0-13.8,1.4-17.5,4.2c-3.7,2.8-5.6,7.7-5.6,14.8V140h-42
		V33.3h42V53C361.6,46.8,366.8,41.8,373,38.1z"/>
	<path class="st0" d="M469.6,140l-26.3-42.6V140h-42V0h42v73.2L470,33.3h48.8L478.9,87l40.9,53H469.6z"/>
	<path class="st0" d="M622.5,94h-67.2c0.4,5.3,1.6,8.9,3.6,10.9c2,2,4.7,2.9,7.9,2.9c4.5,0,7.8-2.1,9.8-6.2h44.5
		c-1.5,7.6-4.7,14.3-9.6,20.3c-4.9,6-11,10.7-18.4,14.2c-7.4,3.5-15.5,5.2-24.3,5.2c-10.6,0-20-2.2-28.3-6.6
		c-8.3-4.4-14.7-10.8-19.3-19c-4.6-8.3-6.9-17.9-6.9-29c0-11.1,2.3-20.8,6.9-29c4.6-8.3,11-14.6,19.3-19c8.3-4.4,17.7-6.6,28.3-6.6
		s20,2.2,28.3,6.5c8.3,4.4,14.7,10.6,19.3,18.6c4.6,8.1,6.9,17.6,6.9,28.6C623.4,88.3,623.1,91.1,622.5,94z M580.9,76.8
		c0-4-1.1-7-3.4-9c-2.3-2-5.1-2.9-8.5-2.9c-7.7,0-12.1,4-13.2,11.9H580.9z"/>
	<path class="st0" d="M700.2,104.2V140h-15.9c-29.3,0-43.9-14.6-43.9-43.7v-28h-13.2v-35h13.2V7.6h42v25.7h17.4v35h-17.4V97
		c0,2.5,0.6,4.4,1.8,5.5c1.2,1.1,3.2,1.7,6,1.7H700.2z"/>
	<path class="st1" d="M825.3,83c4.5,5.9,6.7,12.6,6.7,20.3c0,11.7-3.9,20.8-11.6,27.1c-7.8,6.4-18.9,9.6-33.4,9.6h-70.2V6.1h68.3
		c13.6,0,24.3,3,32.2,8.9c7.8,5.9,11.7,14.6,11.7,25.9c0,7.8-2.1,14.4-6.1,19.8c-4.1,5.4-9.6,8.9-16.4,10.7
		C814.5,73.2,820.8,77.1,825.3,83z M758.8,58.3h16.3c3.8,0,6.6-0.8,8.4-2.3c1.8-1.5,2.7-3.8,2.7-7c0-3.3-0.9-5.7-2.7-7.3
		c-1.8-1.6-4.6-2.4-8.4-2.4h-16.3V58.3z M786.3,104.1c1.8-1.4,2.7-3.8,2.7-7.1c0-6.4-3.7-9.6-11.2-9.6h-19.1v18.9h19.1
		C781.7,106.3,784.5,105.6,786.3,104.1z"/>
	<path class="st1" d="M1027.1,140l-18-24l-13.4,24h-46.2l35.8-56.2l-37.6-50.5h46.9l18,24.2l13.6-24.2h46.2l-36.9,54.9L1074,140
		H1027.1z"/>
	<path class="st1" d="M924.7,38.6c-8.6-4.4-18.2-6.6-28.9-6.6c-10.7,0-20.4,2.2-28.9,6.6c-8.6,4.4-15.3,10.8-20.1,19
		c-4.9,8.3-7.3,17.9-7.3,29c0,11.1,2.4,20.8,7.3,29c4.9,8.3,11.6,14.6,20.1,19c8.6,4.4,18.2,6.6,28.9,6.6c10.7,0,20.4-2.2,28.9-6.6
		c8.6-4.4,15.3-10.8,20.1-19c4.9-8.3,7.3-17.9,7.3-29c0-11.1-2.4-20.8-7.3-29C940,49.3,933.3,43,924.7,38.6z M916.3,107.2h-41.2
		V66.1h41.2V107.2z"/>
</g>
</svg>
