<svg xmlns="http://www.w3.org/2000/svg" xmlns:xlink="http://www.w3.org/1999/xlink" width="150" zoomAndPan="magnify" viewBox="0 0 112.5 74.999997" height="100" preserveAspectRatio="xMidYMid meet" version="1.0"><defs><clipPath id="50ccf9e6f8"><path d="M 7 31 L 22 31 L 22 44.347656 L 7 44.347656 Z M 7 31 " clip-rule="nonzero"/></clipPath><clipPath id="47dc4cec05"><path d="M 23 33 L 34 33 L 34 44.347656 L 23 44.347656 Z M 23 33 " clip-rule="nonzero"/></clipPath><clipPath id="5148ce2e5b"><path d="M 35 33 L 43 33 L 43 44.347656 L 35 44.347656 Z M 35 33 " clip-rule="nonzero"/></clipPath><clipPath id="beb536684e"><path d="M 43 30.910156 L 55 30.910156 L 55 44.347656 L 43 44.347656 Z M 43 30.910156 " clip-rule="nonzero"/></clipPath><clipPath id="3bbc01d0cd"><path d="M 53 33 L 64 33 L 64 44.347656 L 53 44.347656 Z M 53 33 " clip-rule="nonzero"/></clipPath><clipPath id="c2143d7fe3"><path d="M 63 31 L 71 31 L 71 44.347656 L 63 44.347656 Z M 63 31 " clip-rule="nonzero"/></clipPath><clipPath id="7e625c098e"><path d="M 72 31 L 83 31 L 83 44.347656 L 72 44.347656 Z M 72 31 " clip-rule="nonzero"/></clipPath><clipPath id="35f6390929"><path d="M 93 34 L 105 34 L 105 44.347656 L 93 44.347656 Z M 93 34 " clip-rule="nonzero"/></clipPath><clipPath id="18ab23a7e2"><path d="M 83 33 L 94 33 L 94 44.347656 L 83 44.347656 Z M 83 33 " clip-rule="nonzero"/></clipPath></defs><g clip-path="url(#50ccf9e6f8)"><path fill="#0087ee" d="M 21.832031 31.496094 L 21.832031 44.089844 L 17.988281 44.089844 L 17.988281 37.808594 L 16.09375 44.089844 L 12.78125 44.089844 L 10.890625 37.808594 L 10.890625 44.089844 L 7.027344 44.089844 L 7.027344 31.496094 L 11.761719 31.496094 L 14.476562 39.058594 L 17.125 31.496094 Z M 21.832031 31.496094 " fill-opacity="1" fill-rule="nonzero"/></g><g clip-path="url(#47dc4cec05)"><path fill="#0087ee" d="M 28.78125 34.328125 C 29.242188 34.589844 29.601562 34.957031 29.839844 35.417969 L 29.839844 34.054688 L 33.683594 34.054688 L 33.683594 44.089844 L 29.839844 44.089844 L 29.839844 42.71875 C 29.601562 43.179688 29.242188 43.546875 28.78125 43.808594 C 28.324219 44.070312 27.769531 44.214844 27.128906 44.214844 C 26.363281 44.214844 25.675781 44.007812 25.058594 43.601562 C 24.441406 43.1875 23.957031 42.59375 23.605469 41.824219 C 23.257812 41.042969 23.074219 40.128906 23.074219 39.078125 C 23.074219 38.023438 23.246094 37.101562 23.605469 36.332031 C 23.957031 35.550781 24.441406 34.957031 25.058594 34.550781 C 25.675781 34.136719 26.363281 33.941406 27.128906 33.941406 C 27.769531 33.929688 28.324219 34.0625 28.78125 34.328125 Z M 27.394531 37.824219 C 27.128906 38.128906 26.988281 38.539062 26.988281 39.066406 C 26.988281 39.605469 27.117188 40.019531 27.394531 40.308594 C 27.660156 40.609375 28 40.75 28.425781 40.75 C 28.835938 40.75 29.1875 40.601562 29.453125 40.308594 C 29.71875 40.007812 29.859375 39.59375 29.859375 39.066406 C 29.859375 38.53125 29.71875 38.117188 29.453125 37.824219 C 29.1875 37.523438 28.847656 37.382812 28.425781 37.382812 C 28 37.382812 27.660156 37.535156 27.394531 37.824219 Z M 27.394531 37.824219 " fill-opacity="1" fill-rule="nonzero"/></g><g clip-path="url(#5148ce2e5b)"><path fill="#0087ee" d="M 40.515625 34.503906 C 41.085938 34.15625 41.675781 33.980469 42.289062 33.980469 L 42.289062 38.191406 L 41.195312 38.191406 C 40.46875 38.191406 39.925781 38.324219 39.585938 38.589844 C 39.246094 38.851562 39.070312 39.3125 39.070312 39.980469 L 39.070312 44.089844 L 35.210938 44.089844 L 35.210938 34.054688 L 39.070312 34.054688 L 39.070312 35.90625 C 39.46875 35.324219 39.945312 34.851562 40.515625 34.503906 Z M 40.515625 34.503906 " fill-opacity="1" fill-rule="nonzero"/></g><g clip-path="url(#beb536684e)"><path fill="#0087ee" d="M 49.398438 44.089844 L 46.980469 40.082031 L 46.980469 44.089844 L 43.117188 44.089844 L 43.117188 30.921875 L 46.980469 30.921875 L 46.980469 37.808594 L 49.433594 34.054688 L 53.921875 34.054688 L 50.253906 39.105469 L 54.015625 44.089844 Z M 49.398438 44.089844 " fill-opacity="1" fill-rule="nonzero"/></g><g clip-path="url(#3bbc01d0cd)"><path fill="#0087ee" d="M 63.457031 39.765625 L 57.277344 39.765625 C 57.316406 40.261719 57.425781 40.601562 57.609375 40.789062 C 57.792969 40.976562 58.042969 41.0625 58.335938 41.0625 C 58.75 41.0625 59.054688 40.863281 59.238281 40.480469 L 63.328125 40.480469 C 63.191406 41.195312 62.898438 41.824219 62.445312 42.386719 C 61.996094 42.953125 61.433594 43.394531 60.753906 43.722656 C 60.074219 44.054688 59.328125 44.214844 58.519531 44.214844 C 57.546875 44.214844 56.679688 44.007812 55.917969 43.59375 C 55.15625 43.179688 54.566406 42.578125 54.144531 41.804688 C 53.71875 41.023438 53.507812 40.121094 53.507812 39.078125 C 53.507812 38.03125 53.71875 37.121094 54.144531 36.347656 C 54.566406 35.566406 55.15625 34.976562 55.917969 34.5625 C 56.679688 34.148438 57.546875 33.941406 58.519531 33.941406 C 59.496094 33.941406 60.359375 34.148438 61.121094 34.550781 C 61.886719 34.964844 62.472656 35.550781 62.898438 36.300781 C 63.320312 37.0625 63.53125 37.957031 63.53125 38.992188 C 63.539062 39.226562 63.511719 39.492188 63.457031 39.765625 Z M 59.632812 38.144531 C 59.632812 37.769531 59.53125 37.488281 59.320312 37.300781 C 59.109375 37.109375 58.851562 37.027344 58.539062 37.027344 C 57.832031 37.027344 57.425781 37.402344 57.324219 38.144531 Z M 59.632812 38.144531 " fill-opacity="1" fill-rule="nonzero"/></g><g clip-path="url(#c2143d7fe3)"><path fill="#0087ee" d="M 70.601562 40.722656 L 70.601562 44.089844 L 69.140625 44.089844 C 66.445312 44.089844 65.105469 42.71875 65.105469 39.980469 L 65.105469 37.347656 L 63.890625 37.347656 L 63.890625 34.054688 L 65.105469 34.054688 L 65.105469 31.636719 L 68.964844 31.636719 L 68.964844 34.054688 L 70.566406 34.054688 L 70.566406 37.347656 L 68.964844 37.347656 L 68.964844 40.046875 C 68.964844 40.28125 69.019531 40.460938 69.132812 40.5625 C 69.242188 40.667969 69.425781 40.722656 69.683594 40.722656 Z M 70.601562 40.722656 " fill-opacity="1" fill-rule="nonzero"/></g><g clip-path="url(#7e625c098e)"><path fill="#ff681d" d="M 82.105469 38.730469 C 82.519531 39.285156 82.722656 39.914062 82.722656 40.636719 C 82.722656 41.738281 82.363281 42.59375 81.65625 43.1875 C 80.9375 43.789062 79.917969 44.089844 78.585938 44.089844 L 72.128906 44.089844 L 72.128906 31.496094 L 78.410156 31.496094 C 79.660156 31.496094 80.644531 31.777344 81.371094 32.332031 C 82.085938 32.886719 82.445312 33.707031 82.445312 34.769531 C 82.445312 35.503906 82.253906 36.125 81.886719 36.632812 C 81.507812 37.140625 81.003906 37.46875 80.378906 37.636719 C 81.113281 37.808594 81.691406 38.175781 82.105469 38.730469 Z M 75.992188 36.40625 L 77.488281 36.40625 C 77.839844 36.40625 78.097656 36.332031 78.261719 36.1875 C 78.429688 36.046875 78.511719 35.832031 78.511719 35.53125 C 78.511719 35.21875 78.429688 34.996094 78.261719 34.84375 C 78.097656 34.695312 77.839844 34.617188 77.488281 34.617188 L 75.992188 34.617188 Z M 78.519531 40.714844 C 78.683594 40.582031 78.769531 40.355469 78.769531 40.046875 C 78.769531 39.445312 78.429688 39.144531 77.738281 39.144531 L 75.980469 39.144531 L 75.980469 40.921875 L 77.738281 40.921875 C 78.097656 40.921875 78.355469 40.855469 78.519531 40.714844 Z M 78.519531 40.714844 " fill-opacity="1" fill-rule="nonzero"/></g><g clip-path="url(#35f6390929)"><path fill="#ff681d" d="M 100.660156 44.089844 L 99.007812 41.832031 L 97.773438 44.089844 L 93.527344 44.089844 L 96.816406 38.804688 L 93.359375 34.054688 L 97.671875 34.054688 L 99.328125 36.332031 L 100.578125 34.054688 L 104.828125 34.054688 L 101.433594 39.21875 L 104.972656 44.089844 Z M 100.660156 44.089844 " fill-opacity="1" fill-rule="nonzero"/></g><g clip-path="url(#18ab23a7e2)"><path fill="#ff681d" d="M 91.246094 34.550781 C 90.457031 34.136719 89.574219 33.929688 88.589844 33.929688 C 87.605469 33.929688 86.710938 34.136719 85.929688 34.550781 C 85.140625 34.964844 84.523438 35.566406 84.082031 36.339844 C 83.632812 37.121094 83.410156 38.023438 83.410156 39.066406 C 83.410156 40.113281 83.632812 41.023438 84.082031 41.796875 C 84.535156 42.578125 85.148438 43.167969 85.929688 43.582031 C 86.722656 43.996094 87.605469 44.203125 88.589844 44.203125 C 89.574219 44.203125 90.464844 43.996094 91.246094 43.582031 C 92.035156 43.167969 92.652344 42.566406 93.09375 41.796875 C 93.542969 41.015625 93.765625 40.113281 93.765625 39.066406 C 93.765625 38.023438 93.542969 37.109375 93.09375 36.339844 C 92.652344 35.558594 92.035156 34.964844 91.246094 34.550781 Z M 90.472656 41.003906 L 86.683594 41.003906 L 86.683594 37.140625 L 90.472656 37.140625 Z M 90.472656 41.003906 " fill-opacity="1" fill-rule="nonzero"/></g></svg>