<svg xmlns="http://www.w3.org/2000/svg" xmlns:xlink="http://www.w3.org/1999/xlink" width="100" zoomAndPan="magnify" viewBox="0 0 75 74.999997" height="100" preserveAspectRatio="xMidYMid meet" version="1.0"><defs><clipPath id="419605a3c8"><path d="M 6.046875 21 L 37 21 L 37 52 L 6.046875 52 Z M 6.046875 21 " clip-rule="nonzero"/></clipPath></defs><path fill="#0364b8" d="M 60.472656 10.523438 L 27.902344 10.523438 C 27.546875 10.523438 27.210938 10.589844 26.882812 10.722656 C 26.558594 10.859375 26.269531 11.050781 26.019531 11.296875 C 25.769531 11.546875 25.578125 11.832031 25.445312 12.15625 C 25.308594 12.480469 25.242188 12.820312 25.242188 13.167969 L 25.242188 16.179688 L 43.601562 21.835938 L 63.132812 16.179688 L 63.132812 13.167969 C 63.132812 12.820312 63.066406 12.480469 62.929688 12.15625 C 62.796875 11.832031 62.605469 11.546875 62.355469 11.296875 C 62.105469 11.050781 61.816406 10.859375 61.492188 10.722656 C 61.164062 10.589844 60.828125 10.523438 60.472656 10.523438 Z M 60.472656 10.523438 " fill-opacity="1" fill-rule="nonzero"/><path fill="#0a2767" d="M 66.257812 39.566406 C 66.539062 38.695312 66.757812 37.8125 66.921875 36.917969 C 66.921875 36.433594 66.710938 36.070312 66.292969 35.832031 L 66.265625 35.816406 L 66.257812 35.8125 L 45.726562 24.171875 C 45.636719 24.113281 45.546875 24.0625 45.449219 24.015625 C 45.054688 23.820312 44.632812 23.71875 44.1875 23.71875 C 43.742188 23.71875 43.320312 23.820312 42.921875 24.015625 C 42.828125 24.0625 42.738281 24.113281 42.648438 24.171875 L 22.113281 35.8125 L 22.105469 35.816406 L 22.085938 35.832031 C 21.664062 36.070312 21.453125 36.433594 21.453125 36.917969 C 21.617188 37.8125 21.835938 38.695312 22.113281 39.566406 L 43.886719 55.410156 Z M 66.257812 39.566406 " fill-opacity="1" fill-rule="nonzero"/><path fill="#28a8ea" d="M 51.765625 16.179688 L 38.503906 16.179688 L 34.675781 21.835938 L 38.503906 27.488281 L 51.765625 38.800781 L 63.132812 38.800781 L 63.132812 27.488281 Z M 51.765625 16.179688 " fill-opacity="1" fill-rule="nonzero"/><path fill="#0078d4" d="M 25.242188 16.179688 L 38.503906 16.179688 L 38.503906 27.488281 L 25.242188 27.488281 Z M 25.242188 16.179688 " fill-opacity="1" fill-rule="nonzero"/><path fill="#50d9ff" d="M 51.765625 16.179688 L 63.132812 16.179688 L 63.132812 27.488281 L 51.765625 27.488281 Z M 51.765625 16.179688 " fill-opacity="1" fill-rule="nonzero"/><path fill="#0364b8" d="M 51.765625 38.800781 L 38.503906 27.488281 L 25.242188 27.488281 L 25.242188 38.800781 L 38.503906 50.113281 L 59.027344 53.445312 Z M 51.765625 38.800781 " fill-opacity="1" fill-rule="nonzero"/><path fill="#0078d4" d="M 38.503906 27.488281 L 51.765625 27.488281 L 51.765625 38.800781 L 38.503906 38.800781 Z M 38.503906 27.488281 " fill-opacity="1" fill-rule="nonzero"/><path fill="#064a8c" d="M 25.242188 38.800781 L 38.503906 38.800781 L 38.503906 50.113281 L 25.242188 50.113281 Z M 25.242188 38.800781 " fill-opacity="1" fill-rule="nonzero"/><path fill="#0078d4" d="M 51.765625 38.800781 L 63.132812 38.800781 L 63.132812 50.113281 L 51.765625 50.113281 Z M 51.765625 38.800781 " fill-opacity="1" fill-rule="nonzero"/><path fill="#0a2767" d="M 44.546875 54.292969 L 22.203125 38.082031 L 23.140625 36.441406 C 23.140625 36.441406 43.5 47.980469 43.808594 48.152344 C 44.078125 48.257812 44.34375 48.253906 44.605469 48.128906 L 65.320312 36.382812 L 66.257812 38.023438 Z M 44.546875 54.292969 " fill-opacity="0.5" fill-rule="nonzero"/><path fill="#1490df" d="M 66.292969 38.003906 L 66.265625 38.019531 L 66.257812 38.023438 L 45.726562 49.664062 C 45.3125 49.929688 44.859375 50.078125 44.363281 50.109375 C 43.871094 50.136719 43.402344 50.046875 42.960938 49.835938 L 50.109375 59.375 L 65.75 62.761719 L 65.75 62.769531 C 66.117188 62.503906 66.40625 62.171875 66.613281 61.765625 C 66.820312 61.363281 66.921875 60.933594 66.921875 60.480469 L 66.921875 36.917969 C 66.921875 37.398438 66.710938 37.761719 66.292969 38.003906 Z M 66.292969 38.003906 " fill-opacity="1" fill-rule="nonzero"/><path fill="#000000" d="M 66.921875 60.480469 L 66.921875 59.089844 L 48.007812 48.367188 L 45.726562 49.664062 C 45.3125 49.929688 44.859375 50.078125 44.363281 50.109375 C 43.871094 50.136719 43.402344 50.046875 42.960938 49.835938 L 50.109375 59.375 L 65.75 62.761719 L 65.75 62.769531 C 66.117188 62.503906 66.40625 62.171875 66.613281 61.765625 C 66.820312 61.363281 66.921875 60.933594 66.921875 60.480469 Z M 66.921875 60.480469 " fill-opacity="0.05" fill-rule="nonzero"/><path fill="#000000" d="M 66.828125 61.203125 L 46.09375 49.453125 L 45.726562 49.660156 C 45.3125 49.925781 44.859375 50.074219 44.367188 50.105469 C 43.871094 50.136719 43.40625 50.046875 42.960938 49.835938 L 50.109375 59.375 L 65.75 62.761719 L 65.75 62.769531 C 66.292969 62.375 66.65625 61.855469 66.828125 61.207031 Z M 66.828125 61.203125 " fill-opacity="0.1" fill-rule="nonzero"/><path fill="#28a8ea" d="M 22.113281 38.027344 L 22.113281 38.011719 L 22.097656 38.011719 L 22.039062 37.972656 C 21.644531 37.730469 21.449219 37.378906 21.453125 36.917969 L 21.453125 60.480469 C 21.453125 60.855469 21.523438 61.21875 21.667969 61.566406 C 21.8125 61.910156 22.015625 62.21875 22.28125 62.484375 C 22.550781 62.75 22.855469 62.953125 23.207031 63.097656 C 23.554688 63.238281 23.917969 63.3125 24.292969 63.308594 L 64.082031 63.308594 C 64.320312 63.308594 64.550781 63.277344 64.78125 63.214844 C 64.902344 63.195312 65.015625 63.15625 65.121094 63.101562 C 65.164062 63.097656 65.203125 63.085938 65.238281 63.066406 C 65.390625 63 65.539062 62.921875 65.671875 62.820312 C 65.710938 62.800781 65.730469 62.800781 65.75 62.761719 Z M 22.113281 38.027344 " fill-opacity="1" fill-rule="nonzero"/><path fill="#000000" d="M 40.398438 53.257812 L 40.398438 22.460938 C 40.398438 22.128906 40.332031 21.808594 40.203125 21.5 C 40.074219 21.195312 39.894531 20.921875 39.65625 20.6875 C 39.417969 20.453125 39.148438 20.269531 38.835938 20.140625 C 38.527344 20.015625 38.207031 19.949219 37.871094 19.949219 L 25.296875 19.949219 L 25.296875 34.003906 L 22.113281 35.8125 L 22.082031 35.828125 C 21.660156 36.070312 21.453125 36.433594 21.453125 36.917969 L 21.453125 36.925781 L 21.453125 36.917969 L 21.453125 55.769531 L 37.871094 55.769531 C 38.207031 55.769531 38.527344 55.703125 38.835938 55.574219 C 39.148438 55.449219 39.417969 55.265625 39.65625 55.03125 C 39.894531 54.796875 40.074219 54.523438 40.203125 54.214844 C 40.332031 53.910156 40.398438 53.589844 40.398438 53.257812 Z M 40.398438 53.257812 " fill-opacity="0.1" fill-rule="nonzero"/><path fill="#000000" d="M 38.503906 55.140625 L 38.503906 24.347656 C 38.503906 24.015625 38.4375 23.695312 38.308594 23.386719 C 38.179688 23.078125 38 22.808594 37.761719 22.574219 C 37.523438 22.335938 37.253906 22.15625 36.941406 22.027344 C 36.632812 21.898438 36.3125 21.835938 35.976562 21.835938 L 25.296875 21.835938 L 25.296875 34.003906 L 22.113281 35.8125 L 22.082031 35.828125 C 21.660156 36.070312 21.453125 36.433594 21.453125 36.917969 L 21.453125 36.925781 L 21.453125 36.917969 L 21.453125 57.65625 L 35.976562 57.65625 C 36.3125 57.652344 36.632812 57.589844 36.941406 57.460938 C 37.253906 57.332031 37.523438 57.152344 37.761719 56.917969 C 38 56.679688 38.179688 56.410156 38.308594 56.101562 C 38.4375 55.792969 38.503906 55.472656 38.503906 55.140625 Z M 38.503906 55.140625 " fill-opacity="0.2" fill-rule="nonzero"/><path fill="#000000" d="M 38.503906 51.371094 L 38.503906 24.347656 C 38.503906 24.015625 38.4375 23.695312 38.308594 23.386719 C 38.179688 23.078125 38 22.808594 37.761719 22.574219 C 37.523438 22.335938 37.253906 22.15625 36.941406 22.027344 C 36.632812 21.898438 36.3125 21.835938 35.976562 21.835938 L 25.296875 21.835938 L 25.296875 34.003906 L 22.113281 35.8125 L 22.082031 35.828125 C 21.660156 36.070312 21.453125 36.433594 21.453125 36.917969 L 21.453125 36.925781 L 21.453125 36.917969 L 21.453125 53.882812 L 35.976562 53.882812 C 36.3125 53.882812 36.632812 53.820312 36.941406 53.691406 C 37.253906 53.5625 37.523438 53.382812 37.761719 53.144531 C 38 52.910156 38.179688 52.640625 38.308594 52.332031 C 38.4375 52.023438 38.503906 51.703125 38.503906 51.371094 Z M 38.503906 51.371094 " fill-opacity="0.2" fill-rule="nonzero"/><path fill="#000000" d="M 36.609375 51.371094 L 36.609375 24.347656 C 36.609375 24.015625 36.542969 23.695312 36.414062 23.386719 C 36.285156 23.078125 36.101562 22.808594 35.867188 22.574219 C 35.628906 22.335938 35.359375 22.15625 35.046875 22.027344 C 34.738281 21.898438 34.417969 21.835938 34.082031 21.835938 L 25.296875 21.835938 L 25.296875 34.003906 L 22.113281 35.8125 L 22.082031 35.828125 C 21.660156 36.070312 21.453125 36.433594 21.453125 36.917969 L 21.453125 36.925781 L 21.453125 36.917969 L 21.453125 53.882812 L 34.082031 53.882812 C 34.417969 53.882812 34.738281 53.820312 35.046875 53.691406 C 35.359375 53.5625 35.628906 53.382812 35.867188 53.144531 C 36.101562 52.910156 36.285156 52.640625 36.414062 52.332031 C 36.542969 52.023438 36.609375 51.703125 36.609375 51.371094 Z M 36.609375 51.371094 " fill-opacity="0.2" fill-rule="nonzero"/><g clip-path="url(#419605a3c8)"><path fill="#0078d4" d="M 8.820312 21.835938 L 34.082031 21.835938 C 34.417969 21.835938 34.742188 21.898438 35.050781 22.027344 C 35.359375 22.152344 35.632812 22.335938 35.867188 22.570312 C 36.105469 22.804688 36.289062 23.078125 36.417969 23.386719 C 36.542969 23.695312 36.609375 24.015625 36.609375 24.347656 L 36.609375 49.484375 C 36.609375 49.820312 36.542969 50.140625 36.417969 50.445312 C 36.289062 50.753906 36.105469 51.027344 35.867188 51.261719 C 35.632812 51.5 35.359375 51.679688 35.050781 51.808594 C 34.742188 51.933594 34.417969 52 34.082031 52 L 8.820312 52 C 8.484375 52 8.164062 51.933594 7.855469 51.808594 C 7.542969 51.679688 7.269531 51.5 7.035156 51.261719 C 6.796875 51.027344 6.617188 50.753906 6.488281 50.445312 C 6.359375 50.140625 6.292969 49.820312 6.292969 49.484375 L 6.292969 24.347656 C 6.292969 24.015625 6.359375 23.695312 6.488281 23.386719 C 6.617188 23.078125 6.796875 22.804688 7.035156 22.570312 C 7.269531 22.335938 7.542969 22.152344 7.855469 22.027344 C 8.164062 21.898438 8.484375 21.835938 8.820312 21.835938 Z M 8.820312 21.835938 " fill-opacity="1" fill-rule="nonzero"/></g><path fill="#ffffff" d="M 13.621094 32.144531 C 14.308594 30.6875 15.34375 29.546875 16.730469 28.722656 C 18.265625 27.851562 19.914062 27.4375 21.675781 27.488281 C 23.3125 27.453125 24.835938 27.84375 26.25 28.660156 C 27.582031 29.449219 28.59375 30.539062 29.277344 31.925781 C 30.015625 33.445312 30.371094 35.046875 30.335938 36.734375 C 30.375 38.496094 30.007812 40.171875 29.246094 41.757812 C 28.546875 43.195312 27.507812 44.324219 26.128906 45.140625 C 24.660156 45.980469 23.078125 46.382812 21.382812 46.34375 C 19.710938 46.382812 18.152344 45.988281 16.707031 45.160156 C 15.363281 44.367188 14.339844 43.277344 13.640625 41.886719 C 12.894531 40.390625 12.535156 38.808594 12.566406 37.140625 C 12.535156 35.394531 12.886719 33.726562 13.621094 32.144531 Z M 16.9375 40.171875 C 17.300781 41.089844 17.882812 41.839844 18.6875 42.421875 C 19.507812 42.992188 20.417969 43.265625 21.417969 43.242188 C 22.488281 43.28125 23.460938 43 24.339844 42.394531 C 25.132812 41.8125 25.699219 41.058594 26.039062 40.136719 C 26.414062 39.125 26.59375 38.078125 26.582031 37 C 26.59375 35.910156 26.421875 34.851562 26.070312 33.820312 C 25.753906 32.878906 25.207031 32.101562 24.429688 31.484375 C 23.570312 30.84375 22.605469 30.546875 21.535156 30.589844 C 20.511719 30.566406 19.578125 30.839844 18.738281 31.417969 C 17.921875 32.003906 17.324219 32.757812 16.949219 33.6875 C 16.542969 34.730469 16.335938 35.808594 16.335938 36.929688 C 16.332031 38.046875 16.53125 39.128906 16.933594 40.171875 Z M 16.9375 40.171875 " fill-opacity="1" fill-rule="nonzero"/></svg>