<?xml version="1.0" encoding="utf-8"?>
<!-- Generator: Adobe Illustrator 27.1.1, SVG Export Plug-In . SVG Version: 6.00 Build 0)  -->
<svg version="1.1" id="Logo" xmlns="http://www.w3.org/2000/svg" xmlns:xlink="http://www.w3.org/1999/xlink" x="0px" y="0px"
	 viewBox="0 0 452.09 281.65" style="enable-background:new 0 0 452.09 281.65;" xml:space="preserve">
<style type="text/css">
	.st0{fill:#FFDC00;}
	.st1{fill:#004C9B;}
	.st2{fill:#FFFFFF;}
</style>
<g>
	<g>
		<rect x="296.84" y="39.49" class="st0" width="115.67" height="176.64"/>
	</g>
	<g>
		<rect x="39.58" y="65.42" class="st1" width="347.01" height="176.64"/>
	</g>
	<path class="st2" d="M91.81,92.52H81.5l-0.52,0.52v28.88l-0.52,0.52h-6.19l-0.52-0.52V93.03l-0.52-0.52H62.93L62.42,92v-5.16
		l0.52-0.52h28.88l0.52,0.52V92L91.81,92.52z"/>
	<path class="st2" d="M100.72,122.94c-7.73,0-12.89-5.16-12.89-13.41s5.16-13.41,12.89-13.41s12.89,5.16,12.89,13.41
		S108.45,122.94,100.72,122.94z M100.72,102.31c-3.61,0-5.67,2.58-5.67,7.22s2.06,7.22,5.67,7.22c3.61,0,5.67-2.58,5.67-7.22
		S104.33,102.31,100.72,102.31z"/>
	<path class="st2" d="M134.59,102.83h-3.61c-4.13,0-5.67,2.06-5.67,6.7v12.38l-0.52,0.52h-6.19l-0.52-0.52V97.16l0.52-0.51h5.67
		l0.52,0.51l0.52,1.55h0.52c0,0,1.03-2.06,5.67-2.06h3.09l0.52,0.51v5.16L134.59,102.83z"/>
	<path class="st2" d="M148.86,122.94c-7.73,0-12.89-5.16-12.89-13.41s5.16-13.41,12.89-13.41s12.89,5.16,12.89,13.41
		S156.59,122.94,148.86,122.94z M148.86,102.31c-3.61,0-5.67,2.58-5.67,7.22s2.06,7.22,5.67,7.22c3.61,0,5.67-2.58,5.67-7.22
		S152.47,102.31,148.86,102.31z"/>
	<path class="st2" d="M189.81,122.42h-6.19l-0.52-0.52v-14.95c0-2.58-1.03-4.64-4.13-4.64c-3.61,0-5.67,2.06-5.67,6.7v12.89
		l-0.52,0.52h-6.19l-0.52-0.52V97.16l0.52-0.51h5.67l0.52,0.51l0.52,1.55h0.52c1.03-1.03,3.09-2.58,6.7-2.58
		c6.19,0,9.8,4.13,9.8,10.31v15.47L189.81,122.42z"/>
	<path class="st2" d="M205.11,114.69c0,1.03,0.52,1.55,1.55,1.55h4.64l0.52,0.52v5.16l-0.52,0.52h-4.64c-4.64,0-8.77-2.06-8.77-7.73
		v-11.34l-0.52-0.52h-3.61l-0.52-0.52v-5.16l0.52-0.51h3.61l0.52-0.52v-4.64l0.52-0.52h6.19l0.52,0.52v4.64l0.52,0.52h5.67
		l0.52,0.51v5.16l-0.52,0.52h-5.67l-0.52,0.52V114.69z"/>
	<path class="st2" d="M227.12,122.94c-7.74,0-12.89-5.16-12.89-13.41s5.16-13.41,12.89-13.41c7.73,0,12.89,5.16,12.89,13.41
		S234.85,122.94,227.12,122.94z M227.12,102.31c-3.61,0-5.67,2.58-5.67,7.22s2.06,7.22,5.67,7.22c3.61,0,5.67-2.58,5.67-7.22
		S230.73,102.31,227.12,102.31z"/>
	<path class="st2" d="M94.39,202.19c0,9.28-5.16,14.44-14.44,14.44s-14.44-5.16-14.44-14.44v-21.66l0.52-0.52h6.19l0.52,0.52v21.66
		c0,5.16,2.06,8.25,7.22,8.25c5.16,0,7.22-3.09,7.22-8.25v-21.66l0.52-0.52h6.19l0.52,0.52V202.19z"/>
	<path class="st2" d="M123.36,216.11h-6.19l-0.52-0.52v-14.95c0-2.58-1.03-4.64-4.13-4.64c-3.61,0-5.67,2.06-5.67,6.7v12.89
		l-0.52,0.52h-6.19l-0.52-0.52v-24.75l0.52-0.52h5.67l0.52,0.52l0.52,1.55h0.52c1.03-1.03,3.09-2.58,6.7-2.58
		c6.19,0,9.8,4.13,9.8,10.31v15.47L123.36,216.11z"/>
	<path class="st2" d="M136.08,186.21h-6.19l-0.52-0.52v-5.16l0.52-0.52h6.19l0.52,0.52v5.16L136.08,186.21z M136.08,216.11h-6.19
		l-0.52-0.52v-24.75l0.52-0.52h6.19l0.52,0.52v24.75L136.08,216.11z"/>
	<path class="st2" d="M156.28,215.6l-0.52,0.52h-5.67l-0.52-0.52L140.81,196v-5.16l0.52-0.52h4.64l0.52,0.52l6.19,15.99h0.52
		l6.19-15.99l0.52-0.52h4.64l0.52,0.52V196L156.28,215.6z"/>
	<path class="st2" d="M192.47,205.28l-0.52,0.52h-15.99l-0.52,0.52c0,1.03,1.03,4.13,5.16,4.13c1.55,0,3.09-0.52,3.61-1.55
		l0.52-0.52h6.19l0.52,0.52c-0.52,3.09-3.09,7.73-10.83,7.73c-8.77,0-12.89-6.19-12.89-13.41c0-7.22,4.13-13.41,12.38-13.41
		c8.25,0,12.38,6.19,12.38,13.41V205.28z M184.74,200.13c0-0.52-0.52-4.13-4.64-4.13c-4.13,0-4.64,3.61-4.64,4.13l0.52,0.52h8.25
		L184.74,200.13z"/>
	<path class="st2" d="M213.19,196.52h-3.61c-4.13,0-5.67,2.06-5.67,6.7v12.38l-0.52,0.52h-6.19l-0.52-0.52v-24.75l0.52-0.52h5.67
		l0.52,0.52l0.52,1.55h0.52c0,0,1.03-2.06,5.67-2.06h3.09l0.52,0.52V196L213.19,196.52z"/>
	<path class="st2" d="M227.46,216.63c-7.22,0-11.34-3.61-11.34-8.77l0.52-0.52h6.19l0.52,0.52c0,2.06,1.55,2.58,4.13,2.58
		s4.13-0.52,4.13-2.06c0-2.06-2.06-2.06-5.16-2.58s-9.8-2.06-9.8-8.25c0-4.13,3.09-7.74,10.83-7.74c6.19,0,10.83,2.58,10.83,7.74
		l-0.52,0.52h-6.19l-0.52-0.52c0-1.03-1.03-1.55-3.61-1.55s-3.61,0.52-3.61,2.06c0,2.06,3.09,2.06,6.19,2.58
		c3.09,0.52,8.77,1.55,8.77,7.74C238.8,212.5,235.71,216.63,227.46,216.63z"/>
	<path class="st2" d="M249.73,186.21h-6.19l-0.52-0.52v-5.16l0.52-0.52h6.19l0.52,0.52v5.16L249.73,186.21z M249.73,216.11h-6.19
		l-0.52-0.52v-24.75l0.52-0.52h6.19l0.52,0.52v24.75L249.73,216.11z"/>
	<path class="st2" d="M266.06,208.38c0,1.03,0.52,1.55,1.55,1.55h4.64l0.52,0.52v5.16l-0.52,0.52h-4.64c-4.64,0-8.77-2.06-8.77-7.73
		v-11.34l-0.52-0.52h-3.61L254.2,196v-5.16l0.52-0.52h3.61l0.52-0.52v-4.64l0.52-0.52h6.19l0.52,0.52v4.64l0.52,0.52h5.67l0.52,0.52
		V196l-0.52,0.52h-5.67l-0.52,0.52V208.38z"/>
	<path class="st2" d="M292.19,216.63c-2.06,5.16-4.12,8.25-11.34,8.25h-2.58l-0.52-0.52v-5.16l0.52-0.52h2.58
		c2.58,0,3.09-0.52,3.61-2.06v-0.52L276.21,196v-5.16l0.52-0.52h4.64l0.52,0.52l6.19,17.53h0.52l6.19-17.53l0.52-0.52h4.64
		l0.52,0.52V196L292.19,216.63z"/>
	<polygon class="st2" points="101.09,169.27 94.9,169.27 94.39,168.75 94.39,149.1 93.87,149.1 86.94,168.75 86.42,169.27 
		80.75,169.27 80.23,168.75 73.25,149.1 72.73,149.1 72.73,168.75 72.22,169.27 66.03,169.27 65.51,168.75 65.51,133.69 
		66.03,133.17 73.76,133.17 74.28,133.69 83.36,158.96 83.87,158.96 92.84,133.69 93.36,133.17 101.09,133.17 101.61,133.69 
		101.61,168.75 	"/>
	<path class="st2" d="M130.77,158.44l-0.52,0.52h-15.99l-0.52,0.52c0,1.03,1.03,4.13,5.16,4.13c1.55,0,3.09-0.52,3.61-1.55
		l0.52-0.52h6.19l0.52,0.52c-0.52,3.09-3.09,7.73-10.83,7.73c-8.77,0-12.89-6.19-12.89-13.41c0-7.22,4.13-13.41,12.38-13.41
		s12.38,6.19,12.38,13.41V158.44z M123.03,153.28c0-0.52-0.52-4.13-4.64-4.13c-4.13,0-4.64,3.61-4.64,4.13l0.52,0.52h8.25
		L123.03,153.28z"/>
	<path class="st2" d="M144.52,161.53c0,1.03,0.52,1.55,1.55,1.55h4.64l0.52,0.52v5.16l-0.52,0.52h-4.64c-4.64,0-8.77-2.06-8.77-7.73
		v-11.34l-0.52-0.52h-3.61l-0.52-0.52V144l0.52-0.52h3.61l0.52-0.52v-4.64l0.52-0.52h6.19l0.52,0.52v4.64l0.52,0.52h5.67l0.52,0.52
		v5.16l-0.52,0.52h-5.67l-0.52,0.52V161.53z"/>
	<path class="st2" d="M172.72,149.67h-3.61c-4.13,0-5.67,2.06-5.67,6.7v12.38l-0.52,0.52h-6.19l-0.52-0.52V144l0.52-0.52h5.67
		l0.52,0.52l0.52,1.55h0.52c0,0,1.03-2.06,5.67-2.06h3.09l0.52,0.52v5.16L172.72,149.67z"/>
	<path class="st2" d="M186.99,169.78c-7.73,0-12.89-5.16-12.89-13.41c0-8.25,5.16-13.41,12.89-13.41c7.73,0,12.89,5.16,12.89,13.41
		C199.88,164.63,194.72,169.78,186.99,169.78z M186.99,149.16c-3.61,0-5.67,2.58-5.67,7.22c0,4.64,2.06,7.22,5.67,7.22
		s5.67-2.58,5.67-7.22C192.66,151.74,190.6,149.16,186.99,149.16z"/>
	<path class="st2" d="M218.66,169.78c-4.64,0-6.7-2.58-6.7-2.58h-0.52v12.3l-0.52,0.52h-6.19l-0.52-0.52V144l0.52-0.52h5.67
		l0.52,0.52l0.52,1.55h0.52c0,0,2.06-2.58,6.7-2.58c6.19,0,11.34,5.16,11.34,13.41C230,164.63,224.84,169.78,218.66,169.78z
		 M217.11,149.16c-4.13,0-5.67,3.09-5.67,7.22c0,4.13,1.55,7.22,5.67,7.22c4.13,0,5.67-3.09,5.67-7.22
		C222.78,152.25,221.23,149.16,217.11,149.16z"/>
	<path class="st2" d="M245.82,169.78c-7.74,0-12.89-5.16-12.89-13.41c0-8.25,5.16-13.41,12.89-13.41c7.73,0,12.89,5.16,12.89,13.41
		C258.71,164.63,253.55,169.78,245.82,169.78z M245.82,149.16c-3.61,0-5.67,2.58-5.67,7.22c0,4.64,2.06,7.22,5.67,7.22
		s5.67-2.58,5.67-7.22C251.49,151.74,249.43,149.16,245.82,149.16z"/>
	<path class="st2" d="M269.75,169.27h-6.19l-0.52-0.52v-35.06l0.52-0.52h6.19l0.52,0.52v35.06L269.75,169.27z"/>
	<path class="st2" d="M282.99,139.36h-6.19l-0.52-0.52v-5.16l0.52-0.52h6.19l0.52,0.52v5.16L282.99,139.36z M282.99,169.27h-6.19
		l-0.52-0.52V144l0.52-0.52h6.19l0.52,0.52v24.75L282.99,169.27z"/>
	<path class="st2" d="M299.33,161.53c0,1.03,0.52,1.55,1.55,1.55h4.64l0.52,0.52v5.16l-0.52,0.52h-4.64c-4.64,0-8.77-2.06-8.77-7.73
		v-11.34l-0.52-0.52h-3.61l-0.52-0.52V144l0.52-0.52h3.61l0.52-0.52v-4.64l0.52-0.52h6.19l0.52,0.52v4.64l0.52,0.52h5.67l0.52,0.52
		v5.16l-0.52,0.52h-5.67l-0.52,0.52V161.53z"/>
	<path class="st2" d="M331.13,169.27h-5.67l-0.52-0.52l-0.52-1.03h-0.52c0,0-2.06,2.06-5.67,2.06c-5.67,0-9.28-3.09-9.28-8.25
		c0-7.74,7.22-8.77,11.34-8.77c2.06,0,3.61,0.52,3.61,0.52l0.52-0.52v-0.52c0-2.58-0.52-3.09-3.61-3.09c-1.55,0-3.09,0-3.61,1.55
		l-0.52,0.52h-6.19l-0.52-0.52c0-3.09,2.58-7.74,10.83-7.74c8.25,0,10.83,4.13,10.83,11.86v13.92L331.13,169.27z M323.91,158.44
		c0,0-1.03-0.52-3.09-0.52c-3.09,0-4.64,1.03-4.64,3.09c0,1.55,1.03,2.58,3.61,2.58c2.58,0,4.64-1.55,4.64-3.61v-1.03L323.91,158.44
		z"/>
	<path class="st2" d="M360.67,169.27h-6.19l-0.52-0.52V153.8c0-2.58-1.03-4.64-4.13-4.64c-3.61,0-5.67,2.06-5.67,6.7v12.89
		l-0.52,0.52h-6.19l-0.52-0.52V144l0.52-0.52h5.67l0.52,0.52l0.52,1.55h0.52c1.03-1.03,3.09-2.58,6.7-2.58
		c6.19,0,9.8,4.13,9.8,10.31v15.47L360.67,169.27z"/>
</g>
</svg>
