<svg xmlns="http://www.w3.org/2000/svg" xmlns:xlink="http://www.w3.org/1999/xlink" width="100" zoomAndPan="magnify" viewBox="0 0 75 74.999997" height="100" preserveAspectRatio="xMidYMid meet" version="1.0"><defs><clipPath id="f246ac8842"><path d="M 5.511719 5.511719 L 69.261719 5.511719 L 69.261719 69.261719 L 5.511719 69.261719 Z M 5.511719 5.511719 " clip-rule="nonzero"/></clipPath></defs><g clip-path="url(#f246ac8842)"><path fill="#de4c36" d="M 68.058594 34.546875 L 40.226562 6.714844 C 38.625 5.113281 36.023438 5.113281 34.421875 6.714844 L 28.640625 12.496094 L 35.972656 19.828125 C 37.675781 19.25 39.628906 19.636719 40.988281 20.996094 C 42.351562 22.363281 42.738281 24.332031 42.148438 26.042969 L 49.214844 33.109375 C 50.921875 32.519531 52.894531 32.898438 54.261719 34.269531 C 56.167969 36.175781 56.167969 39.265625 54.261719 41.175781 C 52.351562 43.085938 49.261719 43.085938 47.351562 41.175781 C 45.914062 39.738281 45.558594 37.632812 46.285156 35.863281 L 39.699219 29.273438 L 39.695312 46.613281 C 40.175781 46.851562 40.609375 47.160156 40.988281 47.539062 C 42.898438 49.445312 42.898438 52.539062 40.988281 54.449219 C 39.078125 56.355469 35.988281 56.355469 34.082031 54.449219 C 32.171875 52.539062 32.171875 49.445312 34.082031 47.539062 C 34.542969 47.078125 35.074219 46.722656 35.679688 46.472656 L 35.679688 28.96875 C 35.074219 28.722656 34.542969 28.367188 34.082031 27.902344 C 32.636719 26.460938 32.289062 24.339844 33.027344 22.5625 L 25.800781 15.335938 L 6.714844 34.417969 C 5.113281 36.023438 5.113281 38.621094 6.714844 40.226562 L 34.550781 68.058594 C 36.152344 69.664062 38.75 69.664062 40.355469 68.058594 L 68.058594 40.355469 C 69.664062 38.75 69.664062 36.148438 68.058594 34.546875 " fill-opacity="1" fill-rule="nonzero"/></g></svg>