<svg xmlns="http://www.w3.org/2000/svg" xmlns:xlink="http://www.w3.org/1999/xlink" width="100" zoomAndPan="magnify" viewBox="0 0 75 74.999997" height="100" preserveAspectRatio="xMidYMid meet" version="1.0"><defs><clipPath id="95e19d27fc"><path d="M 5.203125 5.164062 L 69 5.164062 L 69 69.664062 L 5.203125 69.664062 Z M 5.203125 5.164062 " clip-rule="nonzero"/></clipPath><clipPath id="9c87d9a14a"><path d="M 5.203125 5.164062 L 69.703125 5.164062 L 69.703125 69 L 5.203125 69 Z M 5.203125 5.164062 " clip-rule="nonzero"/></clipPath></defs><g clip-path="url(#95e19d27fc)"><path fill="#ffffff" d="M 68.992188 37.414062 C 68.992188 38.46875 68.941406 39.523438 68.839844 40.574219 C 68.738281 41.625 68.585938 42.667969 68.382812 43.707031 C 68.183594 44.742188 67.933594 45.765625 67.632812 46.777344 C 67.332031 47.785156 66.984375 48.78125 66.589844 49.753906 C 66.195312 50.730469 65.753906 51.683594 65.265625 52.617188 C 64.78125 53.546875 64.25 54.453125 63.675781 55.332031 C 63.101562 56.210938 62.488281 57.058594 61.832031 57.875 C 61.175781 58.691406 60.484375 59.472656 59.753906 60.21875 C 59.023438 60.964844 58.257812 61.671875 57.460938 62.34375 C 56.664062 63.011719 55.832031 63.640625 54.976562 64.230469 C 54.117188 64.816406 53.230469 65.359375 52.320312 65.855469 C 51.410156 66.355469 50.476562 66.804688 49.523438 67.210938 C 48.570312 67.613281 47.597656 67.96875 46.609375 68.273438 C 45.621094 68.582031 44.621094 68.839844 43.605469 69.042969 C 42.59375 69.25 41.574219 69.40625 40.546875 69.507812 C 39.515625 69.613281 38.488281 69.664062 37.453125 69.664062 C 36.421875 69.664062 35.390625 69.613281 34.363281 69.507812 C 33.335938 69.40625 32.316406 69.25 31.300781 69.042969 C 30.289062 68.839844 29.289062 68.582031 28.300781 68.273438 C 27.3125 67.96875 26.339844 67.613281 25.386719 67.210938 C 24.429688 66.804688 23.5 66.355469 22.589844 65.855469 C 21.675781 65.359375 20.792969 64.816406 19.933594 64.230469 C 19.074219 63.640625 18.246094 63.011719 17.449219 62.34375 C 16.648438 61.671875 15.886719 60.964844 15.15625 60.21875 C 14.425781 59.472656 13.730469 58.691406 13.078125 57.875 C 12.421875 57.058594 11.804688 56.210938 11.234375 55.332031 C 10.660156 54.453125 10.128906 53.546875 9.640625 52.617188 C 9.15625 51.683594 8.714844 50.730469 8.320312 49.753906 C 7.921875 48.78125 7.574219 47.785156 7.277344 46.777344 C 6.976562 45.765625 6.726562 44.742188 6.523438 43.707031 C 6.324219 42.667969 6.171875 41.625 6.070312 40.574219 C 5.96875 39.523438 5.917969 38.46875 5.917969 37.414062 C 5.917969 36.359375 5.96875 35.304688 6.070312 34.253906 C 6.171875 33.203125 6.324219 32.160156 6.523438 31.121094 C 6.726562 30.085938 6.976562 29.0625 7.277344 28.050781 C 7.574219 27.042969 7.921875 26.046875 8.320312 25.074219 C 8.714844 24.097656 9.15625 23.144531 9.640625 22.210938 C 10.128906 21.28125 10.660156 20.375 11.234375 19.496094 C 11.804688 18.617188 12.421875 17.769531 13.078125 16.953125 C 13.730469 16.136719 14.425781 15.355469 15.15625 14.609375 C 15.886719 13.863281 16.648438 13.15625 17.449219 12.484375 C 18.246094 11.816406 19.074219 11.1875 19.933594 10.597656 C 20.792969 10.011719 21.675781 9.46875 22.589844 8.972656 C 23.5 8.472656 24.429688 8.023438 25.386719 7.617188 C 26.339844 7.214844 27.3125 6.859375 28.300781 6.554688 C 29.289062 6.246094 30.289062 5.988281 31.300781 5.785156 C 32.316406 5.578125 33.335938 5.421875 34.363281 5.320312 C 35.390625 5.214844 36.421875 5.164062 37.453125 5.164062 C 38.488281 5.164062 39.515625 5.214844 40.546875 5.320312 C 41.574219 5.421875 42.59375 5.578125 43.605469 5.785156 C 44.621094 5.988281 45.621094 6.246094 46.609375 6.554688 C 47.597656 6.859375 48.570312 7.214844 49.523438 7.617188 C 50.476562 8.023438 51.410156 8.472656 52.320312 8.972656 C 53.230469 9.46875 54.117188 10.011719 54.976562 10.597656 C 55.832031 11.1875 56.664062 11.816406 57.460938 12.484375 C 58.257812 13.15625 59.023438 13.863281 59.753906 14.609375 C 60.484375 15.355469 61.175781 16.136719 61.832031 16.953125 C 62.488281 17.769531 63.101562 18.617188 63.675781 19.496094 C 64.25 20.375 64.78125 21.28125 65.265625 22.210938 C 65.753906 23.144531 66.195312 24.097656 66.589844 25.074219 C 66.984375 26.046875 67.332031 27.042969 67.632812 28.050781 C 67.933594 29.0625 68.183594 30.085938 68.382812 31.121094 C 68.585938 32.160156 68.738281 33.203125 68.839844 34.253906 C 68.941406 35.304688 68.992188 36.359375 68.992188 37.414062 Z M 68.992188 37.414062 " fill-opacity="1" fill-rule="nonzero"/></g><g clip-path="url(#9c87d9a14a)"><path fill="#5c6bc0" d="M 37.453125 5.285156 C 19.644531 5.285156 5.203125 19.707031 5.203125 37.5 C 5.203125 51.734375 14.445312 63.808594 27.257812 68.066406 C 28.867188 68.363281 29.460938 67.367188 29.460938 66.519531 C 29.460938 65.75 29.429688 63.210938 29.417969 60.519531 C 20.445312 62.46875 18.550781 56.71875 18.550781 56.71875 C 17.085938 52.996094 14.96875 52.007812 14.96875 52.007812 C 12.042969 50.007812 15.191406 50.046875 15.191406 50.046875 C 18.429688 50.273438 20.132812 53.367188 20.132812 53.367188 C 23.011719 58.292969 27.679688 56.867188 29.519531 56.042969 C 29.808594 53.960938 30.640625 52.542969 31.566406 51.738281 C 24.402344 50.921875 16.875 48.160156 16.875 35.816406 C 16.875 32.300781 18.132812 29.425781 20.195312 27.167969 C 19.863281 26.359375 18.757812 23.082031 20.511719 18.644531 C 20.511719 18.644531 23.21875 17.78125 29.382812 21.949219 C 31.953125 21.234375 34.710938 20.875 37.453125 20.863281 C 40.195312 20.875 42.957031 21.234375 45.53125 21.949219 C 51.6875 17.78125 54.394531 18.644531 54.394531 18.644531 C 56.148438 23.082031 55.042969 26.363281 54.710938 27.171875 C 56.777344 29.425781 58.027344 32.300781 58.027344 35.816406 C 58.027344 48.191406 50.480469 50.917969 43.300781 51.714844 C 44.457031 52.710938 45.488281 54.671875 45.488281 57.679688 C 45.488281 61.988281 45.453125 65.460938 45.453125 66.519531 C 45.453125 67.375 46.03125 68.382812 47.667969 68.066406 C 60.476562 63.800781 69.703125 51.730469 69.703125 37.5 C 69.703125 19.707031 55.261719 5.285156 37.453125 5.285156 " fill-opacity="1" fill-rule="nonzero"/></g></svg>