<svg xmlns="http://www.w3.org/2000/svg" xmlns:xlink="http://www.w3.org/1999/xlink" width="100" zoomAndPan="magnify" viewBox="0 0 75 74.999997" height="100" preserveAspectRatio="xMidYMid meet" version="1.0"><defs><clipPath id="b31fb60090"><path d="M 7 18.074219 L 68 18.074219 L 68 39 L 7 39 Z M 7 18.074219 " clip-rule="nonzero"/></clipPath><clipPath id="4671c58ccd"><path d="M 4.582031 43 L 65 43 L 65 57 L 4.582031 57 Z M 4.582031 43 " clip-rule="nonzero"/></clipPath></defs><g clip-path="url(#b31fb60090)"><path fill="#ffffff" d="M 23.257812 32.1875 C 23.257812 32.984375 23.34375 33.632812 23.496094 34.109375 C 23.667969 34.582031 23.882812 35.101562 24.1875 35.664062 C 24.292969 35.835938 24.335938 36.007812 24.335938 36.160156 C 24.335938 36.375 24.207031 36.589844 23.925781 36.808594 L 22.566406 37.714844 C 22.371094 37.84375 22.179688 37.90625 22.003906 37.90625 C 21.789062 37.90625 21.574219 37.800781 21.359375 37.605469 C 21.054688 37.28125 20.796875 36.9375 20.582031 36.589844 C 20.363281 36.222656 20.148438 35.8125 19.910156 35.316406 C 18.226562 37.304688 16.113281 38.296875 13.5625 38.296875 C 11.75 38.296875 10.304688 37.777344 9.246094 36.742188 C 8.1875 35.707031 7.648438 34.324219 7.648438 32.597656 C 7.648438 30.761719 8.296875 29.273438 9.613281 28.148438 C 10.929688 27.027344 12.679688 26.464844 14.902344 26.464844 C 15.636719 26.464844 16.390625 26.53125 17.191406 26.636719 C 17.988281 26.746094 18.808594 26.917969 19.675781 27.113281 L 19.675781 25.539062 C 19.675781 23.898438 19.328125 22.753906 18.660156 22.082031 C 17.96875 21.414062 16.800781 21.089844 15.140625 21.089844 C 14.382812 21.089844 13.609375 21.175781 12.808594 21.371094 C 12.011719 21.566406 11.234375 21.800781 10.476562 22.105469 C 10.132812 22.257812 9.871094 22.34375 9.722656 22.386719 C 9.570312 22.429688 9.460938 22.449219 9.375 22.449219 C 9.074219 22.449219 8.921875 22.234375 8.921875 21.78125 L 8.921875 20.722656 C 8.921875 20.378906 8.964844 20.117188 9.074219 19.96875 C 9.183594 19.816406 9.375 19.664062 9.679688 19.515625 C 10.433594 19.125 11.339844 18.800781 12.398438 18.542969 C 13.457031 18.261719 14.578125 18.132812 15.765625 18.132812 C 18.335938 18.132812 20.214844 18.714844 21.421875 19.882812 C 22.609375 21.046875 23.214844 22.816406 23.214844 25.191406 L 23.214844 32.1875 Z M 14.492188 35.46875 C 15.203125 35.46875 15.9375 35.339844 16.714844 35.078125 C 17.492188 34.820312 18.183594 34.34375 18.765625 33.699219 C 19.113281 33.289062 19.371094 32.835938 19.5 32.316406 C 19.628906 31.796875 19.71875 31.171875 19.71875 30.4375 L 19.71875 29.53125 C 19.089844 29.378906 18.421875 29.25 17.730469 29.164062 C 17.039062 29.078125 16.371094 29.035156 15.703125 29.035156 C 14.253906 29.035156 13.195312 29.316406 12.484375 29.898438 C 11.773438 30.480469 11.425781 31.300781 11.425781 32.382812 C 11.425781 33.394531 11.6875 34.152344 12.226562 34.667969 C 12.742188 35.210938 13.5 35.46875 14.492188 35.46875 Z M 31.828125 37.800781 C 31.441406 37.800781 31.179688 37.734375 31.007812 37.582031 C 30.835938 37.453125 30.683594 37.152344 30.554688 36.742188 L 25.480469 20.054688 C 25.351562 19.621094 25.285156 19.339844 25.285156 19.191406 C 25.285156 18.84375 25.460938 18.652344 25.804688 18.652344 L 27.921875 18.652344 C 28.332031 18.652344 28.613281 18.714844 28.761719 18.867188 C 28.933594 18.996094 29.066406 19.296875 29.195312 19.707031 L 32.820312 34 L 36.1875 19.707031 C 36.296875 19.277344 36.425781 18.996094 36.597656 18.867188 C 36.773438 18.738281 37.074219 18.652344 37.464844 18.652344 L 39.191406 18.652344 C 39.601562 18.652344 39.882812 18.714844 40.054688 18.867188 C 40.226562 18.996094 40.378906 19.296875 40.464844 19.707031 L 43.875 34.171875 L 47.609375 19.707031 C 47.738281 19.277344 47.890625 18.996094 48.042969 18.867188 C 48.214844 18.738281 48.496094 18.652344 48.882812 18.652344 L 50.890625 18.652344 C 51.238281 18.652344 51.429688 18.824219 51.429688 19.191406 C 51.429688 19.296875 51.410156 19.40625 51.386719 19.535156 C 51.367188 19.664062 51.324219 19.839844 51.238281 20.074219 L 46.035156 36.761719 C 45.902344 37.195312 45.753906 37.476562 45.582031 37.605469 C 45.40625 37.734375 45.128906 37.820312 44.761719 37.820312 L 42.902344 37.820312 C 42.492188 37.820312 42.210938 37.757812 42.039062 37.605469 C 41.867188 37.453125 41.714844 37.171875 41.628906 36.742188 L 38.285156 22.816406 L 34.957031 36.71875 C 34.851562 37.152344 34.722656 37.433594 34.546875 37.582031 C 34.375 37.734375 34.074219 37.800781 33.683594 37.800781 Z M 59.570312 38.382812 C 58.449219 38.382812 57.324219 38.253906 56.246094 37.992188 C 55.164062 37.734375 54.324219 37.453125 53.761719 37.128906 C 53.417969 36.9375 53.179688 36.71875 53.09375 36.527344 C 53.007812 36.332031 52.964844 36.117188 52.964844 35.921875 L 52.964844 34.820312 C 52.964844 34.367188 53.136719 34.152344 53.460938 34.152344 C 53.589844 34.152344 53.71875 34.171875 53.847656 34.214844 C 53.976562 34.257812 54.171875 34.34375 54.386719 34.433594 C 55.121094 34.753906 55.921875 35.015625 56.761719 35.1875 C 57.628906 35.359375 58.46875 35.445312 59.332031 35.445312 C 60.691406 35.445312 61.75 35.210938 62.484375 34.734375 C 63.21875 34.257812 63.605469 33.570312 63.605469 32.683594 C 63.605469 32.078125 63.414062 31.582031 63.023438 31.171875 C 62.636719 30.761719 61.902344 30.394531 60.84375 30.050781 L 57.714844 29.078125 C 56.136719 28.582031 54.972656 27.847656 54.257812 26.875 C 53.546875 25.925781 53.179688 24.867188 53.179688 23.746094 C 53.179688 22.839844 53.375 22.039062 53.761719 21.347656 C 54.152344 20.660156 54.667969 20.054688 55.316406 19.578125 C 55.964844 19.082031 56.699219 18.714844 57.5625 18.457031 C 58.425781 18.195312 59.332031 18.089844 60.28125 18.089844 C 60.757812 18.089844 61.253906 18.109375 61.730469 18.175781 C 62.226562 18.242188 62.679688 18.328125 63.132812 18.414062 C 63.5625 18.519531 63.972656 18.628906 64.363281 18.757812 C 64.75 18.886719 65.054688 19.019531 65.269531 19.148438 C 65.570312 19.320312 65.789062 19.492188 65.917969 19.6875 C 66.046875 19.859375 66.113281 20.097656 66.113281 20.398438 L 66.113281 21.414062 C 66.113281 21.867188 65.9375 22.105469 65.613281 22.105469 C 65.441406 22.105469 65.160156 22.019531 64.792969 21.847656 C 63.5625 21.285156 62.183594 21.003906 60.648438 21.003906 C 59.417969 21.003906 58.449219 21.199219 57.777344 21.609375 C 57.109375 22.019531 56.761719 22.644531 56.761719 23.53125 C 56.761719 24.132812 56.980469 24.652344 57.410156 25.0625 C 57.84375 25.472656 58.640625 25.882812 59.785156 26.25 L 62.851562 27.222656 C 64.40625 27.71875 65.527344 28.410156 66.199219 29.292969 C 66.867188 30.179688 67.191406 31.195312 67.191406 32.316406 C 67.191406 33.246094 66.996094 34.085938 66.628906 34.820312 C 66.242188 35.554688 65.722656 36.203125 65.054688 36.71875 C 64.382812 37.261719 63.585938 37.648438 62.65625 37.929688 C 61.6875 38.230469 60.671875 38.382812 59.570312 38.382812 Z M 59.570312 38.382812 " fill-opacity="1" fill-rule="nonzero"/></g><g clip-path="url(#4671c58ccd)"><path fill="#ff9900" d="M 63.648438 48.875 C 56.546875 54.121094 46.226562 56.90625 37.355469 56.90625 C 24.921875 56.90625 13.714844 52.308594 5.253906 44.664062 C 4.582031 44.0625 5.1875 43.238281 5.988281 43.714844 C 15.140625 49.027344 26.429688 52.242188 38.109375 52.242188 C 45.992188 52.242188 54.648438 50.601562 62.613281 47.234375 C 63.800781 46.695312 64.816406 48.011719 63.648438 48.875 Z M 63.648438 48.875 " fill-opacity="1" fill-rule="evenodd"/></g><path fill="#ff9900" d="M 66.609375 45.507812 C 65.703125 44.339844 60.605469 44.945312 58.296875 45.226562 C 57.605469 45.3125 57.496094 44.707031 58.125 44.253906 C 62.183594 41.40625 68.851562 42.226562 69.628906 43.175781 C 70.40625 44.148438 69.414062 50.816406 65.613281 54.011719 C 65.03125 54.507812 64.46875 54.25 64.730469 53.601562 C 65.59375 51.464844 67.515625 46.652344 66.609375 45.507812 Z M 66.609375 45.507812 " fill-opacity="1" fill-rule="evenodd"/></svg>