<svg xmlns="http://www.w3.org/2000/svg" xmlns:xlink="http://www.w3.org/1999/xlink" width="100" zoomAndPan="magnify" viewBox="0 0 75 74.999997" height="100" preserveAspectRatio="xMidYMid meet" version="1.0"><defs><clipPath id="50312c97df"><path d="M 5.75 23 L 69.5 23 L 69.5 60.023438 L 5.75 60.023438 Z M 5.75 23 " clip-rule="nonzero"/></clipPath><clipPath id="1014fb8f5c"><path d="M 11 15.023438 L 50 15.023438 L 50 36 L 11 36 Z M 11 15.023438 " clip-rule="nonzero"/></clipPath></defs><g clip-path="url(#50312c97df)"><path fill="#0091e2" d="M 68.878906 32.042969 C 68.703125 31.898438 67.105469 30.703125 63.679688 30.703125 C 62.792969 30.703125 61.878906 30.792969 60.992188 30.9375 C 60.339844 26.488281 56.589844 24.335938 56.441406 24.21875 L 55.527344 23.695312 L 54.933594 24.539062 C 54.195312 25.671875 53.636719 26.953125 53.308594 28.261719 C 52.691406 30.792969 53.074219 33.175781 54.375 35.210938 C 52.808594 36.085938 50.269531 36.289062 49.734375 36.316406 L 7.789062 36.316406 C 6.695312 36.316406 5.808594 37.191406 5.808594 38.265625 C 5.75 41.875 6.371094 45.480469 7.640625 48.882812 C 9.085938 52.605469 11.242188 55.371094 14.019531 57.054688 C 17.152344 58.945312 22.261719 60.023438 28.023438 60.023438 C 30.621094 60.023438 33.222656 59.789062 35.792969 59.324219 C 39.367188 58.683594 42.792969 57.464844 45.953125 55.691406 C 48.5625 54.203125 50.867188 52.339844 52.867188 50.105469 C 56.207031 46.410156 58.183594 42.28125 59.632812 38.617188 L 60.222656 38.617188 C 63.855469 38.617188 66.101562 37.191406 67.34375 35.96875 C 68.167969 35.210938 68.789062 34.28125 69.234375 33.234375 L 69.5 32.480469 Z M 68.878906 32.042969 " fill-opacity="1" fill-rule="nonzero"/></g><g clip-path="url(#1014fb8f5c)"><path fill="#0091e2" d="M 11.6875 35.125 L 17.300781 35.125 C 17.566406 35.125 17.800781 34.921875 17.800781 34.632812 L 17.800781 29.6875 C 17.800781 29.425781 17.59375 29.191406 17.300781 29.191406 L 11.6875 29.191406 C 11.421875 29.191406 11.183594 29.394531 11.183594 29.6875 L 11.183594 34.632812 C 11.214844 34.921875 11.421875 35.125 11.6875 35.125 Z M 19.425781 35.125 L 25.039062 35.125 C 25.304688 35.125 25.542969 34.921875 25.542969 34.632812 L 25.542969 29.6875 C 25.542969 29.425781 25.335938 29.191406 25.039062 29.191406 L 19.425781 29.191406 C 19.160156 29.191406 18.925781 29.394531 18.925781 29.6875 L 18.925781 34.632812 C 18.953125 34.921875 19.160156 35.125 19.425781 35.125 M 27.3125 35.125 L 32.925781 35.125 C 33.191406 35.125 33.429688 34.921875 33.429688 34.632812 L 33.429688 29.6875 C 33.429688 29.425781 33.222656 29.191406 32.925781 29.191406 L 27.3125 29.191406 C 27.046875 29.191406 26.8125 29.394531 26.8125 29.6875 L 26.8125 34.632812 C 26.8125 34.921875 27.019531 35.125 27.3125 35.125 Z M 35.082031 35.125 L 40.695312 35.125 C 40.960938 35.125 41.199219 34.921875 41.199219 34.632812 L 41.199219 29.6875 C 41.199219 29.425781 40.992188 29.191406 40.695312 29.191406 L 35.082031 29.191406 C 34.816406 29.191406 34.582031 29.394531 34.582031 29.6875 L 34.582031 34.632812 C 34.582031 34.921875 34.816406 35.125 35.082031 35.125 Z M 19.425781 28.058594 L 25.039062 28.058594 C 25.304688 28.058594 25.542969 27.824219 25.542969 27.5625 L 25.542969 22.617188 C 25.542969 22.355469 25.335938 22.125 25.039062 22.125 L 19.425781 22.125 C 19.160156 22.125 18.925781 22.328125 18.925781 22.617188 L 18.925781 27.5625 C 18.953125 27.824219 19.160156 28.058594 19.425781 28.058594 M 27.3125 28.058594 L 32.925781 28.058594 C 33.191406 28.058594 33.429688 27.824219 33.429688 27.5625 L 33.429688 22.617188 C 33.429688 22.355469 33.222656 22.125 32.925781 22.125 L 27.3125 22.125 C 27.046875 22.125 26.8125 22.328125 26.8125 22.617188 L 26.8125 27.5625 C 26.8125 27.824219 27.019531 28.058594 27.3125 28.058594 M 35.082031 28.058594 L 40.695312 28.058594 C 40.960938 28.058594 41.199219 27.824219 41.199219 27.5625 L 41.199219 22.617188 C 41.199219 22.355469 40.960938 22.125 40.695312 22.125 L 35.082031 22.125 C 34.816406 22.125 34.582031 22.328125 34.582031 22.617188 L 34.582031 27.5625 C 34.582031 27.824219 34.816406 28.058594 35.082031 28.058594 M 35.082031 20.960938 L 40.695312 20.960938 C 40.960938 20.960938 41.199219 20.757812 41.199219 20.464844 L 41.199219 15.519531 C 41.199219 15.257812 40.960938 15.027344 40.695312 15.027344 L 35.082031 15.027344 C 34.816406 15.027344 34.582031 15.230469 34.582031 15.519531 L 34.582031 20.464844 C 34.582031 20.726562 34.816406 20.960938 35.082031 20.960938 M 42.910156 35.125 L 48.523438 35.125 C 48.789062 35.125 49.027344 34.921875 49.027344 34.632812 L 49.027344 29.6875 C 49.027344 29.425781 48.820312 29.191406 48.523438 29.191406 L 42.910156 29.191406 C 42.644531 29.191406 42.410156 29.394531 42.410156 29.6875 L 42.410156 34.632812 C 42.4375 34.921875 42.644531 35.125 42.910156 35.125 " fill-opacity="1" fill-rule="nonzero"/></g></svg>