<svg xmlns="http://www.w3.org/2000/svg" xmlns:xlink="http://www.w3.org/1999/xlink" width="100" zoomAndPan="magnify" viewBox="0 0 75 74.999997" height="100" preserveAspectRatio="xMidYMid meet" version="1.0"><path fill="#0277bd" d="M 63.945312 8.257812 L 11.351562 8.257812 L 15.992188 60.851562 L 37.648438 67.039062 L 59.304688 60.851562 Z M 63.945312 8.257812 " fill-opacity="1" fill-rule="nonzero"/><path fill="#039be5" d="M 37.648438 12.898438 L 37.648438 62.246094 L 54.976562 57.296875 L 58.84375 12.898438 Z M 37.648438 12.898438 " fill-opacity="1" fill-rule="nonzero"/><path fill="#ffffff" d="M 51.726562 20.632812 L 37.648438 20.632812 L 37.648438 26.820312 L 45.230469 26.820312 L 44.765625 33.007812 L 37.648438 33.007812 L 37.648438 39.195312 L 44.457031 39.195312 L 43.992188 46.15625 L 37.648438 48.324219 L 37.648438 54.820312 L 49.871094 50.796875 L 50.953125 33.007812 Z M 51.726562 20.632812 " fill-opacity="1" fill-rule="nonzero"/><path fill="#eeeeee" d="M 37.648438 20.632812 L 37.648438 26.820312 L 23.882812 26.820312 L 23.417969 20.632812 Z M 30.535156 33.007812 L 30.84375 39.195312 L 37.648438 39.195312 L 37.648438 33.007812 Z M 31.152344 42.289062 L 24.964844 42.289062 L 25.429688 50.796875 L 37.648438 54.820312 L 37.648438 48.324219 L 31.308594 46.15625 Z M 31.152344 42.289062 " fill-opacity="1" fill-rule="nonzero"/></svg>