<svg xmlns="http://www.w3.org/2000/svg" xmlns:xlink="http://www.w3.org/1999/xlink" width="100" zoomAndPan="magnify" viewBox="0 0 75 74.999997" height="100" preserveAspectRatio="xMidYMid meet" version="1.0"><defs><clipPath id="ac7bdce7c8"><path d="M 10.085938 5 L 64.835938 5 L 64.835938 67.183594 L 10.085938 67.183594 Z M 10.085938 5 " clip-rule="nonzero"/></clipPath></defs><g clip-path="url(#ac7bdce7c8)"><path fill="#e44d26" d="M 15.054688 60.820312 L 10.070312 5.113281 L 64.851562 5.113281 L 59.859375 60.8125 L 37.425781 67.003906 Z M 15.054688 60.820312 " fill-opacity="1" fill-rule="nonzero"/></g><path fill="#f16529" d="M 55.585938 57.265625 L 59.851562 9.667969 L 37.460938 9.667969 L 37.460938 62.273438 Z M 55.585938 57.265625 " fill-opacity="1" fill-rule="nonzero"/><path fill="#ebebeb" d="M 37.4375 16.5 L 20.261719 16.5 L 22.113281 37.160156 L 37.460938 37.160156 L 37.460938 30.328125 L 28.386719 30.328125 L 27.757812 23.332031 L 37.460938 23.332031 L 37.460938 16.5 Z M 37.460938 48.050781 L 37.429688 48.058594 L 29.792969 46.003906 L 29.308594 40.554688 L 22.417969 40.554688 L 23.378906 51.28125 L 37.429688 55.152344 L 37.460938 55.140625 Z M 37.460938 48.050781 " fill-opacity="1" fill-rule="nonzero"/><path fill="#ffffff" d="M 37.4375 37.160156 L 45.882812 37.160156 L 45.105469 46.019531 L 37.457031 48.074219 L 37.457031 55.183594 L 51.515625 51.300781 L 53.398438 30.324219 L 37.460938 30.324219 Z M 54.453125 18.332031 L 54.613281 16.5 L 37.433594 16.5 L 37.433594 23.332031 L 53.996094 23.332031 L 54.132812 21.796875 Z M 54.453125 18.332031 " fill-opacity="1" fill-rule="nonzero"/></svg>