<svg xmlns="http://www.w3.org/2000/svg" xmlns:xlink="http://www.w3.org/1999/xlink" width="100" zoomAndPan="magnify" viewBox="0 0 75 74.999997" height="100" preserveAspectRatio="xMidYMid meet" version="1.0"><defs><clipPath id="6618e12cff"><path d="M 7.5 7.5 L 67.5 7.5 L 67.5 67.5 L 7.5 67.5 Z M 7.5 7.5 " clip-rule="nonzero"/></clipPath></defs><g clip-path="url(#6618e12cff)"><path fill="#f0db4f" d="M 7.5 7.5 L 67.5 7.5 L 67.5 67.5 L 7.5 67.5 Z M 7.5 7.5 " fill-opacity="1" fill-rule="nonzero"/></g><path fill="#323330" d="M 62.589844 53.191406 C 62.148438 50.453125 60.363281 48.152344 55.078125 46.007812 C 53.242188 45.164062 51.195312 44.5625 50.582031 43.167969 C 50.367188 42.359375 50.339844 41.902344 50.476562 41.414062 C 50.867188 39.820312 52.769531 39.324219 54.273438 39.78125 C 55.242188 40.105469 56.160156 40.855469 56.714844 42.046875 C 59.304688 40.367188 59.296875 40.378906 61.105469 39.226562 C 60.445312 38.203125 60.089844 37.726562 59.65625 37.289062 C 58.101562 35.550781 55.980469 34.652344 52.585938 34.722656 C 52 34.796875 51.40625 34.875 50.816406 34.949219 C 49.125 35.378906 47.507812 36.269531 46.5625 37.460938 C 43.722656 40.683594 44.53125 46.324219 47.988281 48.644531 C 51.394531 51.199219 56.394531 51.78125 57.035156 54.171875 C 57.65625 57.097656 54.882812 58.042969 52.128906 57.707031 C 50.097656 57.285156 48.96875 56.253906 47.75 54.375 C 45.503906 55.675781 45.503906 55.675781 43.191406 57.003906 C 43.738281 58.203125 44.316406 58.746094 45.234375 59.785156 C 49.578125 64.191406 60.457031 63.976562 62.40625 57.300781 C 62.488281 57.074219 63.011719 55.546875 62.589844 53.191406 Z M 40.117188 35.074219 L 34.503906 35.074219 C 34.503906 39.925781 34.484375 44.738281 34.484375 49.585938 C 34.484375 52.671875 34.644531 55.5 34.140625 56.367188 C 33.320312 58.070312 31.191406 57.859375 30.222656 57.53125 C 29.234375 57.046875 28.734375 56.355469 28.152344 55.378906 C 27.992188 55.101562 27.871094 54.882812 27.832031 54.867188 C 26.308594 55.796875 24.792969 56.730469 23.269531 57.660156 C 24.027344 59.21875 25.144531 60.570312 26.578125 61.449219 C 28.714844 62.730469 31.589844 63.125 34.597656 62.433594 C 36.554688 61.863281 38.242188 60.683594 39.125 58.886719 C 40.402344 56.53125 40.128906 53.679688 40.117188 50.527344 C 40.144531 45.382812 40.117188 40.238281 40.117188 35.074219 Z M 40.117188 35.074219 " fill-opacity="1" fill-rule="nonzero"/></svg>