<svg xmlns="http://www.w3.org/2000/svg" xmlns:xlink="http://www.w3.org/1999/xlink" width="100" zoomAndPan="magnify" viewBox="0 0 75 74.999997" height="100" preserveAspectRatio="xMidYMid meet" version="1.0"><defs><clipPath id="ec8060ee9e"><path d="M 5.175781 11 L 69.675781 11 L 69.675781 64 L 5.175781 64 Z M 5.175781 11 " clip-rule="nonzero"/></clipPath></defs><g clip-path="url(#ec8060ee9e)"><path fill="#007fff" d="M 5.175781 11.839844 L 5.175781 39.824219 L 13.253906 44.492188 L 13.253906 25.832031 L 29.414062 35.164062 L 45.574219 25.832031 L 45.574219 35.164062 L 29.414062 44.492188 L 29.414062 53.824219 L 45.574219 63.148438 L 69.816406 49.15625 L 69.816406 30.496094 L 61.734375 35.164062 L 61.734375 44.492188 L 45.574219 53.824219 L 37.496094 49.15625 L 53.65625 39.824219 L 53.65625 11.839844 L 29.414062 25.832031 Z M 69.816406 11.839844 L 61.734375 16.5 L 61.734375 25.832031 L 69.816406 21.167969 Z M 69.816406 11.839844 " fill-opacity="1" fill-rule="nonzero"/></g></svg>