<svg xmlns="http://www.w3.org/2000/svg" xmlns:xlink="http://www.w3.org/1999/xlink" width="100" zoomAndPan="magnify" viewBox="0 0 75 74.999997" height="100" preserveAspectRatio="xMidYMid meet" version="1.0"><defs><clipPath id="d8aaeb72f6"><path d="M 4.722656 8.359375 L 69.972656 8.359375 L 69.972656 66.859375 L 4.722656 66.859375 Z M 4.722656 8.359375 " clip-rule="nonzero"/></clipPath></defs><g clip-path="url(#d8aaeb72f6)"><path fill="#61dafb" d="M 69.921875 37.617188 C 69.921875 33.265625 64.519531 29.140625 56.230469 26.582031 C 58.144531 18.066406 57.292969 11.292969 53.550781 9.121094 C 52.6875 8.613281 51.675781 8.371094 50.574219 8.371094 L 50.574219 11.359375 C 51.1875 11.359375 51.675781 11.480469 52.089844 11.707031 C 53.894531 12.75 54.679688 16.726562 54.066406 21.84375 C 53.921875 23.101562 53.683594 24.425781 53.390625 25.78125 C 50.789062 25.136719 47.945312 24.640625 44.957031 24.320312 C 43.164062 21.84375 41.304688 19.59375 39.433594 17.625 C 43.761719 13.566406 47.828125 11.34375 50.589844 11.34375 L 50.589844 8.359375 C 46.9375 8.359375 42.15625 10.984375 37.324219 15.535156 C 32.488281 11.011719 27.707031 8.414062 24.058594 8.414062 L 24.058594 11.398438 C 26.804688 11.398438 30.882812 13.609375 35.210938 17.636719 C 33.351562 19.605469 31.492188 21.84375 29.726562 24.320312 C 26.726562 24.640625 23.882812 25.136719 21.28125 25.792969 C 20.976562 24.453125 20.75 23.15625 20.589844 21.910156 C 19.96875 16.796875 20.738281 12.816406 22.53125 11.761719 C 22.929688 11.519531 23.445312 11.414062 24.058594 11.414062 L 24.058594 8.425781 C 22.941406 8.425781 21.933594 8.667969 21.054688 9.175781 C 17.324219 11.34375 16.488281 18.105469 18.414062 26.597656 C 10.152344 29.167969 4.773438 33.277344 4.773438 37.617188 C 4.773438 41.96875 10.179688 46.09375 18.464844 48.648438 C 16.554688 57.164062 17.402344 63.941406 21.148438 66.109375 C 22.011719 66.617188 23.019531 66.859375 24.136719 66.859375 C 27.789062 66.859375 32.570312 64.234375 37.402344 59.683594 C 42.234375 64.207031 47.015625 66.804688 50.667969 66.804688 C 51.785156 66.804688 52.792969 66.566406 53.667969 66.054688 C 57.402344 63.886719 58.238281 57.125 56.3125 48.636719 C 64.546875 46.078125 69.921875 41.953125 69.921875 37.617188 Z M 52.632812 28.683594 C 52.140625 30.414062 51.53125 32.191406 50.839844 33.972656 C 50.296875 32.902344 49.726562 31.832031 49.101562 30.761719 C 48.492188 29.6875 47.839844 28.644531 47.1875 27.628906 C 49.074219 27.910156 50.894531 28.257812 52.632812 28.683594 Z M 46.550781 42.945312 C 45.515625 44.753906 44.453125 46.464844 43.351562 48.058594 C 41.371094 48.234375 39.367188 48.328125 37.347656 48.328125 C 35.34375 48.328125 33.339844 48.234375 31.375 48.074219 C 30.269531 46.480469 29.195312 44.78125 28.160156 42.984375 C 27.152344 41.230469 26.234375 39.449219 25.398438 37.65625 C 26.222656 35.863281 27.152344 34.066406 28.148438 32.3125 C 29.183594 30.507812 30.246094 28.792969 31.347656 27.199219 C 33.324219 27.023438 35.332031 26.929688 37.347656 26.929688 C 39.355469 26.929688 41.359375 27.023438 43.324219 27.183594 C 44.425781 28.777344 45.503906 30.480469 46.539062 32.273438 C 47.546875 34.027344 48.464844 35.808594 49.300781 37.601562 C 48.464844 39.398438 47.546875 41.191406 46.550781 42.945312 Z M 50.839844 41.203125 C 51.558594 43 52.167969 44.792969 52.671875 46.535156 C 50.933594 46.960938 49.101562 47.324219 47.203125 47.605469 C 47.851562 46.574219 48.503906 45.515625 49.113281 44.429688 C 49.726562 43.359375 50.296875 42.277344 50.839844 41.203125 Z M 37.375 55.492188 C 36.140625 54.207031 34.90625 52.773438 33.683594 51.207031 C 34.878906 51.261719 36.101562 51.300781 37.335938 51.300781 C 38.585938 51.300781 39.820312 51.273438 41.027344 51.207031 C 39.832031 52.773438 38.597656 54.207031 37.375 55.492188 Z M 27.496094 47.605469 C 25.609375 47.324219 23.792969 46.976562 22.050781 46.546875 C 22.542969 44.820312 23.152344 43.039062 23.84375 41.257812 C 24.390625 42.328125 24.960938 43.402344 25.582031 44.472656 C 26.207031 45.542969 26.84375 46.585938 27.496094 47.605469 Z M 37.308594 19.742188 C 38.542969 21.027344 39.78125 22.457031 41 24.027344 C 39.804688 23.972656 38.585938 23.933594 37.347656 23.933594 C 36.101562 23.933594 34.867188 23.957031 33.65625 24.027344 C 34.851562 22.457031 36.085938 21.027344 37.308594 19.742188 Z M 27.484375 27.628906 C 26.832031 28.660156 26.179688 29.714844 25.570312 30.800781 C 24.960938 31.871094 24.390625 32.941406 23.84375 34.015625 C 23.128906 32.21875 22.515625 30.425781 22.011719 28.683594 C 23.75 28.269531 25.582031 27.910156 27.484375 27.628906 Z M 15.464844 44.390625 C 10.765625 42.371094 7.722656 39.71875 7.722656 37.617188 C 7.722656 35.515625 10.765625 32.847656 15.464844 30.839844 C 16.605469 30.34375 17.855469 29.902344 19.144531 29.488281 C 19.902344 32.113281 20.894531 34.84375 22.132812 37.644531 C 20.910156 40.429688 19.925781 43.144531 19.183594 45.757812 C 17.867188 45.34375 16.621094 44.886719 15.464844 44.390625 Z M 22.609375 63.523438 C 20.804688 62.480469 20.019531 58.503906 20.628906 53.390625 C 20.777344 52.128906 21.015625 50.804688 21.308594 49.453125 C 23.910156 50.09375 26.753906 50.589844 29.742188 50.914062 C 31.53125 53.390625 33.390625 55.640625 35.265625 57.605469 C 30.933594 61.664062 26.871094 63.886719 24.109375 63.886719 C 23.511719 63.875 23.007812 63.753906 22.609375 63.523438 Z M 54.109375 53.324219 C 54.730469 58.4375 53.960938 62.414062 52.167969 63.472656 C 51.769531 63.710938 51.253906 63.820312 50.640625 63.820312 C 47.894531 63.820312 43.816406 61.609375 39.488281 57.582031 C 41.347656 55.613281 43.207031 53.375 44.972656 50.898438 C 47.972656 50.578125 50.8125 50.082031 53.417969 49.425781 C 53.722656 50.777344 53.960938 52.078125 54.109375 53.324219 Z M 59.21875 44.390625 C 58.078125 44.886719 56.828125 45.328125 55.542969 45.742188 C 54.785156 43.121094 53.789062 40.386719 52.554688 37.589844 C 53.777344 34.804688 54.757812 32.085938 55.5 29.476562 C 56.816406 29.890625 58.066406 30.34375 59.234375 30.839844 C 63.933594 32.863281 66.976562 35.515625 66.976562 37.617188 C 66.960938 39.71875 63.921875 42.382812 59.21875 44.390625 Z M 59.21875 44.390625 " fill-opacity="1" fill-rule="nonzero"/></g><path fill="#61dafb" d="M 43.40625 37.617188 C 43.40625 38.019531 43.367188 38.414062 43.289062 38.808594 C 43.210938 39.203125 43.09375 39.585938 42.941406 39.957031 C 42.789062 40.328125 42.601562 40.679688 42.382812 41.015625 C 42.160156 41.351562 41.910156 41.660156 41.628906 41.941406 C 41.34375 42.226562 41.039062 42.480469 40.707031 42.703125 C 40.375 42.925781 40.027344 43.117188 39.660156 43.269531 C 39.289062 43.421875 38.910156 43.539062 38.519531 43.617188 C 38.128906 43.695312 37.734375 43.734375 37.335938 43.734375 C 36.9375 43.734375 36.542969 43.695312 36.152344 43.617188 C 35.761719 43.539062 35.382812 43.421875 35.011719 43.269531 C 34.644531 43.117188 34.296875 42.925781 33.964844 42.703125 C 33.632812 42.480469 33.328125 42.226562 33.042969 41.941406 C 32.761719 41.660156 32.511719 41.351562 32.289062 41.015625 C 32.070312 40.679688 31.882812 40.328125 31.730469 39.957031 C 31.578125 39.585938 31.460938 39.203125 31.382812 38.808594 C 31.304688 38.414062 31.265625 38.019531 31.265625 37.617188 C 31.265625 37.214844 31.304688 36.816406 31.382812 36.421875 C 31.460938 36.027344 31.578125 35.644531 31.730469 35.273438 C 31.882812 34.902344 32.070312 34.550781 32.289062 34.214844 C 32.511719 33.882812 32.761719 33.574219 33.042969 33.289062 C 33.328125 33.003906 33.632812 32.75 33.964844 32.527344 C 34.296875 32.304688 34.644531 32.117188 35.011719 31.960938 C 35.382812 31.808594 35.761719 31.691406 36.152344 31.613281 C 36.542969 31.535156 36.9375 31.496094 37.335938 31.496094 C 37.734375 31.496094 38.128906 31.535156 38.519531 31.613281 C 38.910156 31.691406 39.289062 31.808594 39.660156 31.960938 C 40.027344 32.117188 40.375 32.304688 40.707031 32.527344 C 41.039062 32.75 41.34375 33.003906 41.628906 33.289062 C 41.910156 33.574219 42.160156 33.882812 42.382812 34.214844 C 42.601562 34.550781 42.789062 34.902344 42.941406 35.273438 C 43.09375 35.644531 43.210938 36.027344 43.289062 36.421875 C 43.367188 36.816406 43.40625 37.214844 43.40625 37.617188 Z M 43.40625 37.617188 " fill-opacity="1" fill-rule="nonzero"/></svg>