<svg xmlns="http://www.w3.org/2000/svg" xmlns:xlink="http://www.w3.org/1999/xlink" width="100" zoomAndPan="magnify" viewBox="0 0 75 74.999997" height="100" preserveAspectRatio="xMidYMid meet" version="1.0"><defs><clipPath id="37288f89ac"><path d="M 6.5625 5.851562 L 68.8125 5.851562 L 68.8125 65 L 6.5625 65 Z M 6.5625 5.851562 " clip-rule="nonzero"/></clipPath></defs><g clip-path="url(#37288f89ac)"><path fill="#764abc" d="M 49.6875 47.066406 C 51.984375 46.828125 53.726562 44.851562 53.648438 42.476562 C 53.570312 40.105469 51.589844 38.207031 49.214844 38.207031 L 49.054688 38.207031 C 46.601562 38.285156 44.699219 40.339844 44.78125 42.792969 C 44.859375 43.980469 45.335938 45.007812 46.046875 45.722656 C 43.355469 51.019531 39.238281 54.898438 33.0625 58.140625 C 28.867188 60.355469 24.511719 61.148438 20.15625 60.59375 C 16.59375 60.117188 13.824219 58.535156 12.082031 55.925781 C 9.546875 52.050781 9.308594 47.855469 11.445312 43.664062 C 12.953125 40.65625 15.328125 38.441406 16.832031 37.335938 C 16.515625 36.308594 16.039062 34.566406 15.800781 33.300781 C 4.320312 41.605469 5.507812 52.839844 8.992188 58.140625 C 11.605469 62.097656 16.910156 64.550781 22.769531 64.550781 C 24.351562 64.550781 25.9375 64.390625 27.519531 63.996094 C 37.65625 62.015625 45.335938 56.003906 49.6875 47.066406 Z M 63.625 37.257812 C 57.605469 30.214844 48.738281 26.339844 38.605469 26.339844 L 37.335938 26.339844 C 36.625 24.914062 35.121094 23.964844 33.457031 23.964844 L 33.300781 23.964844 C 30.84375 24.046875 28.945312 26.101562 29.023438 28.554688 C 29.101562 30.925781 31.082031 32.828125 33.457031 32.828125 L 33.617188 32.828125 C 35.359375 32.746094 36.863281 31.640625 37.496094 30.136719 L 38.921875 30.136719 C 44.9375 30.136719 50.640625 31.875 55.785156 35.277344 C 59.746094 37.890625 62.59375 41.289062 64.179688 45.40625 C 65.523438 48.726562 65.445312 51.96875 64.019531 54.738281 C 61.804688 58.933594 58.082031 61.226562 53.171875 61.226562 C 50.007812 61.226562 46.996094 60.277344 45.414062 59.566406 C 44.542969 60.355469 42.960938 61.621094 41.851562 62.414062 C 45.253906 63.996094 48.738281 64.867188 52.066406 64.867188 C 59.664062 64.867188 65.285156 60.671875 67.425781 56.480469 C 69.722656 51.890625 69.5625 43.980469 63.625 37.257812 Z M 23.402344 48.410156 C 23.480469 50.785156 25.460938 52.683594 27.835938 52.683594 L 27.996094 52.683594 C 30.449219 52.601562 32.347656 50.546875 32.269531 48.09375 C 32.191406 45.71875 30.210938 43.820312 27.835938 43.820312 L 27.679688 43.820312 C 27.519531 43.820312 27.28125 43.820312 27.125 43.902344 C 23.878906 38.523438 22.53125 32.667969 23.007812 26.339844 C 23.324219 21.59375 24.90625 17.480469 27.679688 14.078125 C 29.972656 11.148438 34.40625 9.726562 37.417969 9.648438 C 45.808594 9.488281 49.371094 19.929688 49.609375 24.125 C 50.640625 24.359375 52.382812 24.914062 53.570312 25.3125 C 52.617188 12.496094 44.699219 5.851562 37.101562 5.851562 C 29.972656 5.851562 23.402344 10.992188 20.789062 18.585938 C 17.148438 28.710938 19.523438 38.441406 23.957031 46.117188 C 23.5625 46.671875 23.324219 47.539062 23.402344 48.410156 Z M 23.402344 48.410156 " fill-opacity="1" fill-rule="nonzero"/></g></svg>