<svg xmlns="http://www.w3.org/2000/svg" xmlns:xlink="http://www.w3.org/1999/xlink" width="100" zoomAndPan="magnify" viewBox="0 0 75 74.999997" height="100" preserveAspectRatio="xMidYMid meet" version="1.0"><defs><clipPath id="26501722d8"><path d="M 6 14 L 68.832031 14 L 68.832031 62 L 6 62 Z M 6 14 " clip-rule="nonzero"/></clipPath></defs><g clip-path="url(#26501722d8)"><path fill="#cf649a" d="M 59.945312 41.4375 C 57.761719 41.449219 55.875 41.976562 54.289062 42.765625 C 53.707031 41.597656 53.121094 40.578125 53.023438 39.816406 C 52.914062 38.933594 52.777344 38.394531 52.914062 37.335938 C 53.046875 36.28125 53.65625 34.785156 53.65625 34.660156 C 53.644531 34.550781 53.523438 34.011719 52.265625 34 C 51.011719 33.988281 49.925781 34.242188 49.804688 34.574219 C 49.585938 35.191406 49.414062 35.816406 49.28125 36.453125 C 49.0625 37.609375 46.769531 41.695312 45.464844 43.847656 C 45.039062 43.011719 44.671875 42.273438 44.601562 41.683594 C 44.488281 40.800781 44.355469 40.261719 44.488281 39.207031 C 44.625 38.148438 45.234375 36.652344 45.234375 36.527344 C 45.222656 36.417969 45.097656 35.878906 43.84375 35.867188 C 42.589844 35.855469 41.503906 36.113281 41.382812 36.445312 C 41.261719 36.777344 41.125 37.5625 40.859375 38.324219 C 40.601562 39.082031 37.554688 45.910156 36.761719 47.691406 C 36.359375 48.597656 36.007812 49.324219 35.75 49.816406 C 35.496094 50.304688 35.738281 49.851562 35.714844 49.902344 L 35.375 50.550781 L 35.375 50.5625 C 35.203125 50.871094 35.019531 51.167969 34.933594 51.167969 C 34.875 51.167969 34.75 50.34375 34.960938 49.214844 C 35.410156 46.84375 36.507812 43.148438 36.496094 43.011719 C 36.496094 42.953125 36.703125 42.300781 35.789062 41.96875 C 34.898438 41.636719 34.582031 42.191406 34.507812 42.191406 C 34.433594 42.191406 34.375 42.386719 34.375 42.386719 C 34.375 42.386719 35.359375 38.222656 32.484375 38.222656 C 30.679688 38.222656 28.195312 40.203125 26.960938 42.003906 L 20.746094 45.429688 L 20.613281 45.285156 C 17.128906 41.535156 10.679688 38.882812 10.949219 33.851562 C 11.046875 32.019531 11.679688 27.195312 23.332031 21.351562 C 32.875 16.5625 40.515625 17.878906 41.84375 20.800781 C 43.734375 24.972656 37.761719 32.730469 27.839844 33.851562 C 24.0625 34.28125 22.078125 32.808594 21.574219 32.257812 C 21.050781 31.679688 20.976562 31.652344 20.785156 31.765625 C 20.464844 31.9375 20.660156 32.453125 20.785156 32.757812 C 21.074219 33.535156 22.292969 34.910156 24.367188 35.597656 C 26.183594 36.199219 30.617188 36.527344 35.980469 34.441406 C 41.992188 32.097656 46.683594 25.589844 45.304688 20.152344 C 43.902344 14.613281 34.789062 12.796875 26.171875 15.878906 C 21.039062 17.71875 15.492188 20.589844 11.496094 24.359375 C 6.730469 28.828125 5.976562 32.734375 6.292969 34.355469 C 7.402344 40.136719 15.3125 43.90625 18.480469 46.695312 L 18.039062 46.941406 C 16.457031 47.726562 10.421875 50.90625 8.910156 54.269531 C 7.207031 58.074219 9.179688 60.8125 10.496094 61.183594 C 14.566406 62.324219 18.734375 60.273438 20.988281 56.898438 C 23.234375 53.519531 22.964844 49.136719 21.929688 47.136719 L 21.890625 47.0625 L 23.136719 46.324219 C 23.9375 45.847656 24.730469 45.40625 25.425781 45.023438 C 25.035156 46.09375 24.753906 47.355469 24.609375 49.199219 C 24.4375 51.359375 25.316406 54.160156 26.472656 55.265625 C 26.984375 55.742188 27.59375 55.753906 27.972656 55.753906 C 29.3125 55.753906 29.921875 54.636719 30.59375 53.300781 C 31.421875 51.667969 32.15625 49.777344 32.15625 49.777344 C 32.15625 49.777344 31.238281 54.894531 33.738281 54.894531 C 34.652344 54.894531 35.566406 53.703125 35.980469 53.089844 L 35.980469 53.101562 C 35.980469 53.101562 36.003906 53.066406 36.054688 52.980469 C 36.152344 52.832031 36.199219 52.746094 36.199219 52.746094 L 36.199219 52.722656 C 36.566406 52.082031 37.382812 50.621094 38.601562 48.203125 C 40.175781 45.085938 41.6875 41.179688 41.6875 41.179688 C 41.6875 41.179688 41.832031 42.140625 42.285156 43.710938 C 42.550781 44.644531 43.136719 45.664062 43.589844 46.65625 L 43.003906 47.46875 L 43.015625 47.480469 C 42.703125 47.898438 42.382812 48.304688 42.050781 48.707031 C 40.808594 50.207031 39.320312 51.914062 39.125 52.402344 C 38.894531 52.980469 38.941406 53.410156 39.394531 53.753906 C 39.722656 54 40.308594 54.046875 40.929688 54 C 42.050781 53.925781 42.832031 53.644531 43.222656 53.472656 C 43.929688 53.21875 44.585938 52.871094 45.195312 52.425781 C 46.414062 51.519531 47.160156 50.230469 47.085938 48.511719 C 47.046875 47.566406 46.742188 46.632812 46.367188 45.746094 L 46.695312 45.257812 C 48.621094 42.421875 50.109375 39.300781 50.109375 39.300781 C 50.109375 39.300781 50.253906 40.257812 50.707031 41.832031 C 50.9375 42.628906 51.402344 43.5 51.816406 44.359375 C 50.011719 45.847656 48.878906 47.566406 48.488281 48.695312 C 47.769531 50.78125 48.328125 51.726562 49.390625 51.949219 C 49.863281 52.046875 50.546875 51.824219 51.058594 51.605469 C 51.691406 51.394531 52.460938 51.039062 53.167969 50.511719 C 54.386719 49.601562 55.558594 48.335938 55.496094 46.632812 C 55.460938 45.847656 55.253906 45.070312 54.972656 44.335938 C 56.507812 43.695312 58.496094 43.328125 61.015625 43.636719 C 66.441406 44.273438 67.511719 47.6875 67.304688 49.109375 C 67.097656 50.535156 65.964844 51.320312 65.585938 51.566406 C 65.207031 51.800781 65.085938 51.886719 65.125 52.058594 C 65.171875 52.316406 65.34375 52.300781 65.671875 52.253906 C 66.125 52.179688 68.523438 51.085938 68.621094 48.460938 C 68.769531 45.082031 65.585938 41.398438 59.945312 41.4375 Z M 18.113281 55.644531 C 16.324219 57.621094 13.800781 58.371094 12.726562 57.730469 C 11.570312 57.054688 12.019531 54.148438 14.226562 52.046875 C 15.566406 50.769531 17.3125 49.589844 18.457031 48.867188 L 19.566406 48.191406 C 19.640625 48.140625 19.6875 48.117188 19.6875 48.117188 C 19.773438 48.070312 19.871094 48.007812 19.96875 47.945312 C 20.785156 50.941406 20.007812 53.566406 18.117188 55.644531 Z M 31.21875 46.667969 C 30.597656 48.203125 29.28125 52.144531 28.488281 51.925781 C 27.804688 51.738281 27.390625 48.757812 28.355469 45.808594 C 28.839844 44.324219 29.878906 42.554688 30.488281 41.867188 C 31.476562 40.761719 32.546875 40.394531 32.816406 40.847656 C 33.132812 41.4375 31.609375 45.710938 31.21875 46.667969 Z M 42.027344 51.875 C 41.761719 52.011719 41.515625 52.109375 41.40625 52.035156 C 41.320312 51.984375 41.515625 51.800781 41.515625 51.800781 C 41.515625 51.800781 42.871094 50.339844 43.40625 49.664062 L 44.46875 48.300781 L 44.46875 48.449219 C 44.46875 50.21875 42.785156 51.394531 42.03125 51.875 Z M 50.363281 49.960938 C 50.171875 49.8125 50.195312 49.359375 50.851562 47.933594 C 51.109375 47.367188 51.695312 46.421875 52.703125 45.527344 C 52.828125 45.894531 52.898438 46.253906 52.886719 46.582031 C 52.875 48.792969 51.316406 49.617188 50.363281 49.960938 Z M 50.363281 49.960938 " fill-opacity="1" fill-rule="nonzero"/></g></svg>