<svg xmlns="http://www.w3.org/2000/svg" xmlns:xlink="http://www.w3.org/1999/xlink" width="100" zoomAndPan="magnify" viewBox="0 0 75 74.999997" height="100" preserveAspectRatio="xMidYMid meet" version="1.0"><defs><clipPath id="5c16d6a704"><path d="M 7.835938 7.835938 L 67.085938 7.835938 L 67.085938 67.085938 L 7.835938 67.085938 Z M 7.835938 7.835938 " clip-rule="nonzero"/></clipPath></defs><g clip-path="url(#5c16d6a704)"><path fill="#007acc" d="M 7.835938 37.460938 L 7.835938 7.835938 L 67.085938 7.835938 L 67.085938 67.085938 L 7.835938 67.085938 " fill-opacity="1" fill-rule="nonzero"/></g><path fill="#ffffff" d="M 20.828125 37.566406 L 20.828125 39.980469 L 28.53125 39.980469 L 28.53125 61.902344 L 33.996094 61.902344 L 33.996094 39.980469 L 41.699219 39.980469 L 41.699219 37.609375 C 41.699219 36.277344 41.699219 35.195312 41.640625 35.167969 C 41.640625 35.121094 36.945312 35.105469 31.242188 35.105469 L 20.871094 35.152344 L 20.871094 37.582031 Z M 55.445312 35.09375 C 56.957031 35.449219 58.109375 36.128906 59.148438 37.210938 C 59.695312 37.804688 60.511719 38.839844 60.570312 39.105469 C 60.570312 39.195312 58.007812 40.929688 56.453125 41.890625 C 56.394531 41.9375 56.15625 41.683594 55.917969 41.300781 C 55.148438 40.203125 54.363281 39.730469 53.132812 39.640625 C 51.355469 39.519531 50.171875 40.453125 50.171875 42.011719 C 50.171875 42.484375 50.261719 42.75 50.4375 43.136719 C 50.839844 43.949219 51.578125 44.4375 53.875 45.445312 C 58.109375 47.269531 59.949219 48.46875 61.058594 50.1875 C 62.316406 52.113281 62.597656 55.132812 61.753906 57.398438 C 60.808594 59.875 58.496094 61.546875 55.191406 62.09375 C 54.15625 62.273438 51.785156 62.242188 50.675781 62.050781 C 48.304688 61.605469 46.039062 60.421875 44.648438 58.894531 C 44.097656 58.304688 43.046875 56.71875 43.105469 56.613281 L 43.667969 56.257812 L 45.890625 54.972656 L 47.566406 53.992188 L 47.949219 54.511719 C 48.4375 55.28125 49.535156 56.320312 50.171875 56.675781 C 52.097656 57.667969 54.675781 57.535156 55.949219 56.378906 C 56.496094 55.875 56.734375 55.339844 56.734375 54.601562 C 56.734375 53.917969 56.628906 53.609375 56.289062 53.089844 C 55.816406 52.4375 54.867188 51.90625 52.199219 50.71875 C 49.132812 49.417969 47.832031 48.585938 46.617188 47.3125 C 45.921875 46.542969 45.285156 45.34375 44.988281 44.351562 C 44.765625 43.492188 44.691406 41.386719 44.898438 40.542969 C 45.535156 37.582031 47.773438 35.507812 50.972656 34.914062 C 52.007812 34.707031 54.453125 34.796875 55.472656 35.0625 Z M 55.445312 35.09375 " fill-opacity="1" fill-rule="nonzero"/></svg>